M48
; DRILL file {KiCad (5.1.6-0-10_14)} date Sunday, March 21, 2021 at 12:45:21 PM
; FORMAT={-:-/ absolute / inch / decimal}
; #@! TF.CreationDate,2021-03-21T12:45:21+08:00
; #@! TF.GenerationSoftware,Kicad,Pcbnew,(5.1.6-0-10_14)
; #@! TF.FileFunction,NonPlated,1,2,NPTH
FMAT,2
INCH
T1C0.0390
T2C0.0430
T3C0.0827
T4C0.1200
T5C0.1570
%
G90
G05
T1
X3.398Y-1.314
X3.398Y-1.511
T2
X7.3744Y-1.824
X7.6744Y-1.824
T3
X2.9134Y-1.5
X4.0831Y-6.1529
X4.7441Y-1.5
X5.475Y-3.6064
X2.622Y-4.063
X7.8031Y-5.6929
X1.6233Y-6.7655
X7.9764Y-1.8504
T4
X2.753Y-5.7165
X3.1503Y-6.5684
X2.5718Y-5.801
X2.9691Y-6.6529
T5
X4.35Y-3.2629
X5.1Y-3.2
X2.85Y-2.563
X5.85Y-2.5129
X2.5212Y-6.3432
X6.6Y-5.6379
X7.35Y-5.6379
X3.0425Y-5.6863
X5.85Y-3.2629
X3.6Y-2.563
X4.35Y-2.5129
X6.6Y-2.638
X2.85Y-4.6254
X3.6Y-4.8129
X3.6Y-4.0629
X1.3661Y-5.6405
X1.683Y-6.3202
X2.6797Y-6.683
X4.35Y-4.7629
X4.35Y-4.0129
X3.2968Y-5.4629
X3.6941Y-6.3148
X6.6Y-3.3879
X5.1Y-4.7
X5.85Y-4.7629
X5.1Y-3.95
X5.85Y-4.0129
X2.85Y-3.5004
X3.2009Y-6.0262
X2.028Y-6.0546
X2.4253Y-6.9065
X2.0458Y-5.3236
X2.3628Y-6.0033
X6.6Y-4.1379
X3.6Y-3.3129
X5.1Y-2.45
X3.3595Y-6.3661
X2.0Y-7.0
X4.35Y-5.5129
X5.1Y-5.45
X5.85Y-5.5129
X6.6Y-4.8879
T5
G00X7.3499Y-3.3879
M15
G01X7.5374Y-3.3879
M16
G05
G00X7.3499Y-2.638
M15
G01X7.5374Y-2.638
M16
G05
G00X7.3499Y-4.8879
M15
G01X7.5374Y-4.8879
M16
G05
G00X7.3499Y-4.1379
M15
G01X7.5374Y-4.1379
M16
G05
T0
M30
