%TF.GenerationSoftware,KiCad,Pcbnew,(5.1.6-0-10_14)*%
%TF.CreationDate,2021-03-26T17:56:54+08:00*%
%TF.ProjectId,ErgoDone,4572676f-446f-46e6-952e-6b696361645f,rev?*%
%TF.SameCoordinates,Original*%
%TF.FileFunction,OtherDrawing,Comment*%
%FSLAX46Y46*%
G04 Gerber Fmt 4.6, Leading zero omitted, Abs format (unit mm)*
G04 Created by KiCad (PCBNEW (5.1.6-0-10_14)) date 2021-03-26 17:56:54*
%MOMM*%
%LPD*%
G01*
G04 APERTURE LIST*
%ADD10C,0.025400*%
%ADD11C,0.381000*%
G04 APERTURE END LIST*
D10*
%TO.C,J1*%
X137642600Y-30480000D02*
X137642600Y-30480000D01*
D11*
X141493240Y-28481020D02*
X133791960Y-28481020D01*
X141493240Y-37480240D02*
X141493240Y-28481020D01*
X133791960Y-37480240D02*
X141493240Y-37480240D01*
X133791960Y-28481020D02*
X133791960Y-37480240D01*
D10*
%TO.C,J2*%
X86309200Y-30480000D02*
X86309200Y-30480000D01*
D11*
X91109800Y-42545000D02*
X91109800Y-30480000D01*
X81508600Y-42545000D02*
X91109800Y-42545000D01*
X81508600Y-30480000D02*
X81508600Y-42545000D01*
X84061300Y-30480000D02*
X81508600Y-30480000D01*
X84061300Y-31775400D02*
X84061300Y-30480000D01*
X88557100Y-31775400D02*
X84061300Y-31775400D01*
X88557100Y-30480000D02*
X88557100Y-31775400D01*
X91109800Y-30480000D02*
X88557100Y-30480000D01*
D10*
%TO.C,R1*%
X106165000Y-36465000D02*
X106165000Y-36465000D01*
D11*
X102990000Y-35195000D02*
X102990000Y-37735000D01*
X109340000Y-35195000D02*
X102990000Y-35195000D01*
X109340000Y-37735000D02*
X109340000Y-35195000D01*
X102990000Y-37735000D02*
X109340000Y-37735000D01*
D10*
%TO.C,R2*%
X106172000Y-39751000D02*
X106172000Y-39751000D01*
D11*
X102997000Y-38481000D02*
X102997000Y-41021000D01*
X109347000Y-38481000D02*
X102997000Y-38481000D01*
X109347000Y-41021000D02*
X109347000Y-38481000D01*
X102997000Y-41021000D02*
X109347000Y-41021000D01*
D10*
%TO.C,RA1*%
X70665000Y-47065000D02*
X70665000Y-47065000D01*
D11*
X71935000Y-43890000D02*
X69395000Y-43890000D01*
X71935000Y-50240000D02*
X71935000Y-43890000D01*
X69395000Y-50240000D02*
X71935000Y-50240000D01*
X69395000Y-43890000D02*
X69395000Y-50240000D01*
D10*
%TO.C,RB1*%
X73965000Y-47065000D02*
X73965000Y-47065000D01*
D11*
X75235000Y-43890000D02*
X72695000Y-43890000D01*
X75235000Y-50240000D02*
X75235000Y-43890000D01*
X72695000Y-50240000D02*
X75235000Y-50240000D01*
X72695000Y-43890000D02*
X72695000Y-50240000D01*
D10*
%TO.C,RC1*%
X77365000Y-47065000D02*
X77365000Y-47065000D01*
D11*
X78635000Y-43890000D02*
X76095000Y-43890000D01*
X78635000Y-50240000D02*
X78635000Y-43890000D01*
X76095000Y-50240000D02*
X78635000Y-50240000D01*
X76095000Y-43890000D02*
X76095000Y-50240000D01*
D10*
%TO.C,U1*%
X175895000Y-42545000D02*
X175895000Y-42545000D01*
D11*
X191135000Y-51435000D02*
X160655000Y-51435000D01*
X191135000Y-33655000D02*
X191135000Y-51435000D01*
X160655000Y-33655000D02*
X191135000Y-33655000D01*
X160655000Y-51435000D02*
X160655000Y-33655000D01*
D10*
%TO.C,U2*%
X178420000Y-42520000D02*
X178420000Y-42520000D01*
D11*
X159370000Y-45060000D02*
X159370000Y-39980000D01*
X197470000Y-45060000D02*
X159370000Y-45060000D01*
X197470000Y-39980000D02*
X197470000Y-45060000D01*
X159370000Y-39980000D02*
X197470000Y-39980000D01*
%TD*%
M02*
