%TF.GenerationSoftware,KiCad,Pcbnew,(5.1.6-0-10_14)*%
%TF.CreationDate,2021-03-26T17:56:53+08:00*%
%TF.ProjectId,ErgoDone,4572676f-446f-46e6-952e-6b696361645f,rev?*%
%TF.SameCoordinates,Original*%
%TF.FileFunction,Paste,Bot*%
%TF.FilePolarity,Positive*%
%FSLAX46Y46*%
G04 Gerber Fmt 4.6, Leading zero omitted, Abs format (unit mm)*
G04 Created by KiCad (PCBNEW (5.1.6-0-10_14)) date 2021-03-26 17:56:53*
%MOMM*%
%LPD*%
G01*
G04 APERTURE LIST*
%ADD10C,3.987800*%
%ADD11R,1.000000X1.600000*%
%ADD12R,1.600000X1.000000*%
%ADD13C,0.150000*%
G04 APERTURE END LIST*
D10*
%TO.C,SW0:12*%
X50800000Y-177800000D03*
%TD*%
%TO.C,SW1:13*%
X186690000Y-143202660D03*
%TD*%
%TO.C,SW5:7*%
X72390000Y-65100200D03*
%TD*%
%TO.C,SW5:12*%
X167640000Y-67005200D03*
%TD*%
D11*
%TO.C,D2*%
X70864600Y-72669400D03*
X73864600Y-72669400D03*
%TD*%
D12*
%TO.C,D4*%
X80035400Y-90374600D03*
X80035400Y-87374600D03*
%TD*%
%TO.C,D6*%
X80035400Y-119025800D03*
X80035400Y-116025800D03*
%TD*%
D13*
%TO.C,D8*%
G36*
X55192879Y-146934482D02*
G01*
X54516689Y-145484390D01*
X55422997Y-145061772D01*
X56099187Y-146511864D01*
X55192879Y-146934482D01*
G37*
G36*
X57911803Y-145666628D02*
G01*
X57235613Y-144216536D01*
X58141921Y-143793918D01*
X58818111Y-145244010D01*
X57911803Y-145666628D01*
G37*
%TD*%
%TO.C,D10*%
G36*
X36498479Y-151811282D02*
G01*
X35822289Y-150361190D01*
X36728597Y-149938572D01*
X37404787Y-151388664D01*
X36498479Y-151811282D01*
G37*
G36*
X39217403Y-150543428D02*
G01*
X38541213Y-149093336D01*
X39447521Y-148670718D01*
X40123711Y-150120810D01*
X39217403Y-150543428D01*
G37*
%TD*%
D11*
%TO.C,D12*%
X89914600Y-72669400D03*
X92914600Y-72669400D03*
%TD*%
%TO.C,D14*%
X89914600Y-91770200D03*
X92914600Y-91770200D03*
%TD*%
%TO.C,D16*%
X89914600Y-110871000D03*
X92914600Y-110871000D03*
%TD*%
%TO.C,D18*%
X89863800Y-129870200D03*
X92863800Y-129870200D03*
%TD*%
D13*
%TO.C,D20*%
G36*
X72464879Y-138958882D02*
G01*
X71788689Y-137508790D01*
X72694997Y-137086172D01*
X73371187Y-138536264D01*
X72464879Y-138958882D01*
G37*
G36*
X75183803Y-137691028D02*
G01*
X74507613Y-136240936D01*
X75413921Y-135818318D01*
X76090111Y-137268410D01*
X75183803Y-137691028D01*
G37*
%TD*%
%TO.C,D22*%
G36*
X53668879Y-143683282D02*
G01*
X52992689Y-142233190D01*
X53898997Y-141810572D01*
X54575187Y-143260664D01*
X53668879Y-143683282D01*
G37*
G36*
X56387803Y-142415428D02*
G01*
X55711613Y-140965336D01*
X56617921Y-140542718D01*
X57294111Y-141992810D01*
X56387803Y-142415428D01*
G37*
%TD*%
D11*
%TO.C,D24*%
X108964600Y-71450200D03*
X111964600Y-71450200D03*
%TD*%
%TO.C,D26*%
X108964600Y-90449400D03*
X111964600Y-90449400D03*
%TD*%
%TO.C,D28*%
X108964600Y-109550200D03*
X111964600Y-109550200D03*
%TD*%
%TO.C,D30*%
X108913800Y-128600200D03*
X111913800Y-128600200D03*
%TD*%
%TO.C,D32*%
X108913800Y-147650200D03*
X111913800Y-147650200D03*
%TD*%
D13*
%TO.C,D34*%
G36*
X44474079Y-169083282D02*
G01*
X43797889Y-167633190D01*
X44704197Y-167210572D01*
X45380387Y-168660664D01*
X44474079Y-169083282D01*
G37*
G36*
X47193003Y-167815428D02*
G01*
X46516813Y-166365336D01*
X47423121Y-165942718D01*
X48099311Y-167392810D01*
X47193003Y-167815428D01*
G37*
%TD*%
D11*
%TO.C,D36*%
X127963800Y-69824600D03*
X130963800Y-69824600D03*
%TD*%
%TO.C,D38*%
X128014600Y-88925400D03*
X131014600Y-88925400D03*
%TD*%
%TO.C,D40*%
X127963800Y-107975400D03*
X130963800Y-107975400D03*
%TD*%
%TO.C,D42*%
X128065400Y-126974600D03*
X131065400Y-126974600D03*
%TD*%
%TO.C,D44*%
X127963800Y-146075400D03*
X130963800Y-146075400D03*
%TD*%
D13*
%TO.C,D46*%
G36*
X89784482Y-151410721D02*
G01*
X88334390Y-152086911D01*
X87911772Y-151180603D01*
X89361864Y-150504413D01*
X89784482Y-151410721D01*
G37*
G36*
X88516628Y-148691797D02*
G01*
X87066536Y-149367987D01*
X86643918Y-148461679D01*
X88094010Y-147785489D01*
X88516628Y-148691797D01*
G37*
%TD*%
D11*
%TO.C,D48*%
X147013800Y-71450200D03*
X150013800Y-71450200D03*
%TD*%
%TO.C,D50*%
X146963000Y-90500200D03*
X149963000Y-90500200D03*
%TD*%
%TO.C,D52*%
X147064600Y-109550200D03*
X150064600Y-109550200D03*
%TD*%
%TO.C,D54*%
X147064600Y-128600200D03*
X150064600Y-128600200D03*
%TD*%
%TO.C,D56*%
X147064600Y-147650200D03*
X150064600Y-147650200D03*
%TD*%
D13*
%TO.C,D58*%
G36*
X72512482Y-159437121D02*
G01*
X71062390Y-160113311D01*
X70639772Y-159207003D01*
X72089864Y-158530813D01*
X72512482Y-159437121D01*
G37*
G36*
X71244628Y-156718197D02*
G01*
X69794536Y-157394387D01*
X69371918Y-156488079D01*
X70822010Y-155811889D01*
X71244628Y-156718197D01*
G37*
%TD*%
D11*
%TO.C,D60*%
X166063800Y-74650600D03*
X169063800Y-74650600D03*
%TD*%
%TO.C,D62*%
X166114600Y-93649800D03*
X169114600Y-93649800D03*
%TD*%
%TO.C,D64*%
X166063800Y-112750600D03*
X169063800Y-112750600D03*
%TD*%
%TO.C,D66*%
X166114600Y-131800600D03*
X169114600Y-131800600D03*
%TD*%
%TO.C,D68*%
X166114600Y-150799800D03*
X169114600Y-150799800D03*
%TD*%
D13*
%TO.C,D70*%
G36*
X52500479Y-186304482D02*
G01*
X51824289Y-184854390D01*
X52730597Y-184431772D01*
X53406787Y-185881864D01*
X52500479Y-186304482D01*
G37*
G36*
X55219403Y-185036628D02*
G01*
X54543213Y-183586536D01*
X55449521Y-183163918D01*
X56125711Y-184614010D01*
X55219403Y-185036628D01*
G37*
%TD*%
D11*
%TO.C,D72*%
X189889000Y-74599800D03*
X192889000Y-74599800D03*
%TD*%
%TO.C,D74*%
X189889000Y-93700600D03*
X192889000Y-93700600D03*
%TD*%
%TO.C,D76*%
X189889000Y-112699800D03*
X192889000Y-112699800D03*
%TD*%
%TO.C,D78*%
X189939800Y-131749800D03*
X192939800Y-131749800D03*
%TD*%
%TO.C,D80*%
X185164600Y-150799800D03*
X188164600Y-150799800D03*
%TD*%
M02*
