%TF.GenerationSoftware,KiCad,Pcbnew,(5.1.6-0-10_14)*%
%TF.CreationDate,2021-03-26T17:56:54+08:00*%
%TF.ProjectId,ErgoDone,4572676f-446f-46e6-952e-6b696361645f,rev?*%
%TF.SameCoordinates,Original*%
%TF.FileFunction,Legend,Bot*%
%TF.FilePolarity,Positive*%
%FSLAX46Y46*%
G04 Gerber Fmt 4.6, Leading zero omitted, Abs format (unit mm)*
G04 Created by KiCad (PCBNEW (5.1.6-0-10_14)) date 2021-03-26 17:56:54*
%MOMM*%
%LPD*%
G01*
G04 APERTURE LIST*
%ADD10C,0.150000*%
%ADD11C,0.304800*%
%ADD12C,0.254000*%
%ADD13C,0.203200*%
%ADD14C,1.905000*%
%ADD15C,0.508000*%
%ADD16C,0.381000*%
%ADD17C,0.300000*%
%ADD18C,0.457200*%
G04 APERTURE END LIST*
D10*
X69820971Y-37497657D02*
X68659828Y-37497657D01*
X69240400Y-38078228D02*
X69240400Y-36917085D01*
X69222257Y-34268228D02*
X69222257Y-35429371D01*
D11*
X156210000Y-46355000D02*
X160655000Y-46355000D01*
X156210000Y-38735000D02*
X156210000Y-46355000D01*
X160655000Y-38735000D02*
X156210000Y-38735000D01*
X157637238Y-40621857D02*
X159282190Y-40621857D01*
X159475714Y-40694428D01*
X159572476Y-40767000D01*
X159669238Y-40912142D01*
X159669238Y-41202428D01*
X159572476Y-41347571D01*
X159475714Y-41420142D01*
X159282190Y-41492714D01*
X157637238Y-41492714D01*
X159572476Y-42145857D02*
X159669238Y-42363571D01*
X159669238Y-42726428D01*
X159572476Y-42871571D01*
X159475714Y-42944142D01*
X159282190Y-43016714D01*
X159088666Y-43016714D01*
X158895142Y-42944142D01*
X158798380Y-42871571D01*
X158701619Y-42726428D01*
X158604857Y-42436142D01*
X158508095Y-42291000D01*
X158411333Y-42218428D01*
X158217809Y-42145857D01*
X158024285Y-42145857D01*
X157830761Y-42218428D01*
X157734000Y-42291000D01*
X157637238Y-42436142D01*
X157637238Y-42799000D01*
X157734000Y-43016714D01*
X158604857Y-44177857D02*
X158701619Y-44395571D01*
X158798380Y-44468142D01*
X158991904Y-44540714D01*
X159282190Y-44540714D01*
X159475714Y-44468142D01*
X159572476Y-44395571D01*
X159669238Y-44250428D01*
X159669238Y-43669857D01*
X157637238Y-43669857D01*
X157637238Y-44177857D01*
X157734000Y-44323000D01*
X157830761Y-44395571D01*
X158024285Y-44468142D01*
X158217809Y-44468142D01*
X158411333Y-44395571D01*
X158508095Y-44323000D01*
X158604857Y-44177857D01*
X158604857Y-43669857D01*
X203793876Y-71370371D02*
X203890638Y-71588085D01*
X203890638Y-71950942D01*
X203793876Y-72096085D01*
X203697114Y-72168657D01*
X203503590Y-72241228D01*
X203310066Y-72241228D01*
X203116542Y-72168657D01*
X203019780Y-72096085D01*
X202923019Y-71950942D01*
X202826257Y-71660657D01*
X202729495Y-71515514D01*
X202632733Y-71442942D01*
X202439209Y-71370371D01*
X202245685Y-71370371D01*
X202052161Y-71442942D01*
X201955400Y-71515514D01*
X201858638Y-71660657D01*
X201858638Y-72023514D01*
X201955400Y-72241228D01*
X202535971Y-72894371D02*
X204567971Y-72894371D01*
X202632733Y-72894371D02*
X202535971Y-73039514D01*
X202535971Y-73329800D01*
X202632733Y-73474942D01*
X202729495Y-73547514D01*
X202923019Y-73620085D01*
X203503590Y-73620085D01*
X203697114Y-73547514D01*
X203793876Y-73474942D01*
X203890638Y-73329800D01*
X203890638Y-73039514D01*
X203793876Y-72894371D01*
X203793876Y-74853800D02*
X203890638Y-74708657D01*
X203890638Y-74418371D01*
X203793876Y-74273228D01*
X203600352Y-74200657D01*
X202826257Y-74200657D01*
X202632733Y-74273228D01*
X202535971Y-74418371D01*
X202535971Y-74708657D01*
X202632733Y-74853800D01*
X202826257Y-74926371D01*
X203019780Y-74926371D01*
X203213304Y-74200657D01*
X203793876Y-76232657D02*
X203890638Y-76087514D01*
X203890638Y-75797228D01*
X203793876Y-75652085D01*
X203697114Y-75579514D01*
X203503590Y-75506942D01*
X202923019Y-75506942D01*
X202729495Y-75579514D01*
X202632733Y-75652085D01*
X202535971Y-75797228D01*
X202535971Y-76087514D01*
X202632733Y-76232657D01*
X203890638Y-76885800D02*
X202535971Y-76885800D01*
X201858638Y-76885800D02*
X201955400Y-76813228D01*
X202052161Y-76885800D01*
X201955400Y-76958371D01*
X201858638Y-76885800D01*
X202052161Y-76885800D01*
X203890638Y-78264657D02*
X202826257Y-78264657D01*
X202632733Y-78192085D01*
X202535971Y-78046942D01*
X202535971Y-77756657D01*
X202632733Y-77611514D01*
X203793876Y-78264657D02*
X203890638Y-78119514D01*
X203890638Y-77756657D01*
X203793876Y-77611514D01*
X203600352Y-77538942D01*
X203406828Y-77538942D01*
X203213304Y-77611514D01*
X203116542Y-77756657D01*
X203116542Y-78119514D01*
X203019780Y-78264657D01*
X203890638Y-79208085D02*
X203793876Y-79062942D01*
X203600352Y-78990371D01*
X201858638Y-78990371D01*
X201858638Y-80732085D02*
X201858638Y-81602942D01*
X203890638Y-81167514D02*
X201858638Y-81167514D01*
X203890638Y-82110942D02*
X201858638Y-82110942D01*
X203890638Y-82764085D02*
X202826257Y-82764085D01*
X202632733Y-82691514D01*
X202535971Y-82546371D01*
X202535971Y-82328657D01*
X202632733Y-82183514D01*
X202729495Y-82110942D01*
X203890638Y-84142942D02*
X202826257Y-84142942D01*
X202632733Y-84070371D01*
X202535971Y-83925228D01*
X202535971Y-83634942D01*
X202632733Y-83489800D01*
X203793876Y-84142942D02*
X203890638Y-83997800D01*
X203890638Y-83634942D01*
X203793876Y-83489800D01*
X203600352Y-83417228D01*
X203406828Y-83417228D01*
X203213304Y-83489800D01*
X203116542Y-83634942D01*
X203116542Y-83997800D01*
X203019780Y-84142942D01*
X202535971Y-84868657D02*
X203890638Y-84868657D01*
X202729495Y-84868657D02*
X202632733Y-84941228D01*
X202535971Y-85086371D01*
X202535971Y-85304085D01*
X202632733Y-85449228D01*
X202826257Y-85521800D01*
X203890638Y-85521800D01*
X203890638Y-86247514D02*
X201858638Y-86247514D01*
X203116542Y-86392657D02*
X203890638Y-86828085D01*
X202535971Y-86828085D02*
X203310066Y-86247514D01*
X203793876Y-87408657D02*
X203890638Y-87553800D01*
X203890638Y-87844085D01*
X203793876Y-87989228D01*
X203600352Y-88061800D01*
X203503590Y-88061800D01*
X203310066Y-87989228D01*
X203213304Y-87844085D01*
X203213304Y-87626371D01*
X203116542Y-87481228D01*
X202923019Y-87408657D01*
X202826257Y-87408657D01*
X202632733Y-87481228D01*
X202535971Y-87626371D01*
X202535971Y-87844085D01*
X202632733Y-87989228D01*
X202535971Y-89658371D02*
X202535971Y-90238942D01*
X201858638Y-89876085D02*
X203600352Y-89876085D01*
X203793876Y-89948657D01*
X203890638Y-90093800D01*
X203890638Y-90238942D01*
X203890638Y-90964657D02*
X203793876Y-90819514D01*
X203697114Y-90746942D01*
X203503590Y-90674371D01*
X202923019Y-90674371D01*
X202729495Y-90746942D01*
X202632733Y-90819514D01*
X202535971Y-90964657D01*
X202535971Y-91182371D01*
X202632733Y-91327514D01*
X202729495Y-91400085D01*
X202923019Y-91472657D01*
X203503590Y-91472657D01*
X203697114Y-91400085D01*
X203793876Y-91327514D01*
X203890638Y-91182371D01*
X203890638Y-90964657D01*
X203890638Y-97931514D02*
X202535971Y-97931514D01*
X202923019Y-97931514D02*
X202729495Y-98004085D01*
X202632733Y-98076657D01*
X202535971Y-98221800D01*
X202535971Y-98366942D01*
X203890638Y-98874942D02*
X202535971Y-98874942D01*
X201858638Y-98874942D02*
X201955400Y-98802371D01*
X202052161Y-98874942D01*
X201955400Y-98947514D01*
X201858638Y-98874942D01*
X202052161Y-98874942D01*
X202535971Y-100253800D02*
X204180923Y-100253800D01*
X204374447Y-100181228D01*
X204471209Y-100108657D01*
X204567971Y-99963514D01*
X204567971Y-99745800D01*
X204471209Y-99600657D01*
X203793876Y-100253800D02*
X203890638Y-100108657D01*
X203890638Y-99818371D01*
X203793876Y-99673228D01*
X203697114Y-99600657D01*
X203503590Y-99528085D01*
X202923019Y-99528085D01*
X202729495Y-99600657D01*
X202632733Y-99673228D01*
X202535971Y-99818371D01*
X202535971Y-100108657D01*
X202632733Y-100253800D01*
X203890638Y-100979514D02*
X202535971Y-100979514D01*
X201858638Y-100979514D02*
X201955400Y-100906942D01*
X202052161Y-100979514D01*
X201955400Y-101052085D01*
X201858638Y-100979514D01*
X202052161Y-100979514D01*
X202535971Y-101705228D02*
X203890638Y-101705228D01*
X202729495Y-101705228D02*
X202632733Y-101777800D01*
X202535971Y-101922942D01*
X202535971Y-102140657D01*
X202632733Y-102285800D01*
X202826257Y-102358371D01*
X203890638Y-102358371D01*
X203890638Y-103737228D02*
X202826257Y-103737228D01*
X202632733Y-103664657D01*
X202535971Y-103519514D01*
X202535971Y-103229228D01*
X202632733Y-103084085D01*
X203793876Y-103737228D02*
X203890638Y-103592085D01*
X203890638Y-103229228D01*
X203793876Y-103084085D01*
X203600352Y-103011514D01*
X203406828Y-103011514D01*
X203213304Y-103084085D01*
X203116542Y-103229228D01*
X203116542Y-103592085D01*
X203019780Y-103737228D01*
X203890638Y-104680657D02*
X203793876Y-104535514D01*
X203600352Y-104462942D01*
X201858638Y-104462942D01*
X202826257Y-106422371D02*
X202826257Y-106930371D01*
X203890638Y-107148085D02*
X203890638Y-106422371D01*
X201858638Y-106422371D01*
X201858638Y-107148085D01*
X203890638Y-107801228D02*
X202535971Y-107801228D01*
X202923019Y-107801228D02*
X202729495Y-107873800D01*
X202632733Y-107946371D01*
X202535971Y-108091514D01*
X202535971Y-108236657D01*
X202535971Y-109397800D02*
X204180923Y-109397800D01*
X204374447Y-109325228D01*
X204471209Y-109252657D01*
X204567971Y-109107514D01*
X204567971Y-108889800D01*
X204471209Y-108744657D01*
X203793876Y-109397800D02*
X203890638Y-109252657D01*
X203890638Y-108962371D01*
X203793876Y-108817228D01*
X203697114Y-108744657D01*
X203503590Y-108672085D01*
X202923019Y-108672085D01*
X202729495Y-108744657D01*
X202632733Y-108817228D01*
X202535971Y-108962371D01*
X202535971Y-109252657D01*
X202632733Y-109397800D01*
X203890638Y-110341228D02*
X203793876Y-110196085D01*
X203697114Y-110123514D01*
X203503590Y-110050942D01*
X202923019Y-110050942D01*
X202729495Y-110123514D01*
X202632733Y-110196085D01*
X202535971Y-110341228D01*
X202535971Y-110558942D01*
X202632733Y-110704085D01*
X202729495Y-110776657D01*
X202923019Y-110849228D01*
X203503590Y-110849228D01*
X203697114Y-110776657D01*
X203793876Y-110704085D01*
X203890638Y-110558942D01*
X203890638Y-110341228D01*
X203890638Y-111502371D02*
X201858638Y-111502371D01*
X201858638Y-111865228D01*
X201955400Y-112082942D01*
X202148923Y-112228085D01*
X202342447Y-112300657D01*
X202729495Y-112373228D01*
X203019780Y-112373228D01*
X203406828Y-112300657D01*
X203600352Y-112228085D01*
X203793876Y-112082942D01*
X203890638Y-111865228D01*
X203890638Y-111502371D01*
X201858638Y-113316657D02*
X201858638Y-113606942D01*
X201955400Y-113752085D01*
X202148923Y-113897228D01*
X202535971Y-113969800D01*
X203213304Y-113969800D01*
X203600352Y-113897228D01*
X203793876Y-113752085D01*
X203890638Y-113606942D01*
X203890638Y-113316657D01*
X203793876Y-113171514D01*
X203600352Y-113026371D01*
X203213304Y-112953800D01*
X202535971Y-112953800D01*
X202148923Y-113026371D01*
X201955400Y-113171514D01*
X201858638Y-113316657D01*
X201858638Y-114477800D02*
X203890638Y-115493800D01*
X201858638Y-115493800D02*
X203890638Y-114477800D01*
X203890638Y-117235514D02*
X201858638Y-117235514D01*
X201858638Y-117598371D01*
X201955400Y-117816085D01*
X202148923Y-117961228D01*
X202342447Y-118033800D01*
X202729495Y-118106371D01*
X203019780Y-118106371D01*
X203406828Y-118033800D01*
X203600352Y-117961228D01*
X203793876Y-117816085D01*
X203890638Y-117598371D01*
X203890638Y-117235514D01*
X203793876Y-119340085D02*
X203890638Y-119194942D01*
X203890638Y-118904657D01*
X203793876Y-118759514D01*
X203600352Y-118686942D01*
X202826257Y-118686942D01*
X202632733Y-118759514D01*
X202535971Y-118904657D01*
X202535971Y-119194942D01*
X202632733Y-119340085D01*
X202826257Y-119412657D01*
X203019780Y-119412657D01*
X203213304Y-118686942D01*
X203793876Y-119993228D02*
X203890638Y-120138371D01*
X203890638Y-120428657D01*
X203793876Y-120573800D01*
X203600352Y-120646371D01*
X203503590Y-120646371D01*
X203310066Y-120573800D01*
X203213304Y-120428657D01*
X203213304Y-120210942D01*
X203116542Y-120065800D01*
X202923019Y-119993228D01*
X202826257Y-119993228D01*
X202632733Y-120065800D01*
X202535971Y-120210942D01*
X202535971Y-120428657D01*
X202632733Y-120573800D01*
X203890638Y-121299514D02*
X202535971Y-121299514D01*
X201858638Y-121299514D02*
X201955400Y-121226942D01*
X202052161Y-121299514D01*
X201955400Y-121372085D01*
X201858638Y-121299514D01*
X202052161Y-121299514D01*
X202535971Y-122678371D02*
X204180923Y-122678371D01*
X204374447Y-122605800D01*
X204471209Y-122533228D01*
X204567971Y-122388085D01*
X204567971Y-122170371D01*
X204471209Y-122025228D01*
X203793876Y-122678371D02*
X203890638Y-122533228D01*
X203890638Y-122242942D01*
X203793876Y-122097800D01*
X203697114Y-122025228D01*
X203503590Y-121952657D01*
X202923019Y-121952657D01*
X202729495Y-122025228D01*
X202632733Y-122097800D01*
X202535971Y-122242942D01*
X202535971Y-122533228D01*
X202632733Y-122678371D01*
X202535971Y-123404085D02*
X203890638Y-123404085D01*
X202729495Y-123404085D02*
X202632733Y-123476657D01*
X202535971Y-123621800D01*
X202535971Y-123839514D01*
X202632733Y-123984657D01*
X202826257Y-124057228D01*
X203890638Y-124057228D01*
X203793876Y-125363514D02*
X203890638Y-125218371D01*
X203890638Y-124928085D01*
X203793876Y-124782942D01*
X203600352Y-124710371D01*
X202826257Y-124710371D01*
X202632733Y-124782942D01*
X202535971Y-124928085D01*
X202535971Y-125218371D01*
X202632733Y-125363514D01*
X202826257Y-125436085D01*
X203019780Y-125436085D01*
X203213304Y-124710371D01*
X203890638Y-126089228D02*
X202535971Y-126089228D01*
X202923019Y-126089228D02*
X202729495Y-126161800D01*
X202632733Y-126234371D01*
X202535971Y-126379514D01*
X202535971Y-126524657D01*
X203793876Y-126960085D02*
X203890638Y-127105228D01*
X203890638Y-127395514D01*
X203793876Y-127540657D01*
X203600352Y-127613228D01*
X203503590Y-127613228D01*
X203310066Y-127540657D01*
X203213304Y-127395514D01*
X203213304Y-127177800D01*
X203116542Y-127032657D01*
X202923019Y-126960085D01*
X202826257Y-126960085D01*
X202632733Y-127032657D01*
X202535971Y-127177800D01*
X202535971Y-127395514D01*
X202632733Y-127540657D01*
D12*
X87176428Y-52644523D02*
X86753095Y-53914523D01*
X86329761Y-52644523D01*
X85422619Y-53854047D02*
X85543571Y-53914523D01*
X85785476Y-53914523D01*
X85906428Y-53854047D01*
X85966904Y-53733095D01*
X85966904Y-53249285D01*
X85906428Y-53128333D01*
X85785476Y-53067857D01*
X85543571Y-53067857D01*
X85422619Y-53128333D01*
X85362142Y-53249285D01*
X85362142Y-53370238D01*
X85966904Y-53491190D01*
X84817857Y-53914523D02*
X84817857Y-53067857D01*
X84817857Y-53309761D02*
X84757380Y-53188809D01*
X84696904Y-53128333D01*
X84575952Y-53067857D01*
X84455000Y-53067857D01*
X82398809Y-53914523D02*
X83124523Y-53914523D01*
X82761666Y-53914523D02*
X82761666Y-52644523D01*
X82882619Y-52825952D01*
X83003571Y-52946904D01*
X83124523Y-53007380D01*
X81854523Y-53793571D02*
X81794047Y-53854047D01*
X81854523Y-53914523D01*
X81915000Y-53854047D01*
X81854523Y-53793571D01*
X81854523Y-53914523D01*
X80645000Y-52644523D02*
X81249761Y-52644523D01*
X81310238Y-53249285D01*
X81249761Y-53188809D01*
X81128809Y-53128333D01*
X80826428Y-53128333D01*
X80705476Y-53188809D01*
X80645000Y-53249285D01*
X80584523Y-53370238D01*
X80584523Y-53672619D01*
X80645000Y-53793571D01*
X80705476Y-53854047D01*
X80826428Y-53914523D01*
X81128809Y-53914523D01*
X81249761Y-53854047D01*
X81310238Y-53793571D01*
D13*
X140700000Y-42624619D02*
X140700000Y-41608619D01*
X140095238Y-42624619D02*
X140095238Y-41608619D01*
X139792857Y-41608619D01*
X139611428Y-41657000D01*
X139490476Y-41753761D01*
X139430000Y-41850523D01*
X139369523Y-42044047D01*
X139369523Y-42189190D01*
X139430000Y-42382714D01*
X139490476Y-42479476D01*
X139611428Y-42576238D01*
X139792857Y-42624619D01*
X140095238Y-42624619D01*
X138583809Y-42624619D02*
X138583809Y-41608619D01*
X138281428Y-41608619D01*
X138100000Y-41657000D01*
X137979047Y-41753761D01*
X137918571Y-41850523D01*
X137858095Y-42044047D01*
X137858095Y-42189190D01*
X137918571Y-42382714D01*
X137979047Y-42479476D01*
X138100000Y-42576238D01*
X138281428Y-42624619D01*
X138583809Y-42624619D01*
X137313809Y-42237571D02*
X136346190Y-42237571D01*
X136830000Y-42624619D02*
X136830000Y-41850523D01*
X146532619Y-39957000D02*
X146653571Y-39908619D01*
X146835000Y-39908619D01*
X147016428Y-39957000D01*
X147137380Y-40053761D01*
X147197857Y-40150523D01*
X147258333Y-40344047D01*
X147258333Y-40489190D01*
X147197857Y-40682714D01*
X147137380Y-40779476D01*
X147016428Y-40876238D01*
X146835000Y-40924619D01*
X146714047Y-40924619D01*
X146532619Y-40876238D01*
X146472142Y-40827857D01*
X146472142Y-40489190D01*
X146714047Y-40489190D01*
X145927857Y-40924619D02*
X145927857Y-39908619D01*
X145202142Y-40924619D01*
X145202142Y-39908619D01*
X144597380Y-40924619D02*
X144597380Y-39908619D01*
X144295000Y-39908619D01*
X144113571Y-39957000D01*
X143992619Y-40053761D01*
X143932142Y-40150523D01*
X143871666Y-40344047D01*
X143871666Y-40489190D01*
X143932142Y-40682714D01*
X143992619Y-40779476D01*
X144113571Y-40876238D01*
X144295000Y-40924619D01*
X144597380Y-40924619D01*
X130706904Y-39808619D02*
X131311666Y-39808619D01*
X131372142Y-40292428D01*
X131311666Y-40244047D01*
X131190714Y-40195666D01*
X130888333Y-40195666D01*
X130767380Y-40244047D01*
X130706904Y-40292428D01*
X130646428Y-40389190D01*
X130646428Y-40631095D01*
X130706904Y-40727857D01*
X130767380Y-40776238D01*
X130888333Y-40824619D01*
X131190714Y-40824619D01*
X131311666Y-40776238D01*
X131372142Y-40727857D01*
X130283571Y-39808619D02*
X129860238Y-40824619D01*
X129436904Y-39808619D01*
X135883809Y-42624619D02*
X135883809Y-41608619D01*
X135581428Y-41608619D01*
X135400000Y-41657000D01*
X135279047Y-41753761D01*
X135218571Y-41850523D01*
X135158095Y-42044047D01*
X135158095Y-42189190D01*
X135218571Y-42382714D01*
X135279047Y-42479476D01*
X135400000Y-42576238D01*
X135581428Y-42624619D01*
X135883809Y-42624619D01*
X134613809Y-42237571D02*
X133646190Y-42237571D01*
D14*
X149901000Y-46520714D02*
X146345000Y-46520714D01*
X144821000Y-50512142D02*
X149901000Y-50512142D01*
X149901000Y-42892142D01*
X144821000Y-42892142D01*
X140249000Y-50512142D02*
X140249000Y-45432142D01*
X140249000Y-46883571D02*
X139741000Y-46157857D01*
X139233000Y-45795000D01*
X138217000Y-45432142D01*
X137201000Y-45432142D01*
X129073000Y-45432142D02*
X129073000Y-51600714D01*
X129581000Y-52326428D01*
X130089000Y-52689285D01*
X131105000Y-53052142D01*
X132629000Y-53052142D01*
X133645000Y-52689285D01*
X129073000Y-50149285D02*
X130089000Y-50512142D01*
X132121000Y-50512142D01*
X133137000Y-50149285D01*
X133645000Y-49786428D01*
X134153000Y-49060714D01*
X134153000Y-46883571D01*
X133645000Y-46157857D01*
X133137000Y-45795000D01*
X132121000Y-45432142D01*
X130089000Y-45432142D01*
X129073000Y-45795000D01*
X122469000Y-50512142D02*
X123485000Y-50149285D01*
X123993000Y-49786428D01*
X124501000Y-49060714D01*
X124501000Y-46883571D01*
X123993000Y-46157857D01*
X123485000Y-45795000D01*
X122469000Y-45432142D01*
X120945000Y-45432142D01*
X119929000Y-45795000D01*
X119421000Y-46157857D01*
X118913000Y-46883571D01*
X118913000Y-49060714D01*
X119421000Y-49786428D01*
X119929000Y-50149285D01*
X120945000Y-50512142D01*
X122469000Y-50512142D01*
X114341000Y-50512142D02*
X114341000Y-42892142D01*
X111801000Y-42892142D01*
X110277000Y-43255000D01*
X109261000Y-43980714D01*
X108753000Y-44706428D01*
X108245000Y-46157857D01*
X108245000Y-47246428D01*
X108753000Y-48697857D01*
X109261000Y-49423571D01*
X110277000Y-50149285D01*
X111801000Y-50512142D01*
X114341000Y-50512142D01*
X95545000Y-45432142D02*
X95545000Y-50512142D01*
X95545000Y-46157857D02*
X95037000Y-45795000D01*
X94021000Y-45432142D01*
X92497000Y-45432142D01*
X91481000Y-45795000D01*
X90973000Y-46520714D01*
X90973000Y-50512142D01*
X81829000Y-50149285D02*
X82845000Y-50512142D01*
X84877000Y-50512142D01*
X85893000Y-50149285D01*
X86401000Y-49423571D01*
X86401000Y-46520714D01*
X85893000Y-45795000D01*
X84877000Y-45432142D01*
X82845000Y-45432142D01*
X81829000Y-45795000D01*
X81321000Y-46520714D01*
X81321000Y-47246428D01*
X86401000Y-47972142D01*
D15*
X77128914Y-99727657D02*
X78338438Y-99727657D01*
X78338438Y-96679657D01*
X76282247Y-98131085D02*
X75435580Y-98131085D01*
X75072723Y-99727657D02*
X76282247Y-99727657D01*
X76282247Y-96679657D01*
X75072723Y-96679657D01*
X73137485Y-98131085D02*
X73984152Y-98131085D01*
X73984152Y-99727657D02*
X73984152Y-96679657D01*
X72774628Y-96679657D01*
X72169866Y-96679657D02*
X70718438Y-96679657D01*
X71444152Y-99727657D02*
X71444152Y-96679657D01*
X78338438Y-104807657D02*
X78338438Y-101759657D01*
X78338438Y-103211085D02*
X76887009Y-103211085D01*
X76887009Y-104807657D02*
X76887009Y-101759657D01*
X75798438Y-103936800D02*
X74588914Y-103936800D01*
X76040342Y-104807657D02*
X75193676Y-101759657D01*
X74347009Y-104807657D01*
X73500342Y-104807657D02*
X73500342Y-101759657D01*
X72048914Y-104807657D01*
X72048914Y-101759657D01*
X70839390Y-104807657D02*
X70839390Y-101759657D01*
X70234628Y-101759657D01*
X69871771Y-101904800D01*
X69629866Y-102195085D01*
X69508914Y-102485371D01*
X69387961Y-103065942D01*
X69387961Y-103501371D01*
X69508914Y-104081942D01*
X69629866Y-104372228D01*
X69871771Y-104662514D01*
X70234628Y-104807657D01*
X70839390Y-104807657D01*
D16*
%TO.C,SW0:8*%
X44276055Y-133759427D02*
X43524640Y-132148012D01*
X48891892Y-143658120D02*
X48140476Y-142046705D01*
X50503307Y-142906705D02*
X48891892Y-143658120D01*
X60402000Y-138290868D02*
X58790585Y-139042284D01*
X59650585Y-136679453D02*
X60402000Y-138290868D01*
X55034748Y-126780760D02*
X55786164Y-128392175D01*
X53423333Y-127532175D02*
X55034748Y-126780760D01*
X43524640Y-132148012D02*
X45136055Y-131396596D01*
%TO.C,J1*%
X141493240Y-28481020D02*
X133791960Y-28481020D01*
X141493240Y-37480240D02*
X141493240Y-28481020D01*
X133791960Y-37480240D02*
X141493240Y-37480240D01*
X133791960Y-28481020D02*
X133791960Y-37480240D01*
%TO.C,J2*%
X81508600Y-42545000D02*
X81508600Y-30480000D01*
X91109800Y-42545000D02*
X81508600Y-42545000D01*
X91109800Y-30480000D02*
X91109800Y-42545000D01*
D17*
%TO.C,J3*%
X92710000Y-40005000D02*
X92710000Y-37465000D01*
X95250000Y-40005000D02*
X95250000Y-37465000D01*
X92710000Y-37465000D02*
G75*
G02*
X93980000Y-36195000I1270000J0D01*
G01*
X93980000Y-36195000D02*
G75*
G02*
X95250000Y-37465000I0J-1270000D01*
G01*
X93980000Y-41275000D02*
G75*
G02*
X92710000Y-40005000I0J1270000D01*
G01*
X95250000Y-40005000D02*
G75*
G02*
X93980000Y-41275000I-1270000J0D01*
G01*
%TO.C,J4*%
X77470000Y-37465000D02*
X77470000Y-34925000D01*
X80010000Y-37465000D02*
X80010000Y-34925000D01*
X80010000Y-34925000D02*
G75*
G03*
X78740000Y-33655000I-1270000J0D01*
G01*
X78740000Y-33655000D02*
G75*
G03*
X77470000Y-34925000I0J-1270000D01*
G01*
X78740000Y-38735000D02*
G75*
G03*
X80010000Y-37465000I0J1270000D01*
G01*
X77470000Y-37465000D02*
G75*
G03*
X78740000Y-38735000I1270000J0D01*
G01*
D10*
%TO.C,LED_A1*%
X67745000Y-37664000D02*
X67565000Y-37664000D01*
X65151000Y-37664000D02*
X65351000Y-37664000D01*
X67434643Y-34436256D02*
G75*
G02*
X67751000Y-37664000I-1003643J-1727744D01*
G01*
X67564068Y-35111994D02*
G75*
G02*
X67565000Y-37215000I-1133068J-1052006D01*
G01*
X65124274Y-37651220D02*
G75*
G02*
X65471000Y-34414000I1306726J1497220D01*
G01*
X65351747Y-37177889D02*
G75*
G02*
X65371000Y-35130000I1079253J1013889D01*
G01*
%TO.C,LED_B1*%
X67745000Y-43964000D02*
X67565000Y-43964000D01*
X65151000Y-43964000D02*
X65351000Y-43964000D01*
X67434643Y-40736256D02*
G75*
G02*
X67751000Y-43964000I-1003643J-1727744D01*
G01*
X67564068Y-41411994D02*
G75*
G02*
X67565000Y-43515000I-1133068J-1052006D01*
G01*
X65124274Y-43951220D02*
G75*
G02*
X65471000Y-40714000I1306726J1497220D01*
G01*
X65351747Y-43477889D02*
G75*
G02*
X65371000Y-41430000I1079253J1013889D01*
G01*
%TO.C,LED_C1*%
X67745000Y-50364000D02*
X67565000Y-50364000D01*
X65151000Y-50364000D02*
X65351000Y-50364000D01*
X67434643Y-47136256D02*
G75*
G02*
X67751000Y-50364000I-1003643J-1727744D01*
G01*
X67564068Y-47811994D02*
G75*
G02*
X67565000Y-49915000I-1133068J-1052006D01*
G01*
X65124274Y-50351220D02*
G75*
G02*
X65471000Y-47114000I1306726J1497220D01*
G01*
X65351747Y-49877889D02*
G75*
G02*
X65371000Y-47830000I1079253J1013889D01*
G01*
D16*
%TO.C,R1*%
X101085000Y-36465000D02*
X102990000Y-36465000D01*
X111245000Y-36465000D02*
X109340000Y-36465000D01*
X102990000Y-35195000D02*
X102990000Y-37735000D01*
X109340000Y-35195000D02*
X102990000Y-35195000D01*
X109340000Y-37735000D02*
X109340000Y-35195000D01*
X102990000Y-37735000D02*
X109340000Y-37735000D01*
%TO.C,R2*%
X101092000Y-39751000D02*
X102997000Y-39751000D01*
X111252000Y-39751000D02*
X109347000Y-39751000D01*
X102997000Y-38481000D02*
X102997000Y-41021000D01*
X109347000Y-38481000D02*
X102997000Y-38481000D01*
X109347000Y-41021000D02*
X109347000Y-38481000D01*
X102997000Y-41021000D02*
X109347000Y-41021000D01*
%TO.C,RA1*%
X70665000Y-41985000D02*
X70665000Y-43890000D01*
X70665000Y-52145000D02*
X70665000Y-50240000D01*
X71935000Y-43890000D02*
X69395000Y-43890000D01*
X71935000Y-50240000D02*
X71935000Y-43890000D01*
X69395000Y-50240000D02*
X71935000Y-50240000D01*
X69395000Y-43890000D02*
X69395000Y-50240000D01*
%TO.C,RB1*%
X73965000Y-41985000D02*
X73965000Y-43890000D01*
X73965000Y-52145000D02*
X73965000Y-50240000D01*
X75235000Y-43890000D02*
X72695000Y-43890000D01*
X75235000Y-50240000D02*
X75235000Y-43890000D01*
X72695000Y-50240000D02*
X75235000Y-50240000D01*
X72695000Y-43890000D02*
X72695000Y-50240000D01*
%TO.C,RC1*%
X77365000Y-41985000D02*
X77365000Y-43890000D01*
X77365000Y-52145000D02*
X77365000Y-50240000D01*
X78635000Y-43890000D02*
X76095000Y-43890000D01*
X78635000Y-50240000D02*
X78635000Y-43890000D01*
X76095000Y-50240000D02*
X78635000Y-50240000D01*
X76095000Y-43890000D02*
X76095000Y-50240000D01*
%TO.C,SW0:7*%
X27011675Y-141808687D02*
X26260260Y-140197272D01*
X31627512Y-151707380D02*
X30876096Y-150095965D01*
X33238927Y-150955965D02*
X31627512Y-151707380D01*
X43137620Y-146340128D02*
X41526205Y-147091544D01*
X42386205Y-144728713D02*
X43137620Y-146340128D01*
X37770368Y-134830020D02*
X38521784Y-136441435D01*
X36158953Y-135581435D02*
X37770368Y-134830020D01*
X26260260Y-140197272D02*
X27871675Y-139445856D01*
%TO.C,SW0:9*%
X35060935Y-159073067D02*
X34309520Y-157461652D01*
X39676772Y-168971760D02*
X38925356Y-167360345D01*
X41288187Y-168220345D02*
X39676772Y-168971760D01*
X51186880Y-163604508D02*
X49575465Y-164355924D01*
X50435465Y-161993093D02*
X51186880Y-163604508D01*
X45819628Y-152094400D02*
X46571044Y-153705815D01*
X44208213Y-152845815D02*
X45819628Y-152094400D01*
X34309520Y-157461652D02*
X35920935Y-156710236D01*
%TO.C,SW0:10*%
X79842847Y-160752745D02*
X78231432Y-161504160D01*
X89741540Y-156136908D02*
X88130125Y-156888324D01*
X88990125Y-154525493D02*
X89741540Y-156136908D01*
X84374288Y-144626800D02*
X85125704Y-146238215D01*
X82762873Y-145378215D02*
X84374288Y-144626800D01*
X72864180Y-149994052D02*
X74475595Y-149242636D01*
X73615595Y-151605467D02*
X72864180Y-149994052D01*
X78231432Y-161504160D02*
X77480016Y-159892745D01*
%TO.C,SW0:11*%
X62578467Y-168804545D02*
X60967052Y-169555960D01*
X72477160Y-164188708D02*
X70865745Y-164940124D01*
X71725745Y-162577293D02*
X72477160Y-164188708D01*
X67109908Y-152678600D02*
X67861324Y-154290015D01*
X65498493Y-153430015D02*
X67109908Y-152678600D01*
X55599800Y-158045852D02*
X57211215Y-157294436D01*
X56351215Y-159657267D02*
X55599800Y-158045852D01*
X60967052Y-169555960D02*
X60215636Y-167944545D01*
%TO.C,SW0:12*%
X43112735Y-176339987D02*
X42361320Y-174728572D01*
X47728572Y-186238680D02*
X46977156Y-184627265D01*
X49339987Y-185487265D02*
X47728572Y-186238680D01*
X59238680Y-180871428D02*
X57627265Y-181622844D01*
X58487265Y-179260013D02*
X59238680Y-180871428D01*
X53871428Y-169361320D02*
X54622844Y-170972735D01*
X52260013Y-170112735D02*
X53871428Y-169361320D01*
X42361320Y-174728572D02*
X43972735Y-173977156D01*
%TO.C,SW1:9*%
X104140000Y-135455660D02*
X104140000Y-133677660D01*
X104140000Y-146377660D02*
X104140000Y-144599660D01*
X105918000Y-146377660D02*
X104140000Y-146377660D01*
X116840000Y-146377660D02*
X115062000Y-146377660D01*
X116840000Y-144599660D02*
X116840000Y-146377660D01*
X116840000Y-133677660D02*
X116840000Y-135455660D01*
X115062000Y-133677660D02*
X116840000Y-133677660D01*
X104140000Y-133677660D02*
X105918000Y-133677660D01*
%TO.C,SW1:10*%
X123190000Y-133858000D02*
X123190000Y-132080000D01*
X123190000Y-144780000D02*
X123190000Y-143002000D01*
X124968000Y-144780000D02*
X123190000Y-144780000D01*
X135890000Y-144780000D02*
X134112000Y-144780000D01*
X135890000Y-143002000D02*
X135890000Y-144780000D01*
X135890000Y-132080000D02*
X135890000Y-133858000D01*
X134112000Y-132080000D02*
X135890000Y-132080000D01*
X123190000Y-132080000D02*
X124968000Y-132080000D01*
%TO.C,SW1:11*%
X142240000Y-135455660D02*
X142240000Y-133677660D01*
X142240000Y-146377660D02*
X142240000Y-144599660D01*
X144018000Y-146377660D02*
X142240000Y-146377660D01*
X154940000Y-146377660D02*
X153162000Y-146377660D01*
X154940000Y-144599660D02*
X154940000Y-146377660D01*
X154940000Y-133677660D02*
X154940000Y-135455660D01*
X153162000Y-133677660D02*
X154940000Y-133677660D01*
X142240000Y-133677660D02*
X144018000Y-133677660D01*
%TO.C,SW1:12*%
X161290000Y-138630660D02*
X161290000Y-136852660D01*
X161290000Y-149552660D02*
X161290000Y-147774660D01*
X163068000Y-149552660D02*
X161290000Y-149552660D01*
X173990000Y-149552660D02*
X172212000Y-149552660D01*
X173990000Y-147774660D02*
X173990000Y-149552660D01*
X173990000Y-136852660D02*
X173990000Y-138630660D01*
X172212000Y-136852660D02*
X173990000Y-136852660D01*
X161290000Y-136852660D02*
X163068000Y-136852660D01*
%TO.C,SW1:13*%
X180340000Y-138630660D02*
X180340000Y-136852660D01*
X180340000Y-149552660D02*
X180340000Y-147774660D01*
X182118000Y-149552660D02*
X180340000Y-149552660D01*
X193040000Y-149552660D02*
X191262000Y-149552660D01*
X193040000Y-147774660D02*
X193040000Y-149552660D01*
X193040000Y-136852660D02*
X193040000Y-138630660D01*
X191262000Y-136852660D02*
X193040000Y-136852660D01*
X180340000Y-136852660D02*
X182118000Y-136852660D01*
%TO.C,SW2:7*%
X67818000Y-123835160D02*
X66040000Y-123835160D01*
X78740000Y-123835160D02*
X76962000Y-123835160D01*
X78740000Y-122057160D02*
X78740000Y-123835160D01*
X78740000Y-111135160D02*
X78740000Y-112913160D01*
X76962000Y-111135160D02*
X78740000Y-111135160D01*
X66040000Y-111135160D02*
X67818000Y-111135160D01*
X66040000Y-112913160D02*
X66040000Y-111135160D01*
X66040000Y-123835160D02*
X66040000Y-122057160D01*
%TO.C,SW2:8*%
X85090000Y-117675660D02*
X85090000Y-115897660D01*
X85090000Y-128597660D02*
X85090000Y-126819660D01*
X86868000Y-128597660D02*
X85090000Y-128597660D01*
X97790000Y-128597660D02*
X96012000Y-128597660D01*
X97790000Y-126819660D02*
X97790000Y-128597660D01*
X97790000Y-115897660D02*
X97790000Y-117675660D01*
X96012000Y-115897660D02*
X97790000Y-115897660D01*
X85090000Y-115897660D02*
X86868000Y-115897660D01*
%TO.C,SW2:9*%
X104140000Y-116405660D02*
X104140000Y-114627660D01*
X104140000Y-127327660D02*
X104140000Y-125549660D01*
X105918000Y-127327660D02*
X104140000Y-127327660D01*
X116840000Y-127327660D02*
X115062000Y-127327660D01*
X116840000Y-125549660D02*
X116840000Y-127327660D01*
X116840000Y-114627660D02*
X116840000Y-116405660D01*
X115062000Y-114627660D02*
X116840000Y-114627660D01*
X104140000Y-114627660D02*
X105918000Y-114627660D01*
%TO.C,SW2:10*%
X123190000Y-114808000D02*
X123190000Y-113030000D01*
X123190000Y-125730000D02*
X123190000Y-123952000D01*
X124968000Y-125730000D02*
X123190000Y-125730000D01*
X135890000Y-125730000D02*
X134112000Y-125730000D01*
X135890000Y-123952000D02*
X135890000Y-125730000D01*
X135890000Y-113030000D02*
X135890000Y-114808000D01*
X134112000Y-113030000D02*
X135890000Y-113030000D01*
X123190000Y-113030000D02*
X124968000Y-113030000D01*
%TO.C,SW2:11*%
X142240000Y-116405660D02*
X142240000Y-114627660D01*
X142240000Y-127327660D02*
X142240000Y-125549660D01*
X144018000Y-127327660D02*
X142240000Y-127327660D01*
X154940000Y-127327660D02*
X153162000Y-127327660D01*
X154940000Y-125549660D02*
X154940000Y-127327660D01*
X154940000Y-114627660D02*
X154940000Y-116405660D01*
X153162000Y-114627660D02*
X154940000Y-114627660D01*
X142240000Y-114627660D02*
X144018000Y-114627660D01*
%TO.C,SW2:12*%
X161290000Y-119580660D02*
X161290000Y-117802660D01*
X161290000Y-130502660D02*
X161290000Y-128724660D01*
X163068000Y-130502660D02*
X161290000Y-130502660D01*
X173990000Y-130502660D02*
X172212000Y-130502660D01*
X173990000Y-128724660D02*
X173990000Y-130502660D01*
X173990000Y-117802660D02*
X173990000Y-119580660D01*
X172212000Y-117802660D02*
X173990000Y-117802660D01*
X161290000Y-117802660D02*
X163068000Y-117802660D01*
%TO.C,SW3:8*%
X85090000Y-98625660D02*
X85090000Y-96847660D01*
X85090000Y-109547660D02*
X85090000Y-107769660D01*
X86868000Y-109547660D02*
X85090000Y-109547660D01*
X97790000Y-109547660D02*
X96012000Y-109547660D01*
X97790000Y-107769660D02*
X97790000Y-109547660D01*
X97790000Y-96847660D02*
X97790000Y-98625660D01*
X96012000Y-96847660D02*
X97790000Y-96847660D01*
X85090000Y-96847660D02*
X86868000Y-96847660D01*
%TO.C,SW3:9*%
X104140000Y-97355660D02*
X104140000Y-95577660D01*
X104140000Y-108277660D02*
X104140000Y-106499660D01*
X105918000Y-108277660D02*
X104140000Y-108277660D01*
X116840000Y-108277660D02*
X115062000Y-108277660D01*
X116840000Y-106499660D02*
X116840000Y-108277660D01*
X116840000Y-95577660D02*
X116840000Y-97355660D01*
X115062000Y-95577660D02*
X116840000Y-95577660D01*
X104140000Y-95577660D02*
X105918000Y-95577660D01*
%TO.C,SW3:10*%
X123190000Y-95758000D02*
X123190000Y-93980000D01*
X123190000Y-106680000D02*
X123190000Y-104902000D01*
X124968000Y-106680000D02*
X123190000Y-106680000D01*
X135890000Y-106680000D02*
X134112000Y-106680000D01*
X135890000Y-104902000D02*
X135890000Y-106680000D01*
X135890000Y-93980000D02*
X135890000Y-95758000D01*
X134112000Y-93980000D02*
X135890000Y-93980000D01*
X123190000Y-93980000D02*
X124968000Y-93980000D01*
%TO.C,SW3:11*%
X142240000Y-97355660D02*
X142240000Y-95577660D01*
X142240000Y-108277660D02*
X142240000Y-106499660D01*
X144018000Y-108277660D02*
X142240000Y-108277660D01*
X154940000Y-108277660D02*
X153162000Y-108277660D01*
X154940000Y-106499660D02*
X154940000Y-108277660D01*
X154940000Y-95577660D02*
X154940000Y-97355660D01*
X153162000Y-95577660D02*
X154940000Y-95577660D01*
X142240000Y-95577660D02*
X144018000Y-95577660D01*
%TO.C,SW3:12*%
X161290000Y-100530660D02*
X161290000Y-98752660D01*
X161290000Y-111452660D02*
X161290000Y-109674660D01*
X163068000Y-111452660D02*
X161290000Y-111452660D01*
X173990000Y-111452660D02*
X172212000Y-111452660D01*
X173990000Y-109674660D02*
X173990000Y-111452660D01*
X173990000Y-98752660D02*
X173990000Y-100530660D01*
X172212000Y-98752660D02*
X173990000Y-98752660D01*
X161290000Y-98752660D02*
X163068000Y-98752660D01*
%TO.C,SW4:7*%
X67818000Y-95260160D02*
X66040000Y-95260160D01*
X78740000Y-95260160D02*
X76962000Y-95260160D01*
X78740000Y-93482160D02*
X78740000Y-95260160D01*
X78740000Y-82560160D02*
X78740000Y-84338160D01*
X76962000Y-82560160D02*
X78740000Y-82560160D01*
X66040000Y-82560160D02*
X67818000Y-82560160D01*
X66040000Y-84338160D02*
X66040000Y-82560160D01*
X66040000Y-95260160D02*
X66040000Y-93482160D01*
%TO.C,SW4:8*%
X85090000Y-79575660D02*
X85090000Y-77797660D01*
X85090000Y-90497660D02*
X85090000Y-88719660D01*
X86868000Y-90497660D02*
X85090000Y-90497660D01*
X97790000Y-90497660D02*
X96012000Y-90497660D01*
X97790000Y-88719660D02*
X97790000Y-90497660D01*
X97790000Y-77797660D02*
X97790000Y-79575660D01*
X96012000Y-77797660D02*
X97790000Y-77797660D01*
X85090000Y-77797660D02*
X86868000Y-77797660D01*
%TO.C,SW4:9*%
X104140000Y-78305660D02*
X104140000Y-76527660D01*
X104140000Y-89227660D02*
X104140000Y-87449660D01*
X105918000Y-89227660D02*
X104140000Y-89227660D01*
X116840000Y-89227660D02*
X115062000Y-89227660D01*
X116840000Y-87449660D02*
X116840000Y-89227660D01*
X116840000Y-76527660D02*
X116840000Y-78305660D01*
X115062000Y-76527660D02*
X116840000Y-76527660D01*
X104140000Y-76527660D02*
X105918000Y-76527660D01*
%TO.C,SW4:10*%
X123190000Y-76708000D02*
X123190000Y-74930000D01*
X123190000Y-87630000D02*
X123190000Y-85852000D01*
X124968000Y-87630000D02*
X123190000Y-87630000D01*
X135890000Y-87630000D02*
X134112000Y-87630000D01*
X135890000Y-85852000D02*
X135890000Y-87630000D01*
X135890000Y-74930000D02*
X135890000Y-76708000D01*
X134112000Y-74930000D02*
X135890000Y-74930000D01*
X123190000Y-74930000D02*
X124968000Y-74930000D01*
%TO.C,SW4:11*%
X142240000Y-78305660D02*
X142240000Y-76527660D01*
X142240000Y-89227660D02*
X142240000Y-87449660D01*
X144018000Y-89227660D02*
X142240000Y-89227660D01*
X154940000Y-89227660D02*
X153162000Y-89227660D01*
X154940000Y-87449660D02*
X154940000Y-89227660D01*
X154940000Y-76527660D02*
X154940000Y-78305660D01*
X153162000Y-76527660D02*
X154940000Y-76527660D01*
X142240000Y-76527660D02*
X144018000Y-76527660D01*
%TO.C,SW4:12*%
X161290000Y-81480660D02*
X161290000Y-79702660D01*
X161290000Y-92402660D02*
X161290000Y-90624660D01*
X163068000Y-92402660D02*
X161290000Y-92402660D01*
X173990000Y-92402660D02*
X172212000Y-92402660D01*
X173990000Y-90624660D02*
X173990000Y-92402660D01*
X173990000Y-79702660D02*
X173990000Y-81480660D01*
X172212000Y-79702660D02*
X173990000Y-79702660D01*
X161290000Y-79702660D02*
X163068000Y-79702660D01*
%TO.C,SW4:13*%
X185102500Y-81480660D02*
X185102500Y-79702660D01*
X185102500Y-92402660D02*
X185102500Y-90624660D01*
X186880500Y-92402660D02*
X185102500Y-92402660D01*
X197802500Y-92402660D02*
X196024500Y-92402660D01*
X197802500Y-90624660D02*
X197802500Y-92402660D01*
X197802500Y-79702660D02*
X197802500Y-81480660D01*
X196024500Y-79702660D02*
X197802500Y-79702660D01*
X185102500Y-79702660D02*
X186880500Y-79702660D01*
%TO.C,SW5:7*%
X66040000Y-60528200D02*
X66040000Y-58750200D01*
X66040000Y-71450200D02*
X66040000Y-69672200D01*
X67818000Y-71450200D02*
X66040000Y-71450200D01*
X78740000Y-71450200D02*
X76962000Y-71450200D01*
X78740000Y-69672200D02*
X78740000Y-71450200D01*
X78740000Y-58750200D02*
X78740000Y-60528200D01*
X76962000Y-58750200D02*
X78740000Y-58750200D01*
X66040000Y-58750200D02*
X67818000Y-58750200D01*
%TO.C,SW5:8*%
X85090000Y-60528200D02*
X85090000Y-58750200D01*
X85090000Y-71450200D02*
X85090000Y-69672200D01*
X86868000Y-71450200D02*
X85090000Y-71450200D01*
X97790000Y-71450200D02*
X96012000Y-71450200D01*
X97790000Y-69672200D02*
X97790000Y-71450200D01*
X97790000Y-58750200D02*
X97790000Y-60528200D01*
X96012000Y-58750200D02*
X97790000Y-58750200D01*
X85090000Y-58750200D02*
X86868000Y-58750200D01*
%TO.C,SW5:9*%
X104140000Y-59255660D02*
X104140000Y-57477660D01*
X104140000Y-70177660D02*
X104140000Y-68399660D01*
X105918000Y-70177660D02*
X104140000Y-70177660D01*
X116840000Y-70177660D02*
X115062000Y-70177660D01*
X116840000Y-68399660D02*
X116840000Y-70177660D01*
X116840000Y-57477660D02*
X116840000Y-59255660D01*
X115062000Y-57477660D02*
X116840000Y-57477660D01*
X104140000Y-57477660D02*
X105918000Y-57477660D01*
%TO.C,SW5:10*%
X123190000Y-57658000D02*
X123190000Y-55880000D01*
X123190000Y-68580000D02*
X123190000Y-66802000D01*
X124968000Y-68580000D02*
X123190000Y-68580000D01*
X135890000Y-68580000D02*
X134112000Y-68580000D01*
X135890000Y-66802000D02*
X135890000Y-68580000D01*
X135890000Y-55880000D02*
X135890000Y-57658000D01*
X134112000Y-55880000D02*
X135890000Y-55880000D01*
X123190000Y-55880000D02*
X124968000Y-55880000D01*
%TO.C,SW5:11*%
X142240000Y-59255660D02*
X142240000Y-57477660D01*
X142240000Y-70177660D02*
X142240000Y-68399660D01*
X144018000Y-70177660D02*
X142240000Y-70177660D01*
X154940000Y-70177660D02*
X153162000Y-70177660D01*
X154940000Y-68399660D02*
X154940000Y-70177660D01*
X154940000Y-57477660D02*
X154940000Y-59255660D01*
X153162000Y-57477660D02*
X154940000Y-57477660D01*
X142240000Y-57477660D02*
X144018000Y-57477660D01*
%TO.C,SW5:12*%
X161290000Y-62433200D02*
X161290000Y-60655200D01*
X161290000Y-73355200D02*
X161290000Y-71577200D01*
X163068000Y-73355200D02*
X161290000Y-73355200D01*
X173990000Y-73355200D02*
X172212000Y-73355200D01*
X173990000Y-71577200D02*
X173990000Y-73355200D01*
X173990000Y-60655200D02*
X173990000Y-62433200D01*
X172212000Y-60655200D02*
X173990000Y-60655200D01*
X161290000Y-60655200D02*
X163068000Y-60655200D01*
%TO.C,SW5:13*%
X185102500Y-62433200D02*
X185102500Y-60655200D01*
X185102500Y-73355200D02*
X185102500Y-71577200D01*
X186880500Y-73355200D02*
X185102500Y-73355200D01*
X197802500Y-73355200D02*
X196024500Y-73355200D01*
X197802500Y-71577200D02*
X197802500Y-73355200D01*
X197802500Y-60655200D02*
X197802500Y-62433200D01*
X196024500Y-60655200D02*
X197802500Y-60655200D01*
X185102500Y-60655200D02*
X186880500Y-60655200D01*
%TO.C,U1*%
X163195000Y-36195000D02*
X163195000Y-33655000D01*
X160655000Y-36195000D02*
X163195000Y-36195000D01*
X191135000Y-51435000D02*
X160655000Y-51435000D01*
X191135000Y-33655000D02*
X191135000Y-51435000D01*
X160655000Y-33655000D02*
X191135000Y-33655000D01*
X160655000Y-51435000D02*
X160655000Y-33655000D01*
%TO.C,SW2:13*%
X185102500Y-119580660D02*
X185102500Y-117802660D01*
X185102500Y-130502660D02*
X185102500Y-128724660D01*
X186880500Y-130502660D02*
X185102500Y-130502660D01*
X197802500Y-130502660D02*
X196024500Y-130502660D01*
X197802500Y-128724660D02*
X197802500Y-130502660D01*
X197802500Y-117802660D02*
X197802500Y-119580660D01*
X196024500Y-117802660D02*
X197802500Y-117802660D01*
X185102500Y-117802660D02*
X186880500Y-117802660D01*
%TO.C,SW3:13*%
X185102500Y-100530660D02*
X185102500Y-98752660D01*
X185102500Y-111452660D02*
X185102500Y-109674660D01*
X186880500Y-111452660D02*
X185102500Y-111452660D01*
X197802500Y-111452660D02*
X196024500Y-111452660D01*
X197802500Y-109674660D02*
X197802500Y-111452660D01*
X197802500Y-98752660D02*
X197802500Y-100530660D01*
X196024500Y-98752660D02*
X197802500Y-98752660D01*
X185102500Y-98752660D02*
X186880500Y-98752660D01*
D10*
%TO.C,D2*%
X71856600Y-73431400D02*
X71856600Y-71907400D01*
X72872600Y-71907400D02*
X72872600Y-73431400D01*
X71856600Y-72669400D02*
X72872600Y-73431400D01*
X71856600Y-72669400D02*
X72872600Y-71907400D01*
X71475600Y-72669400D02*
X71856600Y-72669400D01*
X73253600Y-72669400D02*
X72872600Y-72669400D01*
%TO.C,D4*%
X80797400Y-89382600D02*
X79273400Y-89382600D01*
X79273400Y-88366600D02*
X80797400Y-88366600D01*
X80035400Y-89382600D02*
X80797400Y-88366600D01*
X80035400Y-89382600D02*
X79273400Y-88366600D01*
X80035400Y-89763600D02*
X80035400Y-89382600D01*
X80035400Y-87985600D02*
X80035400Y-88366600D01*
%TO.C,D6*%
X80797400Y-118033800D02*
X79273400Y-118033800D01*
X79273400Y-117017800D02*
X80797400Y-117017800D01*
X80035400Y-118033800D02*
X80797400Y-117017800D01*
X80035400Y-118033800D02*
X79273400Y-117017800D01*
X80035400Y-118414800D02*
X80035400Y-118033800D01*
X80035400Y-116636800D02*
X80035400Y-117017800D01*
%TO.C,D8*%
X56529031Y-146269497D02*
X55884961Y-144888284D01*
X56805769Y-144458903D02*
X57449839Y-145840116D01*
X56206996Y-145578890D02*
X57449839Y-145840116D01*
X56206996Y-145578890D02*
X56805769Y-144458903D01*
X55861692Y-145739908D02*
X56206996Y-145578890D01*
X57473108Y-144988492D02*
X57127804Y-145149510D01*
%TO.C,D10*%
X37834631Y-151146297D02*
X37190561Y-149765084D01*
X38111369Y-149335703D02*
X38755439Y-150716916D01*
X37512596Y-150455690D02*
X38755439Y-150716916D01*
X37512596Y-150455690D02*
X38111369Y-149335703D01*
X37167292Y-150616708D02*
X37512596Y-150455690D01*
X38778708Y-149865292D02*
X38433404Y-150026310D01*
%TO.C,D12*%
X90906600Y-73431400D02*
X90906600Y-71907400D01*
X91922600Y-71907400D02*
X91922600Y-73431400D01*
X90906600Y-72669400D02*
X91922600Y-73431400D01*
X90906600Y-72669400D02*
X91922600Y-71907400D01*
X90525600Y-72669400D02*
X90906600Y-72669400D01*
X92303600Y-72669400D02*
X91922600Y-72669400D01*
%TO.C,D14*%
X90906600Y-92532200D02*
X90906600Y-91008200D01*
X91922600Y-91008200D02*
X91922600Y-92532200D01*
X90906600Y-91770200D02*
X91922600Y-92532200D01*
X90906600Y-91770200D02*
X91922600Y-91008200D01*
X90525600Y-91770200D02*
X90906600Y-91770200D01*
X92303600Y-91770200D02*
X91922600Y-91770200D01*
%TO.C,D16*%
X90906600Y-111633000D02*
X90906600Y-110109000D01*
X91922600Y-110109000D02*
X91922600Y-111633000D01*
X90906600Y-110871000D02*
X91922600Y-111633000D01*
X90906600Y-110871000D02*
X91922600Y-110109000D01*
X90525600Y-110871000D02*
X90906600Y-110871000D01*
X92303600Y-110871000D02*
X91922600Y-110871000D01*
%TO.C,D18*%
X90855800Y-130632200D02*
X90855800Y-129108200D01*
X91871800Y-129108200D02*
X91871800Y-130632200D01*
X90855800Y-129870200D02*
X91871800Y-130632200D01*
X90855800Y-129870200D02*
X91871800Y-129108200D01*
X90474800Y-129870200D02*
X90855800Y-129870200D01*
X92252800Y-129870200D02*
X91871800Y-129870200D01*
%TO.C,D20*%
X73801031Y-138293897D02*
X73156961Y-136912684D01*
X74077769Y-136483303D02*
X74721839Y-137864516D01*
X73478996Y-137603290D02*
X74721839Y-137864516D01*
X73478996Y-137603290D02*
X74077769Y-136483303D01*
X73133692Y-137764308D02*
X73478996Y-137603290D01*
X74745108Y-137012892D02*
X74399804Y-137173910D01*
%TO.C,D22*%
X55005031Y-143018297D02*
X54360961Y-141637084D01*
X55281769Y-141207703D02*
X55925839Y-142588916D01*
X54682996Y-142327690D02*
X55925839Y-142588916D01*
X54682996Y-142327690D02*
X55281769Y-141207703D01*
X54337692Y-142488708D02*
X54682996Y-142327690D01*
X55949108Y-141737292D02*
X55603804Y-141898310D01*
%TO.C,D24*%
X109956600Y-72212200D02*
X109956600Y-70688200D01*
X110972600Y-70688200D02*
X110972600Y-72212200D01*
X109956600Y-71450200D02*
X110972600Y-72212200D01*
X109956600Y-71450200D02*
X110972600Y-70688200D01*
X109575600Y-71450200D02*
X109956600Y-71450200D01*
X111353600Y-71450200D02*
X110972600Y-71450200D01*
%TO.C,D26*%
X109956600Y-91211400D02*
X109956600Y-89687400D01*
X110972600Y-89687400D02*
X110972600Y-91211400D01*
X109956600Y-90449400D02*
X110972600Y-91211400D01*
X109956600Y-90449400D02*
X110972600Y-89687400D01*
X109575600Y-90449400D02*
X109956600Y-90449400D01*
X111353600Y-90449400D02*
X110972600Y-90449400D01*
%TO.C,D28*%
X109956600Y-110312200D02*
X109956600Y-108788200D01*
X110972600Y-108788200D02*
X110972600Y-110312200D01*
X109956600Y-109550200D02*
X110972600Y-110312200D01*
X109956600Y-109550200D02*
X110972600Y-108788200D01*
X109575600Y-109550200D02*
X109956600Y-109550200D01*
X111353600Y-109550200D02*
X110972600Y-109550200D01*
%TO.C,D30*%
X109905800Y-129362200D02*
X109905800Y-127838200D01*
X110921800Y-127838200D02*
X110921800Y-129362200D01*
X109905800Y-128600200D02*
X110921800Y-129362200D01*
X109905800Y-128600200D02*
X110921800Y-127838200D01*
X109524800Y-128600200D02*
X109905800Y-128600200D01*
X111302800Y-128600200D02*
X110921800Y-128600200D01*
%TO.C,D32*%
X109905800Y-148412200D02*
X109905800Y-146888200D01*
X110921800Y-146888200D02*
X110921800Y-148412200D01*
X109905800Y-147650200D02*
X110921800Y-148412200D01*
X109905800Y-147650200D02*
X110921800Y-146888200D01*
X109524800Y-147650200D02*
X109905800Y-147650200D01*
X111302800Y-147650200D02*
X110921800Y-147650200D01*
%TO.C,D34*%
X45810231Y-168418297D02*
X45166161Y-167037084D01*
X46086969Y-166607703D02*
X46731039Y-167988916D01*
X45488196Y-167727690D02*
X46731039Y-167988916D01*
X45488196Y-167727690D02*
X46086969Y-166607703D01*
X45142892Y-167888708D02*
X45488196Y-167727690D01*
X46754308Y-167137292D02*
X46409004Y-167298310D01*
%TO.C,D36*%
X128955800Y-70586600D02*
X128955800Y-69062600D01*
X129971800Y-69062600D02*
X129971800Y-70586600D01*
X128955800Y-69824600D02*
X129971800Y-70586600D01*
X128955800Y-69824600D02*
X129971800Y-69062600D01*
X128574800Y-69824600D02*
X128955800Y-69824600D01*
X130352800Y-69824600D02*
X129971800Y-69824600D01*
%TO.C,D38*%
X129006600Y-89687400D02*
X129006600Y-88163400D01*
X130022600Y-88163400D02*
X130022600Y-89687400D01*
X129006600Y-88925400D02*
X130022600Y-89687400D01*
X129006600Y-88925400D02*
X130022600Y-88163400D01*
X128625600Y-88925400D02*
X129006600Y-88925400D01*
X130403600Y-88925400D02*
X130022600Y-88925400D01*
%TO.C,D40*%
X128955800Y-108737400D02*
X128955800Y-107213400D01*
X129971800Y-107213400D02*
X129971800Y-108737400D01*
X128955800Y-107975400D02*
X129971800Y-108737400D01*
X128955800Y-107975400D02*
X129971800Y-107213400D01*
X128574800Y-107975400D02*
X128955800Y-107975400D01*
X130352800Y-107975400D02*
X129971800Y-107975400D01*
%TO.C,D42*%
X129057400Y-127736600D02*
X129057400Y-126212600D01*
X130073400Y-126212600D02*
X130073400Y-127736600D01*
X129057400Y-126974600D02*
X130073400Y-127736600D01*
X129057400Y-126974600D02*
X130073400Y-126212600D01*
X128676400Y-126974600D02*
X129057400Y-126974600D01*
X130454400Y-126974600D02*
X130073400Y-126974600D01*
%TO.C,D44*%
X128955800Y-146837400D02*
X128955800Y-145313400D01*
X129971800Y-145313400D02*
X129971800Y-146837400D01*
X128955800Y-146075400D02*
X129971800Y-146837400D01*
X128955800Y-146075400D02*
X129971800Y-145313400D01*
X128574800Y-146075400D02*
X128955800Y-146075400D01*
X130352800Y-146075400D02*
X129971800Y-146075400D01*
%TO.C,D46*%
X89119497Y-150074569D02*
X87738284Y-150718639D01*
X87308903Y-149797831D02*
X88690116Y-149153761D01*
X88428890Y-150396604D02*
X88690116Y-149153761D01*
X88428890Y-150396604D02*
X87308903Y-149797831D01*
X88589908Y-150741908D02*
X88428890Y-150396604D01*
X87838492Y-149130492D02*
X87999510Y-149475796D01*
%TO.C,D48*%
X148005800Y-72212200D02*
X148005800Y-70688200D01*
X149021800Y-70688200D02*
X149021800Y-72212200D01*
X148005800Y-71450200D02*
X149021800Y-72212200D01*
X148005800Y-71450200D02*
X149021800Y-70688200D01*
X147624800Y-71450200D02*
X148005800Y-71450200D01*
X149402800Y-71450200D02*
X149021800Y-71450200D01*
%TO.C,D50*%
X147955000Y-91262200D02*
X147955000Y-89738200D01*
X148971000Y-89738200D02*
X148971000Y-91262200D01*
X147955000Y-90500200D02*
X148971000Y-91262200D01*
X147955000Y-90500200D02*
X148971000Y-89738200D01*
X147574000Y-90500200D02*
X147955000Y-90500200D01*
X149352000Y-90500200D02*
X148971000Y-90500200D01*
%TO.C,D52*%
X148056600Y-110312200D02*
X148056600Y-108788200D01*
X149072600Y-108788200D02*
X149072600Y-110312200D01*
X148056600Y-109550200D02*
X149072600Y-110312200D01*
X148056600Y-109550200D02*
X149072600Y-108788200D01*
X147675600Y-109550200D02*
X148056600Y-109550200D01*
X149453600Y-109550200D02*
X149072600Y-109550200D01*
%TO.C,D54*%
X148056600Y-129362200D02*
X148056600Y-127838200D01*
X149072600Y-127838200D02*
X149072600Y-129362200D01*
X148056600Y-128600200D02*
X149072600Y-129362200D01*
X148056600Y-128600200D02*
X149072600Y-127838200D01*
X147675600Y-128600200D02*
X148056600Y-128600200D01*
X149453600Y-128600200D02*
X149072600Y-128600200D01*
%TO.C,D56*%
X148056600Y-148412200D02*
X148056600Y-146888200D01*
X149072600Y-146888200D02*
X149072600Y-148412200D01*
X148056600Y-147650200D02*
X149072600Y-148412200D01*
X148056600Y-147650200D02*
X149072600Y-146888200D01*
X147675600Y-147650200D02*
X148056600Y-147650200D01*
X149453600Y-147650200D02*
X149072600Y-147650200D01*
%TO.C,D58*%
X71847497Y-158100969D02*
X70466284Y-158745039D01*
X70036903Y-157824231D02*
X71418116Y-157180161D01*
X71156890Y-158423004D02*
X71418116Y-157180161D01*
X71156890Y-158423004D02*
X70036903Y-157824231D01*
X71317908Y-158768308D02*
X71156890Y-158423004D01*
X70566492Y-157156892D02*
X70727510Y-157502196D01*
%TO.C,D60*%
X167055800Y-75412600D02*
X167055800Y-73888600D01*
X168071800Y-73888600D02*
X168071800Y-75412600D01*
X167055800Y-74650600D02*
X168071800Y-75412600D01*
X167055800Y-74650600D02*
X168071800Y-73888600D01*
X166674800Y-74650600D02*
X167055800Y-74650600D01*
X168452800Y-74650600D02*
X168071800Y-74650600D01*
%TO.C,D62*%
X167106600Y-94411800D02*
X167106600Y-92887800D01*
X168122600Y-92887800D02*
X168122600Y-94411800D01*
X167106600Y-93649800D02*
X168122600Y-94411800D01*
X167106600Y-93649800D02*
X168122600Y-92887800D01*
X166725600Y-93649800D02*
X167106600Y-93649800D01*
X168503600Y-93649800D02*
X168122600Y-93649800D01*
%TO.C,D64*%
X167055800Y-113512600D02*
X167055800Y-111988600D01*
X168071800Y-111988600D02*
X168071800Y-113512600D01*
X167055800Y-112750600D02*
X168071800Y-113512600D01*
X167055800Y-112750600D02*
X168071800Y-111988600D01*
X166674800Y-112750600D02*
X167055800Y-112750600D01*
X168452800Y-112750600D02*
X168071800Y-112750600D01*
%TO.C,D66*%
X167106600Y-132562600D02*
X167106600Y-131038600D01*
X168122600Y-131038600D02*
X168122600Y-132562600D01*
X167106600Y-131800600D02*
X168122600Y-132562600D01*
X167106600Y-131800600D02*
X168122600Y-131038600D01*
X166725600Y-131800600D02*
X167106600Y-131800600D01*
X168503600Y-131800600D02*
X168122600Y-131800600D01*
%TO.C,D68*%
X167106600Y-151561800D02*
X167106600Y-150037800D01*
X168122600Y-150037800D02*
X168122600Y-151561800D01*
X167106600Y-150799800D02*
X168122600Y-151561800D01*
X167106600Y-150799800D02*
X168122600Y-150037800D01*
X166725600Y-150799800D02*
X167106600Y-150799800D01*
X168503600Y-150799800D02*
X168122600Y-150799800D01*
%TO.C,D70*%
X53836631Y-185639497D02*
X53192561Y-184258284D01*
X54113369Y-183828903D02*
X54757439Y-185210116D01*
X53514596Y-184948890D02*
X54757439Y-185210116D01*
X53514596Y-184948890D02*
X54113369Y-183828903D01*
X53169292Y-185109908D02*
X53514596Y-184948890D01*
X54780708Y-184358492D02*
X54435404Y-184519510D01*
%TO.C,D72*%
X190881000Y-75361800D02*
X190881000Y-73837800D01*
X191897000Y-73837800D02*
X191897000Y-75361800D01*
X190881000Y-74599800D02*
X191897000Y-75361800D01*
X190881000Y-74599800D02*
X191897000Y-73837800D01*
X190500000Y-74599800D02*
X190881000Y-74599800D01*
X192278000Y-74599800D02*
X191897000Y-74599800D01*
%TO.C,D74*%
X190881000Y-94462600D02*
X190881000Y-92938600D01*
X191897000Y-92938600D02*
X191897000Y-94462600D01*
X190881000Y-93700600D02*
X191897000Y-94462600D01*
X190881000Y-93700600D02*
X191897000Y-92938600D01*
X190500000Y-93700600D02*
X190881000Y-93700600D01*
X192278000Y-93700600D02*
X191897000Y-93700600D01*
%TO.C,D76*%
X190881000Y-113461800D02*
X190881000Y-111937800D01*
X191897000Y-111937800D02*
X191897000Y-113461800D01*
X190881000Y-112699800D02*
X191897000Y-113461800D01*
X190881000Y-112699800D02*
X191897000Y-111937800D01*
X190500000Y-112699800D02*
X190881000Y-112699800D01*
X192278000Y-112699800D02*
X191897000Y-112699800D01*
%TO.C,D78*%
X190931800Y-132511800D02*
X190931800Y-130987800D01*
X191947800Y-130987800D02*
X191947800Y-132511800D01*
X190931800Y-131749800D02*
X191947800Y-132511800D01*
X190931800Y-131749800D02*
X191947800Y-130987800D01*
X190550800Y-131749800D02*
X190931800Y-131749800D01*
X192328800Y-131749800D02*
X191947800Y-131749800D01*
%TO.C,D80*%
X186156600Y-151561800D02*
X186156600Y-150037800D01*
X187172600Y-150037800D02*
X187172600Y-151561800D01*
X186156600Y-150799800D02*
X187172600Y-151561800D01*
X186156600Y-150799800D02*
X187172600Y-150037800D01*
X185775600Y-150799800D02*
X186156600Y-150799800D01*
X187553600Y-150799800D02*
X187172600Y-150799800D01*
%TO.C,SW0:8*%
D12*
X56919065Y-137232518D02*
X56719533Y-137405635D01*
X56335863Y-137584543D01*
X56151725Y-137590335D01*
X56044320Y-137560344D01*
X55906246Y-137464582D01*
X55844906Y-137333038D01*
X55860300Y-137165712D01*
X55906364Y-137064158D01*
X56029163Y-136926823D01*
X56305429Y-136717924D01*
X56428227Y-136580589D01*
X56474291Y-136479035D01*
X56489685Y-136311709D01*
X56428345Y-136180165D01*
X56290271Y-136084402D01*
X56182867Y-136054412D01*
X55998729Y-136060203D01*
X55615058Y-136239112D01*
X55415526Y-136412229D01*
X54847718Y-136596929D02*
X55108118Y-138157050D01*
X54341131Y-137313596D01*
X54494245Y-138443304D01*
X53466505Y-137240999D01*
X52545696Y-137670379D02*
X52392228Y-137741942D01*
X52269430Y-137879278D01*
X52223366Y-137980831D01*
X52207972Y-138148157D01*
X52253918Y-138447027D01*
X52407268Y-138775887D01*
X52606682Y-139003194D01*
X52744756Y-139098956D01*
X52852160Y-139128947D01*
X53036298Y-139123155D01*
X53189766Y-139051592D01*
X53312564Y-138914257D01*
X53358628Y-138812703D01*
X53374022Y-138645377D01*
X53328076Y-138346507D01*
X53174726Y-138017647D01*
X52975312Y-137790340D01*
X52837238Y-137694578D01*
X52729834Y-137664588D01*
X52545696Y-137670379D01*
X51900681Y-139492555D02*
X51854617Y-139594109D01*
X51962021Y-139624099D01*
X52008085Y-139522545D01*
X51900681Y-139492555D01*
X51962021Y-139624099D01*
X51563311Y-138769062D02*
X51517247Y-138870616D01*
X51624651Y-138900606D01*
X51670715Y-138799053D01*
X51563311Y-138769062D01*
X51624651Y-138900606D01*
X49783270Y-138958519D02*
X50550610Y-138600703D01*
X50934045Y-139222641D01*
X50826641Y-139192651D01*
X50642502Y-139198442D01*
X50258832Y-139377351D01*
X50136034Y-139514686D01*
X50089970Y-139616240D01*
X50074576Y-139783566D01*
X50227926Y-140112426D01*
X50366000Y-140208188D01*
X50473404Y-140238179D01*
X50657542Y-140232387D01*
X51041213Y-140053479D01*
X51164011Y-139916144D01*
X51210075Y-139814590D01*
%TO.C,J1*%
D11*
X139886266Y-32046333D02*
X139886266Y-33485666D01*
X139801600Y-33655000D01*
X139716933Y-33739666D01*
X139547600Y-33824333D01*
X139208933Y-33824333D01*
X139039600Y-33739666D01*
X138954933Y-33655000D01*
X138870266Y-33485666D01*
X138870266Y-32046333D01*
X138108266Y-33739666D02*
X137854266Y-33824333D01*
X137430933Y-33824333D01*
X137261600Y-33739666D01*
X137176933Y-33655000D01*
X137092266Y-33485666D01*
X137092266Y-33316333D01*
X137176933Y-33147000D01*
X137261600Y-33062333D01*
X137430933Y-32977666D01*
X137769600Y-32893000D01*
X137938933Y-32808333D01*
X138023600Y-32723666D01*
X138108266Y-32554333D01*
X138108266Y-32385000D01*
X138023600Y-32215666D01*
X137938933Y-32131000D01*
X137769600Y-32046333D01*
X137346266Y-32046333D01*
X137092266Y-32131000D01*
X135737600Y-32893000D02*
X135483600Y-32977666D01*
X135398933Y-33062333D01*
X135314266Y-33231666D01*
X135314266Y-33485666D01*
X135398933Y-33655000D01*
X135483600Y-33739666D01*
X135652933Y-33824333D01*
X136330266Y-33824333D01*
X136330266Y-32046333D01*
X135737600Y-32046333D01*
X135568266Y-32131000D01*
X135483600Y-32215666D01*
X135398933Y-32385000D01*
X135398933Y-32554333D01*
X135483600Y-32723666D01*
X135568266Y-32808333D01*
X135737600Y-32893000D01*
X136330266Y-32893000D01*
%TO.C,J2*%
X90542533Y-35360428D02*
X89441866Y-35360428D01*
X90034533Y-35941000D01*
X89780533Y-35941000D01*
X89611200Y-36013571D01*
X89526533Y-36086142D01*
X89441866Y-36231285D01*
X89441866Y-36594142D01*
X89526533Y-36739285D01*
X89611200Y-36811857D01*
X89780533Y-36884428D01*
X90288533Y-36884428D01*
X90457866Y-36811857D01*
X90542533Y-36739285D01*
X88679866Y-36739285D02*
X88595200Y-36811857D01*
X88679866Y-36884428D01*
X88764533Y-36811857D01*
X88679866Y-36739285D01*
X88679866Y-36884428D01*
X86986533Y-35360428D02*
X87833200Y-35360428D01*
X87917866Y-36086142D01*
X87833200Y-36013571D01*
X87663866Y-35941000D01*
X87240533Y-35941000D01*
X87071200Y-36013571D01*
X86986533Y-36086142D01*
X86901866Y-36231285D01*
X86901866Y-36594142D01*
X86986533Y-36739285D01*
X87071200Y-36811857D01*
X87240533Y-36884428D01*
X87663866Y-36884428D01*
X87833200Y-36811857D01*
X87917866Y-36739285D01*
X86139866Y-36884428D02*
X86139866Y-35868428D01*
X86139866Y-36013571D02*
X86055200Y-35941000D01*
X85885866Y-35868428D01*
X85631866Y-35868428D01*
X85462533Y-35941000D01*
X85377866Y-36086142D01*
X85377866Y-36884428D01*
X85377866Y-36086142D02*
X85293200Y-35941000D01*
X85123866Y-35868428D01*
X84869866Y-35868428D01*
X84700533Y-35941000D01*
X84615866Y-36086142D01*
X84615866Y-36884428D01*
X83769200Y-36884428D02*
X83769200Y-35868428D01*
X83769200Y-36013571D02*
X83684533Y-35941000D01*
X83515200Y-35868428D01*
X83261200Y-35868428D01*
X83091866Y-35941000D01*
X83007200Y-36086142D01*
X83007200Y-36884428D01*
X83007200Y-36086142D02*
X82922533Y-35941000D01*
X82753200Y-35868428D01*
X82499200Y-35868428D01*
X82329866Y-35941000D01*
X82245200Y-36086142D01*
X82245200Y-36884428D01*
%TO.C,LED_A1*%
D10*
X64217380Y-35236428D02*
X64217380Y-34760238D01*
X63217380Y-34760238D01*
X63693571Y-35569761D02*
X63693571Y-35903095D01*
X64217380Y-36045952D02*
X64217380Y-35569761D01*
X63217380Y-35569761D01*
X63217380Y-36045952D01*
X64217380Y-36474523D02*
X63217380Y-36474523D01*
X63217380Y-36712619D01*
X63265000Y-36855476D01*
X63360238Y-36950714D01*
X63455476Y-36998333D01*
X63645952Y-37045952D01*
X63788809Y-37045952D01*
X63979285Y-36998333D01*
X64074523Y-36950714D01*
X64169761Y-36855476D01*
X64217380Y-36712619D01*
X64217380Y-36474523D01*
X64312619Y-37236428D02*
X64312619Y-37998333D01*
X63931666Y-38188809D02*
X63931666Y-38665000D01*
X64217380Y-38093571D02*
X63217380Y-38426904D01*
X64217380Y-38760238D01*
X64217380Y-39617380D02*
X64217380Y-39045952D01*
X64217380Y-39331666D02*
X63217380Y-39331666D01*
X63360238Y-39236428D01*
X63455476Y-39141190D01*
X63503095Y-39045952D01*
%TO.C,LED_B1*%
X64217380Y-41465000D02*
X64217380Y-40988809D01*
X63217380Y-40988809D01*
X63693571Y-41798333D02*
X63693571Y-42131666D01*
X64217380Y-42274523D02*
X64217380Y-41798333D01*
X63217380Y-41798333D01*
X63217380Y-42274523D01*
X64217380Y-42703095D02*
X63217380Y-42703095D01*
X63217380Y-42941190D01*
X63265000Y-43084047D01*
X63360238Y-43179285D01*
X63455476Y-43226904D01*
X63645952Y-43274523D01*
X63788809Y-43274523D01*
X63979285Y-43226904D01*
X64074523Y-43179285D01*
X64169761Y-43084047D01*
X64217380Y-42941190D01*
X64217380Y-42703095D01*
X64312619Y-43465000D02*
X64312619Y-44226904D01*
X63693571Y-44798333D02*
X63741190Y-44941190D01*
X63788809Y-44988809D01*
X63884047Y-45036428D01*
X64026904Y-45036428D01*
X64122142Y-44988809D01*
X64169761Y-44941190D01*
X64217380Y-44845952D01*
X64217380Y-44465000D01*
X63217380Y-44465000D01*
X63217380Y-44798333D01*
X63265000Y-44893571D01*
X63312619Y-44941190D01*
X63407857Y-44988809D01*
X63503095Y-44988809D01*
X63598333Y-44941190D01*
X63645952Y-44893571D01*
X63693571Y-44798333D01*
X63693571Y-44465000D01*
X64217380Y-45988809D02*
X64217380Y-45417380D01*
X64217380Y-45703095D02*
X63217380Y-45703095D01*
X63360238Y-45607857D01*
X63455476Y-45512619D01*
X63503095Y-45417380D01*
%TO.C,LED_C1*%
X64217380Y-47865000D02*
X64217380Y-47388809D01*
X63217380Y-47388809D01*
X63693571Y-48198333D02*
X63693571Y-48531666D01*
X64217380Y-48674523D02*
X64217380Y-48198333D01*
X63217380Y-48198333D01*
X63217380Y-48674523D01*
X64217380Y-49103095D02*
X63217380Y-49103095D01*
X63217380Y-49341190D01*
X63265000Y-49484047D01*
X63360238Y-49579285D01*
X63455476Y-49626904D01*
X63645952Y-49674523D01*
X63788809Y-49674523D01*
X63979285Y-49626904D01*
X64074523Y-49579285D01*
X64169761Y-49484047D01*
X64217380Y-49341190D01*
X64217380Y-49103095D01*
X64312619Y-49865000D02*
X64312619Y-50626904D01*
X64122142Y-51436428D02*
X64169761Y-51388809D01*
X64217380Y-51245952D01*
X64217380Y-51150714D01*
X64169761Y-51007857D01*
X64074523Y-50912619D01*
X63979285Y-50865000D01*
X63788809Y-50817380D01*
X63645952Y-50817380D01*
X63455476Y-50865000D01*
X63360238Y-50912619D01*
X63265000Y-51007857D01*
X63217380Y-51150714D01*
X63217380Y-51245952D01*
X63265000Y-51388809D01*
X63312619Y-51436428D01*
X64217380Y-52388809D02*
X64217380Y-51817380D01*
X64217380Y-52103095D02*
X63217380Y-52103095D01*
X63360238Y-52007857D01*
X63455476Y-51912619D01*
X63503095Y-51817380D01*
%TO.C,R1*%
D13*
X108172809Y-35890476D02*
X108124428Y-35830000D01*
X108027666Y-35769523D01*
X107785761Y-35769523D01*
X107689000Y-35830000D01*
X107640619Y-35890476D01*
X107592238Y-36011428D01*
X107592238Y-36132380D01*
X107640619Y-36313809D01*
X108221190Y-37039523D01*
X107592238Y-37039523D01*
X107156809Y-36918571D02*
X107108428Y-36979047D01*
X107156809Y-37039523D01*
X107205190Y-36979047D01*
X107156809Y-36918571D01*
X107156809Y-37039523D01*
X106721380Y-35890476D02*
X106673000Y-35830000D01*
X106576238Y-35769523D01*
X106334333Y-35769523D01*
X106237571Y-35830000D01*
X106189190Y-35890476D01*
X106140809Y-36011428D01*
X106140809Y-36132380D01*
X106189190Y-36313809D01*
X106769761Y-37039523D01*
X106140809Y-37039523D01*
X105705380Y-37039523D02*
X105705380Y-35769523D01*
X105608619Y-36555714D02*
X105318333Y-37039523D01*
X105318333Y-36192857D02*
X105705380Y-36676666D01*
X104931285Y-37039523D02*
X104689380Y-37039523D01*
X104689380Y-36797619D01*
X104786142Y-36737142D01*
X104882904Y-36616190D01*
X104931285Y-36434761D01*
X104931285Y-36132380D01*
X104882904Y-35950952D01*
X104786142Y-35830000D01*
X104641000Y-35769523D01*
X104447476Y-35769523D01*
X104302333Y-35830000D01*
X104205571Y-35950952D01*
X104157190Y-36132380D01*
X104157190Y-36434761D01*
X104205571Y-36616190D01*
X104302333Y-36737142D01*
X104399095Y-36797619D01*
X104399095Y-37039523D01*
X104157190Y-37039523D01*
%TO.C,R2*%
X108179809Y-39176476D02*
X108131428Y-39116000D01*
X108034666Y-39055523D01*
X107792761Y-39055523D01*
X107696000Y-39116000D01*
X107647619Y-39176476D01*
X107599238Y-39297428D01*
X107599238Y-39418380D01*
X107647619Y-39599809D01*
X108228190Y-40325523D01*
X107599238Y-40325523D01*
X107163809Y-40204571D02*
X107115428Y-40265047D01*
X107163809Y-40325523D01*
X107212190Y-40265047D01*
X107163809Y-40204571D01*
X107163809Y-40325523D01*
X106728380Y-39176476D02*
X106680000Y-39116000D01*
X106583238Y-39055523D01*
X106341333Y-39055523D01*
X106244571Y-39116000D01*
X106196190Y-39176476D01*
X106147809Y-39297428D01*
X106147809Y-39418380D01*
X106196190Y-39599809D01*
X106776761Y-40325523D01*
X106147809Y-40325523D01*
X105712380Y-40325523D02*
X105712380Y-39055523D01*
X105615619Y-39841714D02*
X105325333Y-40325523D01*
X105325333Y-39478857D02*
X105712380Y-39962666D01*
X104938285Y-40325523D02*
X104696380Y-40325523D01*
X104696380Y-40083619D01*
X104793142Y-40023142D01*
X104889904Y-39902190D01*
X104938285Y-39720761D01*
X104938285Y-39418380D01*
X104889904Y-39236952D01*
X104793142Y-39116000D01*
X104648000Y-39055523D01*
X104454476Y-39055523D01*
X104309333Y-39116000D01*
X104212571Y-39236952D01*
X104164190Y-39418380D01*
X104164190Y-39720761D01*
X104212571Y-39902190D01*
X104309333Y-40023142D01*
X104406095Y-40083619D01*
X104406095Y-40325523D01*
X104164190Y-40325523D01*
%TO.C,RA1*%
X71239523Y-45952238D02*
X71239523Y-45468428D01*
X69969523Y-45468428D01*
X70574285Y-46290904D02*
X70574285Y-46629571D01*
X71239523Y-46774714D02*
X71239523Y-46290904D01*
X69969523Y-46290904D01*
X69969523Y-46774714D01*
X71239523Y-47210142D02*
X69969523Y-47210142D01*
X69969523Y-47452047D01*
X70030000Y-47597190D01*
X70150952Y-47693952D01*
X70271904Y-47742333D01*
X70513809Y-47790714D01*
X70695238Y-47790714D01*
X70937142Y-47742333D01*
X71058095Y-47693952D01*
X71179047Y-47597190D01*
X71239523Y-47452047D01*
X71239523Y-47210142D01*
X71239523Y-48661571D02*
X70574285Y-48661571D01*
X70453333Y-48613190D01*
X70392857Y-48516428D01*
X70392857Y-48322904D01*
X70453333Y-48226142D01*
X71179047Y-48661571D02*
X71239523Y-48564809D01*
X71239523Y-48322904D01*
X71179047Y-48226142D01*
X71058095Y-48177761D01*
X70937142Y-48177761D01*
X70816190Y-48226142D01*
X70755714Y-48322904D01*
X70755714Y-48564809D01*
X70695238Y-48661571D01*
%TO.C,RB1*%
X74539523Y-45952238D02*
X74539523Y-45468428D01*
X73269523Y-45468428D01*
X73874285Y-46290904D02*
X73874285Y-46629571D01*
X74539523Y-46774714D02*
X74539523Y-46290904D01*
X73269523Y-46290904D01*
X73269523Y-46774714D01*
X74539523Y-47210142D02*
X73269523Y-47210142D01*
X73269523Y-47452047D01*
X73330000Y-47597190D01*
X73450952Y-47693952D01*
X73571904Y-47742333D01*
X73813809Y-47790714D01*
X73995238Y-47790714D01*
X74237142Y-47742333D01*
X74358095Y-47693952D01*
X74479047Y-47597190D01*
X74539523Y-47452047D01*
X74539523Y-47210142D01*
X74539523Y-48226142D02*
X73269523Y-48226142D01*
X73753333Y-48226142D02*
X73692857Y-48322904D01*
X73692857Y-48516428D01*
X73753333Y-48613190D01*
X73813809Y-48661571D01*
X73934761Y-48709952D01*
X74297619Y-48709952D01*
X74418571Y-48661571D01*
X74479047Y-48613190D01*
X74539523Y-48516428D01*
X74539523Y-48322904D01*
X74479047Y-48226142D01*
%TO.C,RC1*%
X77939523Y-45976428D02*
X77939523Y-45492619D01*
X76669523Y-45492619D01*
X77274285Y-46315095D02*
X77274285Y-46653761D01*
X77939523Y-46798904D02*
X77939523Y-46315095D01*
X76669523Y-46315095D01*
X76669523Y-46798904D01*
X77939523Y-47234333D02*
X76669523Y-47234333D01*
X76669523Y-47476238D01*
X76730000Y-47621380D01*
X76850952Y-47718142D01*
X76971904Y-47766523D01*
X77213809Y-47814904D01*
X77395238Y-47814904D01*
X77637142Y-47766523D01*
X77758095Y-47718142D01*
X77879047Y-47621380D01*
X77939523Y-47476238D01*
X77939523Y-47234333D01*
X77879047Y-48685761D02*
X77939523Y-48589000D01*
X77939523Y-48395476D01*
X77879047Y-48298714D01*
X77818571Y-48250333D01*
X77697619Y-48201952D01*
X77334761Y-48201952D01*
X77213809Y-48250333D01*
X77153333Y-48298714D01*
X77092857Y-48395476D01*
X77092857Y-48589000D01*
X77153333Y-48685761D01*
%TO.C,SW0:7*%
D12*
X39654685Y-145281778D02*
X39455153Y-145454895D01*
X39071483Y-145633803D01*
X38887345Y-145639595D01*
X38779940Y-145609604D01*
X38641866Y-145513842D01*
X38580526Y-145382298D01*
X38595920Y-145214972D01*
X38641984Y-145113418D01*
X38764783Y-144976083D01*
X39041049Y-144767184D01*
X39163847Y-144629849D01*
X39209911Y-144528295D01*
X39225305Y-144360969D01*
X39163965Y-144229425D01*
X39025891Y-144133662D01*
X38918487Y-144103672D01*
X38734349Y-144109463D01*
X38350678Y-144288372D01*
X38151146Y-144461489D01*
X37583338Y-144646189D02*
X37843738Y-146206310D01*
X37076751Y-145362856D01*
X37229865Y-146492564D01*
X36202125Y-145290259D01*
X35281316Y-145719639D02*
X35127848Y-145791202D01*
X35005050Y-145928538D01*
X34958986Y-146030091D01*
X34943592Y-146197417D01*
X34989538Y-146496287D01*
X35142888Y-146825147D01*
X35342302Y-147052454D01*
X35480376Y-147148216D01*
X35587780Y-147178207D01*
X35771918Y-147172415D01*
X35925386Y-147100852D01*
X36048184Y-146963517D01*
X36094248Y-146861963D01*
X36109642Y-146694637D01*
X36063696Y-146395767D01*
X35910346Y-146066907D01*
X35710932Y-145839600D01*
X35572858Y-145743838D01*
X35465454Y-145713848D01*
X35281316Y-145719639D01*
X34636301Y-147541815D02*
X34590237Y-147643369D01*
X34697641Y-147673359D01*
X34743705Y-147571805D01*
X34636301Y-147541815D01*
X34697641Y-147673359D01*
X34298931Y-146818322D02*
X34252867Y-146919876D01*
X34360271Y-146949866D01*
X34406335Y-146848313D01*
X34298931Y-146818322D01*
X34360271Y-146949866D01*
X32595624Y-146971998D02*
X32902560Y-146828871D01*
X33086698Y-146823080D01*
X33194102Y-146853070D01*
X33439581Y-146978823D01*
X33638995Y-147206129D01*
X33884355Y-147732306D01*
X33868961Y-147899632D01*
X33822897Y-148001185D01*
X33700099Y-148138521D01*
X33393162Y-148281647D01*
X33209024Y-148287439D01*
X33101620Y-148257448D01*
X32963546Y-148161686D01*
X32810196Y-147832826D01*
X32825590Y-147665500D01*
X32871654Y-147563946D01*
X32994452Y-147426611D01*
X33301388Y-147283484D01*
X33485527Y-147277693D01*
X33592931Y-147307683D01*
X33731005Y-147403446D01*
%TO.C,SW0:9*%
X47703945Y-162546158D02*
X47504413Y-162719275D01*
X47120743Y-162898183D01*
X46936605Y-162903975D01*
X46829200Y-162873984D01*
X46691126Y-162778222D01*
X46629786Y-162646678D01*
X46645180Y-162479352D01*
X46691244Y-162377798D01*
X46814043Y-162240463D01*
X47090309Y-162031564D01*
X47213107Y-161894229D01*
X47259171Y-161792675D01*
X47274565Y-161625349D01*
X47213225Y-161493805D01*
X47075151Y-161398042D01*
X46967747Y-161368052D01*
X46783609Y-161373843D01*
X46399938Y-161552752D01*
X46200406Y-161725869D01*
X45632598Y-161910569D02*
X45892998Y-163470690D01*
X45126011Y-162627236D01*
X45279125Y-163756944D01*
X44251385Y-162554639D01*
X43330576Y-162984019D02*
X43177108Y-163055582D01*
X43054310Y-163192918D01*
X43008246Y-163294471D01*
X42992852Y-163461797D01*
X43038798Y-163760667D01*
X43192148Y-164089527D01*
X43391562Y-164316834D01*
X43529636Y-164412596D01*
X43637040Y-164442587D01*
X43821178Y-164436795D01*
X43974646Y-164365232D01*
X44097444Y-164227897D01*
X44143508Y-164126343D01*
X44158902Y-163959017D01*
X44112956Y-163660147D01*
X43959606Y-163331287D01*
X43760192Y-163103980D01*
X43622118Y-163008218D01*
X43514714Y-162978228D01*
X43330576Y-162984019D01*
X42685561Y-164806195D02*
X42639497Y-164907749D01*
X42746901Y-164937739D01*
X42792965Y-164836185D01*
X42685561Y-164806195D01*
X42746901Y-164937739D01*
X42348191Y-164082702D02*
X42302127Y-164184256D01*
X42409531Y-164214246D01*
X42455595Y-164112693D01*
X42348191Y-164082702D01*
X42409531Y-164214246D01*
X40859574Y-164696782D02*
X41288954Y-165617591D01*
X40997884Y-163991697D02*
X41841605Y-164799370D01*
X40844062Y-165264532D01*
%TO.C,SW0:10*%
X85275037Y-155230253D02*
X85101920Y-155030721D01*
X84923012Y-154647051D01*
X84917220Y-154462913D01*
X84947211Y-154355508D01*
X85042973Y-154217434D01*
X85174517Y-154156094D01*
X85341843Y-154171488D01*
X85443397Y-154217552D01*
X85580732Y-154340351D01*
X85789631Y-154616617D01*
X85926966Y-154739415D01*
X86028520Y-154785479D01*
X86195846Y-154800873D01*
X86327390Y-154739533D01*
X86423153Y-154601459D01*
X86453143Y-154494055D01*
X86447352Y-154309917D01*
X86268443Y-153926246D01*
X86095326Y-153726714D01*
X85910626Y-153158906D02*
X84350505Y-153419306D01*
X85193959Y-152652319D01*
X84064251Y-152805433D01*
X85266556Y-151777693D01*
X84837176Y-150856884D02*
X84765613Y-150703416D01*
X84628277Y-150580618D01*
X84526724Y-150534554D01*
X84359398Y-150519160D01*
X84060528Y-150565106D01*
X83731668Y-150718456D01*
X83504361Y-150917870D01*
X83408599Y-151055944D01*
X83378608Y-151163348D01*
X83384400Y-151347486D01*
X83455963Y-151500954D01*
X83593298Y-151623752D01*
X83694852Y-151669816D01*
X83862178Y-151685210D01*
X84161048Y-151639264D01*
X84489908Y-151485914D01*
X84717215Y-151286500D01*
X84812977Y-151148426D01*
X84842967Y-151041022D01*
X84837176Y-150856884D01*
X83015000Y-150211869D02*
X82913446Y-150165805D01*
X82883456Y-150273209D01*
X82985010Y-150319273D01*
X83015000Y-150211869D01*
X82883456Y-150273209D01*
X83738493Y-149874499D02*
X83636939Y-149828435D01*
X83606949Y-149935839D01*
X83708502Y-149981903D01*
X83738493Y-149874499D01*
X83606949Y-149935839D01*
X83978416Y-149015267D02*
X83513254Y-148017724D01*
X83237549Y-148800222D01*
X83130204Y-148570020D01*
X82992869Y-148447222D01*
X82891315Y-148401158D01*
X82723989Y-148385764D01*
X82395129Y-148539114D01*
X82299367Y-148677188D01*
X82269376Y-148784592D01*
X82275168Y-148968730D01*
X82489858Y-149429135D01*
X82627193Y-149551933D01*
X82728747Y-149597997D01*
%TO.C,SW0:11*%
X68010657Y-163282053D02*
X67837540Y-163082521D01*
X67658632Y-162698851D01*
X67652840Y-162514713D01*
X67682831Y-162407308D01*
X67778593Y-162269234D01*
X67910137Y-162207894D01*
X68077463Y-162223288D01*
X68179017Y-162269352D01*
X68316352Y-162392151D01*
X68525251Y-162668417D01*
X68662586Y-162791215D01*
X68764140Y-162837279D01*
X68931466Y-162852673D01*
X69063010Y-162791333D01*
X69158773Y-162653259D01*
X69188763Y-162545855D01*
X69182972Y-162361717D01*
X69004063Y-161978046D01*
X68830946Y-161778514D01*
X68646246Y-161210706D02*
X67086125Y-161471106D01*
X67929579Y-160704119D01*
X66799871Y-160857233D01*
X68002176Y-159829493D01*
X67572796Y-158908684D02*
X67501233Y-158755216D01*
X67363897Y-158632418D01*
X67262344Y-158586354D01*
X67095018Y-158570960D01*
X66796148Y-158616906D01*
X66467288Y-158770256D01*
X66239981Y-158969670D01*
X66144219Y-159107744D01*
X66114228Y-159215148D01*
X66120020Y-159399286D01*
X66191583Y-159552754D01*
X66328918Y-159675552D01*
X66430472Y-159721616D01*
X66597798Y-159737010D01*
X66896668Y-159691064D01*
X67225528Y-159537714D01*
X67452835Y-159338300D01*
X67548597Y-159200226D01*
X67578587Y-159092822D01*
X67572796Y-158908684D01*
X65750620Y-158263669D02*
X65649066Y-158217605D01*
X65619076Y-158325009D01*
X65720630Y-158371073D01*
X65750620Y-158263669D01*
X65619076Y-158325009D01*
X66474113Y-157926299D02*
X66372559Y-157880235D01*
X66342569Y-157987639D01*
X66444122Y-158033703D01*
X66474113Y-157926299D01*
X66342569Y-157987639D01*
X66546710Y-157051673D02*
X66576700Y-156944268D01*
X66570909Y-156760130D01*
X66392001Y-156376460D01*
X66254665Y-156253662D01*
X66153111Y-156207598D01*
X65985786Y-156192204D01*
X65854242Y-156253544D01*
X65692707Y-156422288D01*
X65332823Y-157711137D01*
X64867661Y-156713594D01*
%TO.C,SW0:12*%
X55755745Y-179813078D02*
X55556213Y-179986195D01*
X55172543Y-180165103D01*
X54988405Y-180170895D01*
X54881000Y-180140904D01*
X54742926Y-180045142D01*
X54681586Y-179913598D01*
X54696980Y-179746272D01*
X54743044Y-179644718D01*
X54865843Y-179507383D01*
X55142109Y-179298484D01*
X55264907Y-179161149D01*
X55310971Y-179059595D01*
X55326365Y-178892269D01*
X55265025Y-178760725D01*
X55126951Y-178664962D01*
X55019547Y-178634972D01*
X54835409Y-178640763D01*
X54451738Y-178819672D01*
X54252206Y-178992789D01*
X53684398Y-179177489D02*
X53944798Y-180737610D01*
X53177811Y-179894156D01*
X53330925Y-181023864D01*
X52303185Y-179821559D01*
X51382376Y-180250939D02*
X51228908Y-180322502D01*
X51106110Y-180459838D01*
X51060046Y-180561391D01*
X51044652Y-180728717D01*
X51090598Y-181027587D01*
X51243948Y-181356447D01*
X51443362Y-181583754D01*
X51581436Y-181679516D01*
X51688840Y-181709507D01*
X51872978Y-181703715D01*
X52026446Y-181632152D01*
X52149244Y-181494817D01*
X52195308Y-181393263D01*
X52210702Y-181225937D01*
X52164756Y-180927067D01*
X52011406Y-180598207D01*
X51811992Y-180370900D01*
X51673918Y-180275138D01*
X51566514Y-180245148D01*
X51382376Y-180250939D01*
X50737361Y-182073115D02*
X50691297Y-182174669D01*
X50798701Y-182204659D01*
X50844765Y-182103105D01*
X50737361Y-182073115D01*
X50798701Y-182204659D01*
X50399991Y-181349622D02*
X50353927Y-181451176D01*
X50461331Y-181481166D01*
X50507395Y-181379613D01*
X50399991Y-181349622D01*
X50461331Y-181481166D01*
X49187286Y-182956074D02*
X50108095Y-182526694D01*
X49647690Y-182741384D02*
X49003620Y-181360171D01*
X49249098Y-181485924D01*
X49463906Y-181545905D01*
X49648045Y-181540113D01*
%TO.C,SW1:9*%
X114130666Y-143946517D02*
X113876666Y-144019088D01*
X113453333Y-144019088D01*
X113284000Y-143946517D01*
X113199333Y-143873945D01*
X113114666Y-143728802D01*
X113114666Y-143583660D01*
X113199333Y-143438517D01*
X113284000Y-143365945D01*
X113453333Y-143293374D01*
X113792000Y-143220802D01*
X113961333Y-143148231D01*
X114046000Y-143075660D01*
X114130666Y-142930517D01*
X114130666Y-142785374D01*
X114046000Y-142640231D01*
X113961333Y-142567660D01*
X113792000Y-142495088D01*
X113368666Y-142495088D01*
X113114666Y-142567660D01*
X112522000Y-142495088D02*
X112098666Y-144019088D01*
X111760000Y-142930517D01*
X111421333Y-144019088D01*
X110998000Y-142495088D01*
X109389333Y-144019088D02*
X110405333Y-144019088D01*
X109897333Y-144019088D02*
X109897333Y-142495088D01*
X110066666Y-142712802D01*
X110236000Y-142857945D01*
X110405333Y-142930517D01*
X108627333Y-143873945D02*
X108542666Y-143946517D01*
X108627333Y-144019088D01*
X108712000Y-143946517D01*
X108627333Y-143873945D01*
X108627333Y-144019088D01*
X108627333Y-143075660D02*
X108542666Y-143148231D01*
X108627333Y-143220802D01*
X108712000Y-143148231D01*
X108627333Y-143075660D01*
X108627333Y-143220802D01*
X107018666Y-143003088D02*
X107018666Y-144019088D01*
X107442000Y-142422517D02*
X107865333Y-143511088D01*
X106764666Y-143511088D01*
%TO.C,SW1:10*%
X133180666Y-142348857D02*
X132926666Y-142421428D01*
X132503333Y-142421428D01*
X132334000Y-142348857D01*
X132249333Y-142276285D01*
X132164666Y-142131142D01*
X132164666Y-141986000D01*
X132249333Y-141840857D01*
X132334000Y-141768285D01*
X132503333Y-141695714D01*
X132842000Y-141623142D01*
X133011333Y-141550571D01*
X133096000Y-141478000D01*
X133180666Y-141332857D01*
X133180666Y-141187714D01*
X133096000Y-141042571D01*
X133011333Y-140970000D01*
X132842000Y-140897428D01*
X132418666Y-140897428D01*
X132164666Y-140970000D01*
X131572000Y-140897428D02*
X131148666Y-142421428D01*
X130810000Y-141332857D01*
X130471333Y-142421428D01*
X130048000Y-140897428D01*
X128439333Y-142421428D02*
X129455333Y-142421428D01*
X128947333Y-142421428D02*
X128947333Y-140897428D01*
X129116666Y-141115142D01*
X129286000Y-141260285D01*
X129455333Y-141332857D01*
X127677333Y-142276285D02*
X127592666Y-142348857D01*
X127677333Y-142421428D01*
X127762000Y-142348857D01*
X127677333Y-142276285D01*
X127677333Y-142421428D01*
X127677333Y-141478000D02*
X127592666Y-141550571D01*
X127677333Y-141623142D01*
X127762000Y-141550571D01*
X127677333Y-141478000D01*
X127677333Y-141623142D01*
X127000000Y-140897428D02*
X125899333Y-140897428D01*
X126492000Y-141478000D01*
X126238000Y-141478000D01*
X126068666Y-141550571D01*
X125984000Y-141623142D01*
X125899333Y-141768285D01*
X125899333Y-142131142D01*
X125984000Y-142276285D01*
X126068666Y-142348857D01*
X126238000Y-142421428D01*
X126746000Y-142421428D01*
X126915333Y-142348857D01*
X127000000Y-142276285D01*
%TO.C,SW1:11*%
X152230666Y-143946517D02*
X151976666Y-144019088D01*
X151553333Y-144019088D01*
X151384000Y-143946517D01*
X151299333Y-143873945D01*
X151214666Y-143728802D01*
X151214666Y-143583660D01*
X151299333Y-143438517D01*
X151384000Y-143365945D01*
X151553333Y-143293374D01*
X151892000Y-143220802D01*
X152061333Y-143148231D01*
X152146000Y-143075660D01*
X152230666Y-142930517D01*
X152230666Y-142785374D01*
X152146000Y-142640231D01*
X152061333Y-142567660D01*
X151892000Y-142495088D01*
X151468666Y-142495088D01*
X151214666Y-142567660D01*
X150622000Y-142495088D02*
X150198666Y-144019088D01*
X149860000Y-142930517D01*
X149521333Y-144019088D01*
X149098000Y-142495088D01*
X147489333Y-144019088D02*
X148505333Y-144019088D01*
X147997333Y-144019088D02*
X147997333Y-142495088D01*
X148166666Y-142712802D01*
X148336000Y-142857945D01*
X148505333Y-142930517D01*
X146727333Y-143873945D02*
X146642666Y-143946517D01*
X146727333Y-144019088D01*
X146812000Y-143946517D01*
X146727333Y-143873945D01*
X146727333Y-144019088D01*
X146727333Y-143075660D02*
X146642666Y-143148231D01*
X146727333Y-143220802D01*
X146812000Y-143148231D01*
X146727333Y-143075660D01*
X146727333Y-143220802D01*
X145965333Y-142640231D02*
X145880666Y-142567660D01*
X145711333Y-142495088D01*
X145288000Y-142495088D01*
X145118666Y-142567660D01*
X145034000Y-142640231D01*
X144949333Y-142785374D01*
X144949333Y-142930517D01*
X145034000Y-143148231D01*
X146050000Y-144019088D01*
X144949333Y-144019088D01*
%TO.C,SW1:12*%
X171280666Y-147121517D02*
X171026666Y-147194088D01*
X170603333Y-147194088D01*
X170434000Y-147121517D01*
X170349333Y-147048945D01*
X170264666Y-146903802D01*
X170264666Y-146758660D01*
X170349333Y-146613517D01*
X170434000Y-146540945D01*
X170603333Y-146468374D01*
X170942000Y-146395802D01*
X171111333Y-146323231D01*
X171196000Y-146250660D01*
X171280666Y-146105517D01*
X171280666Y-145960374D01*
X171196000Y-145815231D01*
X171111333Y-145742660D01*
X170942000Y-145670088D01*
X170518666Y-145670088D01*
X170264666Y-145742660D01*
X169672000Y-145670088D02*
X169248666Y-147194088D01*
X168910000Y-146105517D01*
X168571333Y-147194088D01*
X168148000Y-145670088D01*
X166539333Y-147194088D02*
X167555333Y-147194088D01*
X167047333Y-147194088D02*
X167047333Y-145670088D01*
X167216666Y-145887802D01*
X167386000Y-146032945D01*
X167555333Y-146105517D01*
X165777333Y-147048945D02*
X165692666Y-147121517D01*
X165777333Y-147194088D01*
X165862000Y-147121517D01*
X165777333Y-147048945D01*
X165777333Y-147194088D01*
X165777333Y-146250660D02*
X165692666Y-146323231D01*
X165777333Y-146395802D01*
X165862000Y-146323231D01*
X165777333Y-146250660D01*
X165777333Y-146395802D01*
X163999333Y-147194088D02*
X165015333Y-147194088D01*
X164507333Y-147194088D02*
X164507333Y-145670088D01*
X164676666Y-145887802D01*
X164846000Y-146032945D01*
X165015333Y-146105517D01*
%TO.C,SW1:13*%
X190330666Y-147121517D02*
X190076666Y-147194088D01*
X189653333Y-147194088D01*
X189484000Y-147121517D01*
X189399333Y-147048945D01*
X189314666Y-146903802D01*
X189314666Y-146758660D01*
X189399333Y-146613517D01*
X189484000Y-146540945D01*
X189653333Y-146468374D01*
X189992000Y-146395802D01*
X190161333Y-146323231D01*
X190246000Y-146250660D01*
X190330666Y-146105517D01*
X190330666Y-145960374D01*
X190246000Y-145815231D01*
X190161333Y-145742660D01*
X189992000Y-145670088D01*
X189568666Y-145670088D01*
X189314666Y-145742660D01*
X188722000Y-145670088D02*
X188298666Y-147194088D01*
X187960000Y-146105517D01*
X187621333Y-147194088D01*
X187198000Y-145670088D01*
X185589333Y-147194088D02*
X186605333Y-147194088D01*
X186097333Y-147194088D02*
X186097333Y-145670088D01*
X186266666Y-145887802D01*
X186436000Y-146032945D01*
X186605333Y-146105517D01*
X184827333Y-147048945D02*
X184742666Y-147121517D01*
X184827333Y-147194088D01*
X184912000Y-147121517D01*
X184827333Y-147048945D01*
X184827333Y-147194088D01*
X184827333Y-146250660D02*
X184742666Y-146323231D01*
X184827333Y-146395802D01*
X184912000Y-146323231D01*
X184827333Y-146250660D01*
X184827333Y-146395802D01*
X183642000Y-145670088D02*
X183472666Y-145670088D01*
X183303333Y-145742660D01*
X183218666Y-145815231D01*
X183134000Y-145960374D01*
X183049333Y-146250660D01*
X183049333Y-146613517D01*
X183134000Y-146903802D01*
X183218666Y-147048945D01*
X183303333Y-147121517D01*
X183472666Y-147194088D01*
X183642000Y-147194088D01*
X183811333Y-147121517D01*
X183896000Y-147048945D01*
X183980666Y-146903802D01*
X184065333Y-146613517D01*
X184065333Y-146250660D01*
X183980666Y-145960374D01*
X183896000Y-145815231D01*
X183811333Y-145742660D01*
X183642000Y-145670088D01*
%TO.C,SW2:7*%
X76308857Y-113844493D02*
X76381428Y-114098493D01*
X76381428Y-114521826D01*
X76308857Y-114691160D01*
X76236285Y-114775826D01*
X76091142Y-114860493D01*
X75946000Y-114860493D01*
X75800857Y-114775826D01*
X75728285Y-114691160D01*
X75655714Y-114521826D01*
X75583142Y-114183160D01*
X75510571Y-114013826D01*
X75438000Y-113929160D01*
X75292857Y-113844493D01*
X75147714Y-113844493D01*
X75002571Y-113929160D01*
X74930000Y-114013826D01*
X74857428Y-114183160D01*
X74857428Y-114606493D01*
X74930000Y-114860493D01*
X74857428Y-115453160D02*
X76381428Y-115876493D01*
X75292857Y-116215160D01*
X76381428Y-116553826D01*
X74857428Y-116977160D01*
X75002571Y-117569826D02*
X74930000Y-117654493D01*
X74857428Y-117823826D01*
X74857428Y-118247160D01*
X74930000Y-118416493D01*
X75002571Y-118501160D01*
X75147714Y-118585826D01*
X75292857Y-118585826D01*
X75510571Y-118501160D01*
X76381428Y-117485160D01*
X76381428Y-118585826D01*
X76236285Y-119347826D02*
X76308857Y-119432493D01*
X76381428Y-119347826D01*
X76308857Y-119263160D01*
X76236285Y-119347826D01*
X76381428Y-119347826D01*
X75438000Y-119347826D02*
X75510571Y-119432493D01*
X75583142Y-119347826D01*
X75510571Y-119263160D01*
X75438000Y-119347826D01*
X75583142Y-119347826D01*
X74857428Y-120956493D02*
X74857428Y-120617826D01*
X74930000Y-120448493D01*
X75002571Y-120363826D01*
X75220285Y-120194493D01*
X75510571Y-120109826D01*
X76091142Y-120109826D01*
X76236285Y-120194493D01*
X76308857Y-120279160D01*
X76381428Y-120448493D01*
X76381428Y-120787160D01*
X76308857Y-120956493D01*
X76236285Y-121041160D01*
X76091142Y-121125826D01*
X75728285Y-121125826D01*
X75583142Y-121041160D01*
X75510571Y-120956493D01*
X75438000Y-120787160D01*
X75438000Y-120448493D01*
X75510571Y-120279160D01*
X75583142Y-120194493D01*
X75728285Y-120109826D01*
%TO.C,SW2:8*%
X95080666Y-126166517D02*
X94826666Y-126239088D01*
X94403333Y-126239088D01*
X94234000Y-126166517D01*
X94149333Y-126093945D01*
X94064666Y-125948802D01*
X94064666Y-125803660D01*
X94149333Y-125658517D01*
X94234000Y-125585945D01*
X94403333Y-125513374D01*
X94742000Y-125440802D01*
X94911333Y-125368231D01*
X94996000Y-125295660D01*
X95080666Y-125150517D01*
X95080666Y-125005374D01*
X94996000Y-124860231D01*
X94911333Y-124787660D01*
X94742000Y-124715088D01*
X94318666Y-124715088D01*
X94064666Y-124787660D01*
X93472000Y-124715088D02*
X93048666Y-126239088D01*
X92710000Y-125150517D01*
X92371333Y-126239088D01*
X91948000Y-124715088D01*
X91355333Y-124860231D02*
X91270666Y-124787660D01*
X91101333Y-124715088D01*
X90678000Y-124715088D01*
X90508666Y-124787660D01*
X90424000Y-124860231D01*
X90339333Y-125005374D01*
X90339333Y-125150517D01*
X90424000Y-125368231D01*
X91440000Y-126239088D01*
X90339333Y-126239088D01*
X89577333Y-126093945D02*
X89492666Y-126166517D01*
X89577333Y-126239088D01*
X89662000Y-126166517D01*
X89577333Y-126093945D01*
X89577333Y-126239088D01*
X89577333Y-125295660D02*
X89492666Y-125368231D01*
X89577333Y-125440802D01*
X89662000Y-125368231D01*
X89577333Y-125295660D01*
X89577333Y-125440802D01*
X87884000Y-124715088D02*
X88730666Y-124715088D01*
X88815333Y-125440802D01*
X88730666Y-125368231D01*
X88561333Y-125295660D01*
X88138000Y-125295660D01*
X87968666Y-125368231D01*
X87884000Y-125440802D01*
X87799333Y-125585945D01*
X87799333Y-125948802D01*
X87884000Y-126093945D01*
X87968666Y-126166517D01*
X88138000Y-126239088D01*
X88561333Y-126239088D01*
X88730666Y-126166517D01*
X88815333Y-126093945D01*
%TO.C,SW2:9*%
X114130666Y-124896517D02*
X113876666Y-124969088D01*
X113453333Y-124969088D01*
X113284000Y-124896517D01*
X113199333Y-124823945D01*
X113114666Y-124678802D01*
X113114666Y-124533660D01*
X113199333Y-124388517D01*
X113284000Y-124315945D01*
X113453333Y-124243374D01*
X113792000Y-124170802D01*
X113961333Y-124098231D01*
X114046000Y-124025660D01*
X114130666Y-123880517D01*
X114130666Y-123735374D01*
X114046000Y-123590231D01*
X113961333Y-123517660D01*
X113792000Y-123445088D01*
X113368666Y-123445088D01*
X113114666Y-123517660D01*
X112522000Y-123445088D02*
X112098666Y-124969088D01*
X111760000Y-123880517D01*
X111421333Y-124969088D01*
X110998000Y-123445088D01*
X110405333Y-123590231D02*
X110320666Y-123517660D01*
X110151333Y-123445088D01*
X109728000Y-123445088D01*
X109558666Y-123517660D01*
X109474000Y-123590231D01*
X109389333Y-123735374D01*
X109389333Y-123880517D01*
X109474000Y-124098231D01*
X110490000Y-124969088D01*
X109389333Y-124969088D01*
X108627333Y-124823945D02*
X108542666Y-124896517D01*
X108627333Y-124969088D01*
X108712000Y-124896517D01*
X108627333Y-124823945D01*
X108627333Y-124969088D01*
X108627333Y-124025660D02*
X108542666Y-124098231D01*
X108627333Y-124170802D01*
X108712000Y-124098231D01*
X108627333Y-124025660D01*
X108627333Y-124170802D01*
X107018666Y-123953088D02*
X107018666Y-124969088D01*
X107442000Y-123372517D02*
X107865333Y-124461088D01*
X106764666Y-124461088D01*
%TO.C,SW2:10*%
X133180666Y-123298857D02*
X132926666Y-123371428D01*
X132503333Y-123371428D01*
X132334000Y-123298857D01*
X132249333Y-123226285D01*
X132164666Y-123081142D01*
X132164666Y-122936000D01*
X132249333Y-122790857D01*
X132334000Y-122718285D01*
X132503333Y-122645714D01*
X132842000Y-122573142D01*
X133011333Y-122500571D01*
X133096000Y-122428000D01*
X133180666Y-122282857D01*
X133180666Y-122137714D01*
X133096000Y-121992571D01*
X133011333Y-121920000D01*
X132842000Y-121847428D01*
X132418666Y-121847428D01*
X132164666Y-121920000D01*
X131572000Y-121847428D02*
X131148666Y-123371428D01*
X130810000Y-122282857D01*
X130471333Y-123371428D01*
X130048000Y-121847428D01*
X129455333Y-121992571D02*
X129370666Y-121920000D01*
X129201333Y-121847428D01*
X128778000Y-121847428D01*
X128608666Y-121920000D01*
X128524000Y-121992571D01*
X128439333Y-122137714D01*
X128439333Y-122282857D01*
X128524000Y-122500571D01*
X129540000Y-123371428D01*
X128439333Y-123371428D01*
X127677333Y-123226285D02*
X127592666Y-123298857D01*
X127677333Y-123371428D01*
X127762000Y-123298857D01*
X127677333Y-123226285D01*
X127677333Y-123371428D01*
X127677333Y-122428000D02*
X127592666Y-122500571D01*
X127677333Y-122573142D01*
X127762000Y-122500571D01*
X127677333Y-122428000D01*
X127677333Y-122573142D01*
X127000000Y-121847428D02*
X125899333Y-121847428D01*
X126492000Y-122428000D01*
X126238000Y-122428000D01*
X126068666Y-122500571D01*
X125984000Y-122573142D01*
X125899333Y-122718285D01*
X125899333Y-123081142D01*
X125984000Y-123226285D01*
X126068666Y-123298857D01*
X126238000Y-123371428D01*
X126746000Y-123371428D01*
X126915333Y-123298857D01*
X127000000Y-123226285D01*
%TO.C,SW2:11*%
X152230666Y-124896517D02*
X151976666Y-124969088D01*
X151553333Y-124969088D01*
X151384000Y-124896517D01*
X151299333Y-124823945D01*
X151214666Y-124678802D01*
X151214666Y-124533660D01*
X151299333Y-124388517D01*
X151384000Y-124315945D01*
X151553333Y-124243374D01*
X151892000Y-124170802D01*
X152061333Y-124098231D01*
X152146000Y-124025660D01*
X152230666Y-123880517D01*
X152230666Y-123735374D01*
X152146000Y-123590231D01*
X152061333Y-123517660D01*
X151892000Y-123445088D01*
X151468666Y-123445088D01*
X151214666Y-123517660D01*
X150622000Y-123445088D02*
X150198666Y-124969088D01*
X149860000Y-123880517D01*
X149521333Y-124969088D01*
X149098000Y-123445088D01*
X148505333Y-123590231D02*
X148420666Y-123517660D01*
X148251333Y-123445088D01*
X147828000Y-123445088D01*
X147658666Y-123517660D01*
X147574000Y-123590231D01*
X147489333Y-123735374D01*
X147489333Y-123880517D01*
X147574000Y-124098231D01*
X148590000Y-124969088D01*
X147489333Y-124969088D01*
X146727333Y-124823945D02*
X146642666Y-124896517D01*
X146727333Y-124969088D01*
X146812000Y-124896517D01*
X146727333Y-124823945D01*
X146727333Y-124969088D01*
X146727333Y-124025660D02*
X146642666Y-124098231D01*
X146727333Y-124170802D01*
X146812000Y-124098231D01*
X146727333Y-124025660D01*
X146727333Y-124170802D01*
X145965333Y-123590231D02*
X145880666Y-123517660D01*
X145711333Y-123445088D01*
X145288000Y-123445088D01*
X145118666Y-123517660D01*
X145034000Y-123590231D01*
X144949333Y-123735374D01*
X144949333Y-123880517D01*
X145034000Y-124098231D01*
X146050000Y-124969088D01*
X144949333Y-124969088D01*
%TO.C,SW2:12*%
X171280666Y-128071517D02*
X171026666Y-128144088D01*
X170603333Y-128144088D01*
X170434000Y-128071517D01*
X170349333Y-127998945D01*
X170264666Y-127853802D01*
X170264666Y-127708660D01*
X170349333Y-127563517D01*
X170434000Y-127490945D01*
X170603333Y-127418374D01*
X170942000Y-127345802D01*
X171111333Y-127273231D01*
X171196000Y-127200660D01*
X171280666Y-127055517D01*
X171280666Y-126910374D01*
X171196000Y-126765231D01*
X171111333Y-126692660D01*
X170942000Y-126620088D01*
X170518666Y-126620088D01*
X170264666Y-126692660D01*
X169672000Y-126620088D02*
X169248666Y-128144088D01*
X168910000Y-127055517D01*
X168571333Y-128144088D01*
X168148000Y-126620088D01*
X167555333Y-126765231D02*
X167470666Y-126692660D01*
X167301333Y-126620088D01*
X166878000Y-126620088D01*
X166708666Y-126692660D01*
X166624000Y-126765231D01*
X166539333Y-126910374D01*
X166539333Y-127055517D01*
X166624000Y-127273231D01*
X167640000Y-128144088D01*
X166539333Y-128144088D01*
X165777333Y-127998945D02*
X165692666Y-128071517D01*
X165777333Y-128144088D01*
X165862000Y-128071517D01*
X165777333Y-127998945D01*
X165777333Y-128144088D01*
X165777333Y-127200660D02*
X165692666Y-127273231D01*
X165777333Y-127345802D01*
X165862000Y-127273231D01*
X165777333Y-127200660D01*
X165777333Y-127345802D01*
X163999333Y-128144088D02*
X165015333Y-128144088D01*
X164507333Y-128144088D02*
X164507333Y-126620088D01*
X164676666Y-126837802D01*
X164846000Y-126982945D01*
X165015333Y-127055517D01*
%TO.C,SW3:8*%
X95080666Y-107116517D02*
X94826666Y-107189088D01*
X94403333Y-107189088D01*
X94234000Y-107116517D01*
X94149333Y-107043945D01*
X94064666Y-106898802D01*
X94064666Y-106753660D01*
X94149333Y-106608517D01*
X94234000Y-106535945D01*
X94403333Y-106463374D01*
X94742000Y-106390802D01*
X94911333Y-106318231D01*
X94996000Y-106245660D01*
X95080666Y-106100517D01*
X95080666Y-105955374D01*
X94996000Y-105810231D01*
X94911333Y-105737660D01*
X94742000Y-105665088D01*
X94318666Y-105665088D01*
X94064666Y-105737660D01*
X93472000Y-105665088D02*
X93048666Y-107189088D01*
X92710000Y-106100517D01*
X92371333Y-107189088D01*
X91948000Y-105665088D01*
X91440000Y-105665088D02*
X90339333Y-105665088D01*
X90932000Y-106245660D01*
X90678000Y-106245660D01*
X90508666Y-106318231D01*
X90424000Y-106390802D01*
X90339333Y-106535945D01*
X90339333Y-106898802D01*
X90424000Y-107043945D01*
X90508666Y-107116517D01*
X90678000Y-107189088D01*
X91186000Y-107189088D01*
X91355333Y-107116517D01*
X91440000Y-107043945D01*
X89577333Y-107043945D02*
X89492666Y-107116517D01*
X89577333Y-107189088D01*
X89662000Y-107116517D01*
X89577333Y-107043945D01*
X89577333Y-107189088D01*
X89577333Y-106245660D02*
X89492666Y-106318231D01*
X89577333Y-106390802D01*
X89662000Y-106318231D01*
X89577333Y-106245660D01*
X89577333Y-106390802D01*
X87884000Y-105665088D02*
X88730666Y-105665088D01*
X88815333Y-106390802D01*
X88730666Y-106318231D01*
X88561333Y-106245660D01*
X88138000Y-106245660D01*
X87968666Y-106318231D01*
X87884000Y-106390802D01*
X87799333Y-106535945D01*
X87799333Y-106898802D01*
X87884000Y-107043945D01*
X87968666Y-107116517D01*
X88138000Y-107189088D01*
X88561333Y-107189088D01*
X88730666Y-107116517D01*
X88815333Y-107043945D01*
%TO.C,SW3:9*%
X114130666Y-105846517D02*
X113876666Y-105919088D01*
X113453333Y-105919088D01*
X113284000Y-105846517D01*
X113199333Y-105773945D01*
X113114666Y-105628802D01*
X113114666Y-105483660D01*
X113199333Y-105338517D01*
X113284000Y-105265945D01*
X113453333Y-105193374D01*
X113792000Y-105120802D01*
X113961333Y-105048231D01*
X114046000Y-104975660D01*
X114130666Y-104830517D01*
X114130666Y-104685374D01*
X114046000Y-104540231D01*
X113961333Y-104467660D01*
X113792000Y-104395088D01*
X113368666Y-104395088D01*
X113114666Y-104467660D01*
X112522000Y-104395088D02*
X112098666Y-105919088D01*
X111760000Y-104830517D01*
X111421333Y-105919088D01*
X110998000Y-104395088D01*
X110490000Y-104395088D02*
X109389333Y-104395088D01*
X109982000Y-104975660D01*
X109728000Y-104975660D01*
X109558666Y-105048231D01*
X109474000Y-105120802D01*
X109389333Y-105265945D01*
X109389333Y-105628802D01*
X109474000Y-105773945D01*
X109558666Y-105846517D01*
X109728000Y-105919088D01*
X110236000Y-105919088D01*
X110405333Y-105846517D01*
X110490000Y-105773945D01*
X108627333Y-105773945D02*
X108542666Y-105846517D01*
X108627333Y-105919088D01*
X108712000Y-105846517D01*
X108627333Y-105773945D01*
X108627333Y-105919088D01*
X108627333Y-104975660D02*
X108542666Y-105048231D01*
X108627333Y-105120802D01*
X108712000Y-105048231D01*
X108627333Y-104975660D01*
X108627333Y-105120802D01*
X107018666Y-104903088D02*
X107018666Y-105919088D01*
X107442000Y-104322517D02*
X107865333Y-105411088D01*
X106764666Y-105411088D01*
%TO.C,SW3:10*%
X133180666Y-104248857D02*
X132926666Y-104321428D01*
X132503333Y-104321428D01*
X132334000Y-104248857D01*
X132249333Y-104176285D01*
X132164666Y-104031142D01*
X132164666Y-103886000D01*
X132249333Y-103740857D01*
X132334000Y-103668285D01*
X132503333Y-103595714D01*
X132842000Y-103523142D01*
X133011333Y-103450571D01*
X133096000Y-103378000D01*
X133180666Y-103232857D01*
X133180666Y-103087714D01*
X133096000Y-102942571D01*
X133011333Y-102870000D01*
X132842000Y-102797428D01*
X132418666Y-102797428D01*
X132164666Y-102870000D01*
X131572000Y-102797428D02*
X131148666Y-104321428D01*
X130810000Y-103232857D01*
X130471333Y-104321428D01*
X130048000Y-102797428D01*
X129540000Y-102797428D02*
X128439333Y-102797428D01*
X129032000Y-103378000D01*
X128778000Y-103378000D01*
X128608666Y-103450571D01*
X128524000Y-103523142D01*
X128439333Y-103668285D01*
X128439333Y-104031142D01*
X128524000Y-104176285D01*
X128608666Y-104248857D01*
X128778000Y-104321428D01*
X129286000Y-104321428D01*
X129455333Y-104248857D01*
X129540000Y-104176285D01*
X127677333Y-104176285D02*
X127592666Y-104248857D01*
X127677333Y-104321428D01*
X127762000Y-104248857D01*
X127677333Y-104176285D01*
X127677333Y-104321428D01*
X127677333Y-103378000D02*
X127592666Y-103450571D01*
X127677333Y-103523142D01*
X127762000Y-103450571D01*
X127677333Y-103378000D01*
X127677333Y-103523142D01*
X127000000Y-102797428D02*
X125899333Y-102797428D01*
X126492000Y-103378000D01*
X126238000Y-103378000D01*
X126068666Y-103450571D01*
X125984000Y-103523142D01*
X125899333Y-103668285D01*
X125899333Y-104031142D01*
X125984000Y-104176285D01*
X126068666Y-104248857D01*
X126238000Y-104321428D01*
X126746000Y-104321428D01*
X126915333Y-104248857D01*
X127000000Y-104176285D01*
%TO.C,SW3:11*%
X152230666Y-105846517D02*
X151976666Y-105919088D01*
X151553333Y-105919088D01*
X151384000Y-105846517D01*
X151299333Y-105773945D01*
X151214666Y-105628802D01*
X151214666Y-105483660D01*
X151299333Y-105338517D01*
X151384000Y-105265945D01*
X151553333Y-105193374D01*
X151892000Y-105120802D01*
X152061333Y-105048231D01*
X152146000Y-104975660D01*
X152230666Y-104830517D01*
X152230666Y-104685374D01*
X152146000Y-104540231D01*
X152061333Y-104467660D01*
X151892000Y-104395088D01*
X151468666Y-104395088D01*
X151214666Y-104467660D01*
X150622000Y-104395088D02*
X150198666Y-105919088D01*
X149860000Y-104830517D01*
X149521333Y-105919088D01*
X149098000Y-104395088D01*
X148590000Y-104395088D02*
X147489333Y-104395088D01*
X148082000Y-104975660D01*
X147828000Y-104975660D01*
X147658666Y-105048231D01*
X147574000Y-105120802D01*
X147489333Y-105265945D01*
X147489333Y-105628802D01*
X147574000Y-105773945D01*
X147658666Y-105846517D01*
X147828000Y-105919088D01*
X148336000Y-105919088D01*
X148505333Y-105846517D01*
X148590000Y-105773945D01*
X146727333Y-105773945D02*
X146642666Y-105846517D01*
X146727333Y-105919088D01*
X146812000Y-105846517D01*
X146727333Y-105773945D01*
X146727333Y-105919088D01*
X146727333Y-104975660D02*
X146642666Y-105048231D01*
X146727333Y-105120802D01*
X146812000Y-105048231D01*
X146727333Y-104975660D01*
X146727333Y-105120802D01*
X145965333Y-104540231D02*
X145880666Y-104467660D01*
X145711333Y-104395088D01*
X145288000Y-104395088D01*
X145118666Y-104467660D01*
X145034000Y-104540231D01*
X144949333Y-104685374D01*
X144949333Y-104830517D01*
X145034000Y-105048231D01*
X146050000Y-105919088D01*
X144949333Y-105919088D01*
%TO.C,SW3:12*%
X171280666Y-109021517D02*
X171026666Y-109094088D01*
X170603333Y-109094088D01*
X170434000Y-109021517D01*
X170349333Y-108948945D01*
X170264666Y-108803802D01*
X170264666Y-108658660D01*
X170349333Y-108513517D01*
X170434000Y-108440945D01*
X170603333Y-108368374D01*
X170942000Y-108295802D01*
X171111333Y-108223231D01*
X171196000Y-108150660D01*
X171280666Y-108005517D01*
X171280666Y-107860374D01*
X171196000Y-107715231D01*
X171111333Y-107642660D01*
X170942000Y-107570088D01*
X170518666Y-107570088D01*
X170264666Y-107642660D01*
X169672000Y-107570088D02*
X169248666Y-109094088D01*
X168910000Y-108005517D01*
X168571333Y-109094088D01*
X168148000Y-107570088D01*
X167640000Y-107570088D02*
X166539333Y-107570088D01*
X167132000Y-108150660D01*
X166878000Y-108150660D01*
X166708666Y-108223231D01*
X166624000Y-108295802D01*
X166539333Y-108440945D01*
X166539333Y-108803802D01*
X166624000Y-108948945D01*
X166708666Y-109021517D01*
X166878000Y-109094088D01*
X167386000Y-109094088D01*
X167555333Y-109021517D01*
X167640000Y-108948945D01*
X165777333Y-108948945D02*
X165692666Y-109021517D01*
X165777333Y-109094088D01*
X165862000Y-109021517D01*
X165777333Y-108948945D01*
X165777333Y-109094088D01*
X165777333Y-108150660D02*
X165692666Y-108223231D01*
X165777333Y-108295802D01*
X165862000Y-108223231D01*
X165777333Y-108150660D01*
X165777333Y-108295802D01*
X163999333Y-109094088D02*
X165015333Y-109094088D01*
X164507333Y-109094088D02*
X164507333Y-107570088D01*
X164676666Y-107787802D01*
X164846000Y-107932945D01*
X165015333Y-108005517D01*
%TO.C,SW4:7*%
X76308857Y-85269493D02*
X76381428Y-85523493D01*
X76381428Y-85946826D01*
X76308857Y-86116160D01*
X76236285Y-86200826D01*
X76091142Y-86285493D01*
X75946000Y-86285493D01*
X75800857Y-86200826D01*
X75728285Y-86116160D01*
X75655714Y-85946826D01*
X75583142Y-85608160D01*
X75510571Y-85438826D01*
X75438000Y-85354160D01*
X75292857Y-85269493D01*
X75147714Y-85269493D01*
X75002571Y-85354160D01*
X74930000Y-85438826D01*
X74857428Y-85608160D01*
X74857428Y-86031493D01*
X74930000Y-86285493D01*
X74857428Y-86878160D02*
X76381428Y-87301493D01*
X75292857Y-87640160D01*
X76381428Y-87978826D01*
X74857428Y-88402160D01*
X75365428Y-89841493D02*
X76381428Y-89841493D01*
X74784857Y-89418160D02*
X75873428Y-88994826D01*
X75873428Y-90095493D01*
X76236285Y-90772826D02*
X76308857Y-90857493D01*
X76381428Y-90772826D01*
X76308857Y-90688160D01*
X76236285Y-90772826D01*
X76381428Y-90772826D01*
X75438000Y-90772826D02*
X75510571Y-90857493D01*
X75583142Y-90772826D01*
X75510571Y-90688160D01*
X75438000Y-90772826D01*
X75583142Y-90772826D01*
X74857428Y-92381493D02*
X74857428Y-92042826D01*
X74930000Y-91873493D01*
X75002571Y-91788826D01*
X75220285Y-91619493D01*
X75510571Y-91534826D01*
X76091142Y-91534826D01*
X76236285Y-91619493D01*
X76308857Y-91704160D01*
X76381428Y-91873493D01*
X76381428Y-92212160D01*
X76308857Y-92381493D01*
X76236285Y-92466160D01*
X76091142Y-92550826D01*
X75728285Y-92550826D01*
X75583142Y-92466160D01*
X75510571Y-92381493D01*
X75438000Y-92212160D01*
X75438000Y-91873493D01*
X75510571Y-91704160D01*
X75583142Y-91619493D01*
X75728285Y-91534826D01*
%TO.C,SW4:8*%
X95080666Y-88066517D02*
X94826666Y-88139088D01*
X94403333Y-88139088D01*
X94234000Y-88066517D01*
X94149333Y-87993945D01*
X94064666Y-87848802D01*
X94064666Y-87703660D01*
X94149333Y-87558517D01*
X94234000Y-87485945D01*
X94403333Y-87413374D01*
X94742000Y-87340802D01*
X94911333Y-87268231D01*
X94996000Y-87195660D01*
X95080666Y-87050517D01*
X95080666Y-86905374D01*
X94996000Y-86760231D01*
X94911333Y-86687660D01*
X94742000Y-86615088D01*
X94318666Y-86615088D01*
X94064666Y-86687660D01*
X93472000Y-86615088D02*
X93048666Y-88139088D01*
X92710000Y-87050517D01*
X92371333Y-88139088D01*
X91948000Y-86615088D01*
X90508666Y-87123088D02*
X90508666Y-88139088D01*
X90932000Y-86542517D02*
X91355333Y-87631088D01*
X90254666Y-87631088D01*
X89577333Y-87993945D02*
X89492666Y-88066517D01*
X89577333Y-88139088D01*
X89662000Y-88066517D01*
X89577333Y-87993945D01*
X89577333Y-88139088D01*
X89577333Y-87195660D02*
X89492666Y-87268231D01*
X89577333Y-87340802D01*
X89662000Y-87268231D01*
X89577333Y-87195660D01*
X89577333Y-87340802D01*
X87884000Y-86615088D02*
X88730666Y-86615088D01*
X88815333Y-87340802D01*
X88730666Y-87268231D01*
X88561333Y-87195660D01*
X88138000Y-87195660D01*
X87968666Y-87268231D01*
X87884000Y-87340802D01*
X87799333Y-87485945D01*
X87799333Y-87848802D01*
X87884000Y-87993945D01*
X87968666Y-88066517D01*
X88138000Y-88139088D01*
X88561333Y-88139088D01*
X88730666Y-88066517D01*
X88815333Y-87993945D01*
%TO.C,SW4:9*%
X114130666Y-86796517D02*
X113876666Y-86869088D01*
X113453333Y-86869088D01*
X113284000Y-86796517D01*
X113199333Y-86723945D01*
X113114666Y-86578802D01*
X113114666Y-86433660D01*
X113199333Y-86288517D01*
X113284000Y-86215945D01*
X113453333Y-86143374D01*
X113792000Y-86070802D01*
X113961333Y-85998231D01*
X114046000Y-85925660D01*
X114130666Y-85780517D01*
X114130666Y-85635374D01*
X114046000Y-85490231D01*
X113961333Y-85417660D01*
X113792000Y-85345088D01*
X113368666Y-85345088D01*
X113114666Y-85417660D01*
X112522000Y-85345088D02*
X112098666Y-86869088D01*
X111760000Y-85780517D01*
X111421333Y-86869088D01*
X110998000Y-85345088D01*
X109558666Y-85853088D02*
X109558666Y-86869088D01*
X109982000Y-85272517D02*
X110405333Y-86361088D01*
X109304666Y-86361088D01*
X108627333Y-86723945D02*
X108542666Y-86796517D01*
X108627333Y-86869088D01*
X108712000Y-86796517D01*
X108627333Y-86723945D01*
X108627333Y-86869088D01*
X108627333Y-85925660D02*
X108542666Y-85998231D01*
X108627333Y-86070802D01*
X108712000Y-85998231D01*
X108627333Y-85925660D01*
X108627333Y-86070802D01*
X107018666Y-85853088D02*
X107018666Y-86869088D01*
X107442000Y-85272517D02*
X107865333Y-86361088D01*
X106764666Y-86361088D01*
%TO.C,SW4:10*%
X133180666Y-85198857D02*
X132926666Y-85271428D01*
X132503333Y-85271428D01*
X132334000Y-85198857D01*
X132249333Y-85126285D01*
X132164666Y-84981142D01*
X132164666Y-84836000D01*
X132249333Y-84690857D01*
X132334000Y-84618285D01*
X132503333Y-84545714D01*
X132842000Y-84473142D01*
X133011333Y-84400571D01*
X133096000Y-84328000D01*
X133180666Y-84182857D01*
X133180666Y-84037714D01*
X133096000Y-83892571D01*
X133011333Y-83820000D01*
X132842000Y-83747428D01*
X132418666Y-83747428D01*
X132164666Y-83820000D01*
X131572000Y-83747428D02*
X131148666Y-85271428D01*
X130810000Y-84182857D01*
X130471333Y-85271428D01*
X130048000Y-83747428D01*
X128608666Y-84255428D02*
X128608666Y-85271428D01*
X129032000Y-83674857D02*
X129455333Y-84763428D01*
X128354666Y-84763428D01*
X127677333Y-85126285D02*
X127592666Y-85198857D01*
X127677333Y-85271428D01*
X127762000Y-85198857D01*
X127677333Y-85126285D01*
X127677333Y-85271428D01*
X127677333Y-84328000D02*
X127592666Y-84400571D01*
X127677333Y-84473142D01*
X127762000Y-84400571D01*
X127677333Y-84328000D01*
X127677333Y-84473142D01*
X127000000Y-83747428D02*
X125899333Y-83747428D01*
X126492000Y-84328000D01*
X126238000Y-84328000D01*
X126068666Y-84400571D01*
X125984000Y-84473142D01*
X125899333Y-84618285D01*
X125899333Y-84981142D01*
X125984000Y-85126285D01*
X126068666Y-85198857D01*
X126238000Y-85271428D01*
X126746000Y-85271428D01*
X126915333Y-85198857D01*
X127000000Y-85126285D01*
%TO.C,SW4:11*%
X152230666Y-86796517D02*
X151976666Y-86869088D01*
X151553333Y-86869088D01*
X151384000Y-86796517D01*
X151299333Y-86723945D01*
X151214666Y-86578802D01*
X151214666Y-86433660D01*
X151299333Y-86288517D01*
X151384000Y-86215945D01*
X151553333Y-86143374D01*
X151892000Y-86070802D01*
X152061333Y-85998231D01*
X152146000Y-85925660D01*
X152230666Y-85780517D01*
X152230666Y-85635374D01*
X152146000Y-85490231D01*
X152061333Y-85417660D01*
X151892000Y-85345088D01*
X151468666Y-85345088D01*
X151214666Y-85417660D01*
X150622000Y-85345088D02*
X150198666Y-86869088D01*
X149860000Y-85780517D01*
X149521333Y-86869088D01*
X149098000Y-85345088D01*
X147658666Y-85853088D02*
X147658666Y-86869088D01*
X148082000Y-85272517D02*
X148505333Y-86361088D01*
X147404666Y-86361088D01*
X146727333Y-86723945D02*
X146642666Y-86796517D01*
X146727333Y-86869088D01*
X146812000Y-86796517D01*
X146727333Y-86723945D01*
X146727333Y-86869088D01*
X146727333Y-85925660D02*
X146642666Y-85998231D01*
X146727333Y-86070802D01*
X146812000Y-85998231D01*
X146727333Y-85925660D01*
X146727333Y-86070802D01*
X145965333Y-85490231D02*
X145880666Y-85417660D01*
X145711333Y-85345088D01*
X145288000Y-85345088D01*
X145118666Y-85417660D01*
X145034000Y-85490231D01*
X144949333Y-85635374D01*
X144949333Y-85780517D01*
X145034000Y-85998231D01*
X146050000Y-86869088D01*
X144949333Y-86869088D01*
%TO.C,SW4:12*%
X171280666Y-89971517D02*
X171026666Y-90044088D01*
X170603333Y-90044088D01*
X170434000Y-89971517D01*
X170349333Y-89898945D01*
X170264666Y-89753802D01*
X170264666Y-89608660D01*
X170349333Y-89463517D01*
X170434000Y-89390945D01*
X170603333Y-89318374D01*
X170942000Y-89245802D01*
X171111333Y-89173231D01*
X171196000Y-89100660D01*
X171280666Y-88955517D01*
X171280666Y-88810374D01*
X171196000Y-88665231D01*
X171111333Y-88592660D01*
X170942000Y-88520088D01*
X170518666Y-88520088D01*
X170264666Y-88592660D01*
X169672000Y-88520088D02*
X169248666Y-90044088D01*
X168910000Y-88955517D01*
X168571333Y-90044088D01*
X168148000Y-88520088D01*
X166708666Y-89028088D02*
X166708666Y-90044088D01*
X167132000Y-88447517D02*
X167555333Y-89536088D01*
X166454666Y-89536088D01*
X165777333Y-89898945D02*
X165692666Y-89971517D01*
X165777333Y-90044088D01*
X165862000Y-89971517D01*
X165777333Y-89898945D01*
X165777333Y-90044088D01*
X165777333Y-89100660D02*
X165692666Y-89173231D01*
X165777333Y-89245802D01*
X165862000Y-89173231D01*
X165777333Y-89100660D01*
X165777333Y-89245802D01*
X163999333Y-90044088D02*
X165015333Y-90044088D01*
X164507333Y-90044088D02*
X164507333Y-88520088D01*
X164676666Y-88737802D01*
X164846000Y-88882945D01*
X165015333Y-88955517D01*
%TO.C,SW4:13*%
X195093166Y-89971517D02*
X194839166Y-90044088D01*
X194415833Y-90044088D01*
X194246500Y-89971517D01*
X194161833Y-89898945D01*
X194077166Y-89753802D01*
X194077166Y-89608660D01*
X194161833Y-89463517D01*
X194246500Y-89390945D01*
X194415833Y-89318374D01*
X194754500Y-89245802D01*
X194923833Y-89173231D01*
X195008500Y-89100660D01*
X195093166Y-88955517D01*
X195093166Y-88810374D01*
X195008500Y-88665231D01*
X194923833Y-88592660D01*
X194754500Y-88520088D01*
X194331166Y-88520088D01*
X194077166Y-88592660D01*
X193484500Y-88520088D02*
X193061166Y-90044088D01*
X192722500Y-88955517D01*
X192383833Y-90044088D01*
X191960500Y-88520088D01*
X190521166Y-89028088D02*
X190521166Y-90044088D01*
X190944500Y-88447517D02*
X191367833Y-89536088D01*
X190267166Y-89536088D01*
X189589833Y-89898945D02*
X189505166Y-89971517D01*
X189589833Y-90044088D01*
X189674500Y-89971517D01*
X189589833Y-89898945D01*
X189589833Y-90044088D01*
X189589833Y-89100660D02*
X189505166Y-89173231D01*
X189589833Y-89245802D01*
X189674500Y-89173231D01*
X189589833Y-89100660D01*
X189589833Y-89245802D01*
X188404500Y-88520088D02*
X188235166Y-88520088D01*
X188065833Y-88592660D01*
X187981166Y-88665231D01*
X187896500Y-88810374D01*
X187811833Y-89100660D01*
X187811833Y-89463517D01*
X187896500Y-89753802D01*
X187981166Y-89898945D01*
X188065833Y-89971517D01*
X188235166Y-90044088D01*
X188404500Y-90044088D01*
X188573833Y-89971517D01*
X188658500Y-89898945D01*
X188743166Y-89753802D01*
X188827833Y-89463517D01*
X188827833Y-89100660D01*
X188743166Y-88810374D01*
X188658500Y-88665231D01*
X188573833Y-88592660D01*
X188404500Y-88520088D01*
%TO.C,SW5:7*%
X76030666Y-69019057D02*
X75776666Y-69091628D01*
X75353333Y-69091628D01*
X75184000Y-69019057D01*
X75099333Y-68946485D01*
X75014666Y-68801342D01*
X75014666Y-68656200D01*
X75099333Y-68511057D01*
X75184000Y-68438485D01*
X75353333Y-68365914D01*
X75692000Y-68293342D01*
X75861333Y-68220771D01*
X75946000Y-68148200D01*
X76030666Y-68003057D01*
X76030666Y-67857914D01*
X75946000Y-67712771D01*
X75861333Y-67640200D01*
X75692000Y-67567628D01*
X75268666Y-67567628D01*
X75014666Y-67640200D01*
X74422000Y-67567628D02*
X73998666Y-69091628D01*
X73660000Y-68003057D01*
X73321333Y-69091628D01*
X72898000Y-67567628D01*
X71374000Y-67567628D02*
X72220666Y-67567628D01*
X72305333Y-68293342D01*
X72220666Y-68220771D01*
X72051333Y-68148200D01*
X71628000Y-68148200D01*
X71458666Y-68220771D01*
X71374000Y-68293342D01*
X71289333Y-68438485D01*
X71289333Y-68801342D01*
X71374000Y-68946485D01*
X71458666Y-69019057D01*
X71628000Y-69091628D01*
X72051333Y-69091628D01*
X72220666Y-69019057D01*
X72305333Y-68946485D01*
X70527333Y-68946485D02*
X70442666Y-69019057D01*
X70527333Y-69091628D01*
X70612000Y-69019057D01*
X70527333Y-68946485D01*
X70527333Y-69091628D01*
X70527333Y-68148200D02*
X70442666Y-68220771D01*
X70527333Y-68293342D01*
X70612000Y-68220771D01*
X70527333Y-68148200D01*
X70527333Y-68293342D01*
X68918666Y-67567628D02*
X69257333Y-67567628D01*
X69426666Y-67640200D01*
X69511333Y-67712771D01*
X69680666Y-67930485D01*
X69765333Y-68220771D01*
X69765333Y-68801342D01*
X69680666Y-68946485D01*
X69596000Y-69019057D01*
X69426666Y-69091628D01*
X69088000Y-69091628D01*
X68918666Y-69019057D01*
X68834000Y-68946485D01*
X68749333Y-68801342D01*
X68749333Y-68438485D01*
X68834000Y-68293342D01*
X68918666Y-68220771D01*
X69088000Y-68148200D01*
X69426666Y-68148200D01*
X69596000Y-68220771D01*
X69680666Y-68293342D01*
X69765333Y-68438485D01*
%TO.C,SW5:8*%
X95080666Y-69019057D02*
X94826666Y-69091628D01*
X94403333Y-69091628D01*
X94234000Y-69019057D01*
X94149333Y-68946485D01*
X94064666Y-68801342D01*
X94064666Y-68656200D01*
X94149333Y-68511057D01*
X94234000Y-68438485D01*
X94403333Y-68365914D01*
X94742000Y-68293342D01*
X94911333Y-68220771D01*
X94996000Y-68148200D01*
X95080666Y-68003057D01*
X95080666Y-67857914D01*
X94996000Y-67712771D01*
X94911333Y-67640200D01*
X94742000Y-67567628D01*
X94318666Y-67567628D01*
X94064666Y-67640200D01*
X93472000Y-67567628D02*
X93048666Y-69091628D01*
X92710000Y-68003057D01*
X92371333Y-69091628D01*
X91948000Y-67567628D01*
X90424000Y-67567628D02*
X91270666Y-67567628D01*
X91355333Y-68293342D01*
X91270666Y-68220771D01*
X91101333Y-68148200D01*
X90678000Y-68148200D01*
X90508666Y-68220771D01*
X90424000Y-68293342D01*
X90339333Y-68438485D01*
X90339333Y-68801342D01*
X90424000Y-68946485D01*
X90508666Y-69019057D01*
X90678000Y-69091628D01*
X91101333Y-69091628D01*
X91270666Y-69019057D01*
X91355333Y-68946485D01*
X89577333Y-68946485D02*
X89492666Y-69019057D01*
X89577333Y-69091628D01*
X89662000Y-69019057D01*
X89577333Y-68946485D01*
X89577333Y-69091628D01*
X89577333Y-68148200D02*
X89492666Y-68220771D01*
X89577333Y-68293342D01*
X89662000Y-68220771D01*
X89577333Y-68148200D01*
X89577333Y-68293342D01*
X87884000Y-67567628D02*
X88730666Y-67567628D01*
X88815333Y-68293342D01*
X88730666Y-68220771D01*
X88561333Y-68148200D01*
X88138000Y-68148200D01*
X87968666Y-68220771D01*
X87884000Y-68293342D01*
X87799333Y-68438485D01*
X87799333Y-68801342D01*
X87884000Y-68946485D01*
X87968666Y-69019057D01*
X88138000Y-69091628D01*
X88561333Y-69091628D01*
X88730666Y-69019057D01*
X88815333Y-68946485D01*
%TO.C,SW5:9*%
X114130666Y-67746517D02*
X113876666Y-67819088D01*
X113453333Y-67819088D01*
X113284000Y-67746517D01*
X113199333Y-67673945D01*
X113114666Y-67528802D01*
X113114666Y-67383660D01*
X113199333Y-67238517D01*
X113284000Y-67165945D01*
X113453333Y-67093374D01*
X113792000Y-67020802D01*
X113961333Y-66948231D01*
X114046000Y-66875660D01*
X114130666Y-66730517D01*
X114130666Y-66585374D01*
X114046000Y-66440231D01*
X113961333Y-66367660D01*
X113792000Y-66295088D01*
X113368666Y-66295088D01*
X113114666Y-66367660D01*
X112522000Y-66295088D02*
X112098666Y-67819088D01*
X111760000Y-66730517D01*
X111421333Y-67819088D01*
X110998000Y-66295088D01*
X109474000Y-66295088D02*
X110320666Y-66295088D01*
X110405333Y-67020802D01*
X110320666Y-66948231D01*
X110151333Y-66875660D01*
X109728000Y-66875660D01*
X109558666Y-66948231D01*
X109474000Y-67020802D01*
X109389333Y-67165945D01*
X109389333Y-67528802D01*
X109474000Y-67673945D01*
X109558666Y-67746517D01*
X109728000Y-67819088D01*
X110151333Y-67819088D01*
X110320666Y-67746517D01*
X110405333Y-67673945D01*
X108627333Y-67673945D02*
X108542666Y-67746517D01*
X108627333Y-67819088D01*
X108712000Y-67746517D01*
X108627333Y-67673945D01*
X108627333Y-67819088D01*
X108627333Y-66875660D02*
X108542666Y-66948231D01*
X108627333Y-67020802D01*
X108712000Y-66948231D01*
X108627333Y-66875660D01*
X108627333Y-67020802D01*
X107018666Y-66803088D02*
X107018666Y-67819088D01*
X107442000Y-66222517D02*
X107865333Y-67311088D01*
X106764666Y-67311088D01*
%TO.C,SW5:10*%
X133180666Y-66148857D02*
X132926666Y-66221428D01*
X132503333Y-66221428D01*
X132334000Y-66148857D01*
X132249333Y-66076285D01*
X132164666Y-65931142D01*
X132164666Y-65786000D01*
X132249333Y-65640857D01*
X132334000Y-65568285D01*
X132503333Y-65495714D01*
X132842000Y-65423142D01*
X133011333Y-65350571D01*
X133096000Y-65278000D01*
X133180666Y-65132857D01*
X133180666Y-64987714D01*
X133096000Y-64842571D01*
X133011333Y-64770000D01*
X132842000Y-64697428D01*
X132418666Y-64697428D01*
X132164666Y-64770000D01*
X131572000Y-64697428D02*
X131148666Y-66221428D01*
X130810000Y-65132857D01*
X130471333Y-66221428D01*
X130048000Y-64697428D01*
X128524000Y-64697428D02*
X129370666Y-64697428D01*
X129455333Y-65423142D01*
X129370666Y-65350571D01*
X129201333Y-65278000D01*
X128778000Y-65278000D01*
X128608666Y-65350571D01*
X128524000Y-65423142D01*
X128439333Y-65568285D01*
X128439333Y-65931142D01*
X128524000Y-66076285D01*
X128608666Y-66148857D01*
X128778000Y-66221428D01*
X129201333Y-66221428D01*
X129370666Y-66148857D01*
X129455333Y-66076285D01*
X127677333Y-66076285D02*
X127592666Y-66148857D01*
X127677333Y-66221428D01*
X127762000Y-66148857D01*
X127677333Y-66076285D01*
X127677333Y-66221428D01*
X127677333Y-65278000D02*
X127592666Y-65350571D01*
X127677333Y-65423142D01*
X127762000Y-65350571D01*
X127677333Y-65278000D01*
X127677333Y-65423142D01*
X127000000Y-64697428D02*
X125899333Y-64697428D01*
X126492000Y-65278000D01*
X126238000Y-65278000D01*
X126068666Y-65350571D01*
X125984000Y-65423142D01*
X125899333Y-65568285D01*
X125899333Y-65931142D01*
X125984000Y-66076285D01*
X126068666Y-66148857D01*
X126238000Y-66221428D01*
X126746000Y-66221428D01*
X126915333Y-66148857D01*
X127000000Y-66076285D01*
%TO.C,SW5:11*%
X152230666Y-67746517D02*
X151976666Y-67819088D01*
X151553333Y-67819088D01*
X151384000Y-67746517D01*
X151299333Y-67673945D01*
X151214666Y-67528802D01*
X151214666Y-67383660D01*
X151299333Y-67238517D01*
X151384000Y-67165945D01*
X151553333Y-67093374D01*
X151892000Y-67020802D01*
X152061333Y-66948231D01*
X152146000Y-66875660D01*
X152230666Y-66730517D01*
X152230666Y-66585374D01*
X152146000Y-66440231D01*
X152061333Y-66367660D01*
X151892000Y-66295088D01*
X151468666Y-66295088D01*
X151214666Y-66367660D01*
X150622000Y-66295088D02*
X150198666Y-67819088D01*
X149860000Y-66730517D01*
X149521333Y-67819088D01*
X149098000Y-66295088D01*
X147574000Y-66295088D02*
X148420666Y-66295088D01*
X148505333Y-67020802D01*
X148420666Y-66948231D01*
X148251333Y-66875660D01*
X147828000Y-66875660D01*
X147658666Y-66948231D01*
X147574000Y-67020802D01*
X147489333Y-67165945D01*
X147489333Y-67528802D01*
X147574000Y-67673945D01*
X147658666Y-67746517D01*
X147828000Y-67819088D01*
X148251333Y-67819088D01*
X148420666Y-67746517D01*
X148505333Y-67673945D01*
X146727333Y-67673945D02*
X146642666Y-67746517D01*
X146727333Y-67819088D01*
X146812000Y-67746517D01*
X146727333Y-67673945D01*
X146727333Y-67819088D01*
X146727333Y-66875660D02*
X146642666Y-66948231D01*
X146727333Y-67020802D01*
X146812000Y-66948231D01*
X146727333Y-66875660D01*
X146727333Y-67020802D01*
X145965333Y-66440231D02*
X145880666Y-66367660D01*
X145711333Y-66295088D01*
X145288000Y-66295088D01*
X145118666Y-66367660D01*
X145034000Y-66440231D01*
X144949333Y-66585374D01*
X144949333Y-66730517D01*
X145034000Y-66948231D01*
X146050000Y-67819088D01*
X144949333Y-67819088D01*
%TO.C,SW5:12*%
X171280666Y-70924057D02*
X171026666Y-70996628D01*
X170603333Y-70996628D01*
X170434000Y-70924057D01*
X170349333Y-70851485D01*
X170264666Y-70706342D01*
X170264666Y-70561200D01*
X170349333Y-70416057D01*
X170434000Y-70343485D01*
X170603333Y-70270914D01*
X170942000Y-70198342D01*
X171111333Y-70125771D01*
X171196000Y-70053200D01*
X171280666Y-69908057D01*
X171280666Y-69762914D01*
X171196000Y-69617771D01*
X171111333Y-69545200D01*
X170942000Y-69472628D01*
X170518666Y-69472628D01*
X170264666Y-69545200D01*
X169672000Y-69472628D02*
X169248666Y-70996628D01*
X168910000Y-69908057D01*
X168571333Y-70996628D01*
X168148000Y-69472628D01*
X166624000Y-69472628D02*
X167470666Y-69472628D01*
X167555333Y-70198342D01*
X167470666Y-70125771D01*
X167301333Y-70053200D01*
X166878000Y-70053200D01*
X166708666Y-70125771D01*
X166624000Y-70198342D01*
X166539333Y-70343485D01*
X166539333Y-70706342D01*
X166624000Y-70851485D01*
X166708666Y-70924057D01*
X166878000Y-70996628D01*
X167301333Y-70996628D01*
X167470666Y-70924057D01*
X167555333Y-70851485D01*
X165777333Y-70851485D02*
X165692666Y-70924057D01*
X165777333Y-70996628D01*
X165862000Y-70924057D01*
X165777333Y-70851485D01*
X165777333Y-70996628D01*
X165777333Y-70053200D02*
X165692666Y-70125771D01*
X165777333Y-70198342D01*
X165862000Y-70125771D01*
X165777333Y-70053200D01*
X165777333Y-70198342D01*
X163999333Y-70996628D02*
X165015333Y-70996628D01*
X164507333Y-70996628D02*
X164507333Y-69472628D01*
X164676666Y-69690342D01*
X164846000Y-69835485D01*
X165015333Y-69908057D01*
%TO.C,SW5:13*%
X195093166Y-70924057D02*
X194839166Y-70996628D01*
X194415833Y-70996628D01*
X194246500Y-70924057D01*
X194161833Y-70851485D01*
X194077166Y-70706342D01*
X194077166Y-70561200D01*
X194161833Y-70416057D01*
X194246500Y-70343485D01*
X194415833Y-70270914D01*
X194754500Y-70198342D01*
X194923833Y-70125771D01*
X195008500Y-70053200D01*
X195093166Y-69908057D01*
X195093166Y-69762914D01*
X195008500Y-69617771D01*
X194923833Y-69545200D01*
X194754500Y-69472628D01*
X194331166Y-69472628D01*
X194077166Y-69545200D01*
X193484500Y-69472628D02*
X193061166Y-70996628D01*
X192722500Y-69908057D01*
X192383833Y-70996628D01*
X191960500Y-69472628D01*
X190436500Y-69472628D02*
X191283166Y-69472628D01*
X191367833Y-70198342D01*
X191283166Y-70125771D01*
X191113833Y-70053200D01*
X190690500Y-70053200D01*
X190521166Y-70125771D01*
X190436500Y-70198342D01*
X190351833Y-70343485D01*
X190351833Y-70706342D01*
X190436500Y-70851485D01*
X190521166Y-70924057D01*
X190690500Y-70996628D01*
X191113833Y-70996628D01*
X191283166Y-70924057D01*
X191367833Y-70851485D01*
X189589833Y-70851485D02*
X189505166Y-70924057D01*
X189589833Y-70996628D01*
X189674500Y-70924057D01*
X189589833Y-70851485D01*
X189589833Y-70996628D01*
X189589833Y-70053200D02*
X189505166Y-70125771D01*
X189589833Y-70198342D01*
X189674500Y-70125771D01*
X189589833Y-70053200D01*
X189589833Y-70198342D01*
X188404500Y-69472628D02*
X188235166Y-69472628D01*
X188065833Y-69545200D01*
X187981166Y-69617771D01*
X187896500Y-69762914D01*
X187811833Y-70053200D01*
X187811833Y-70416057D01*
X187896500Y-70706342D01*
X187981166Y-70851485D01*
X188065833Y-70924057D01*
X188235166Y-70996628D01*
X188404500Y-70996628D01*
X188573833Y-70924057D01*
X188658500Y-70851485D01*
X188743166Y-70706342D01*
X188827833Y-70416057D01*
X188827833Y-70053200D01*
X188743166Y-69762914D01*
X188658500Y-69617771D01*
X188573833Y-69545200D01*
X188404500Y-69472628D01*
%TO.C,SX0:10*%
X87342605Y-157798325D02*
X87143073Y-157971442D01*
X86759403Y-158150351D01*
X86575264Y-158156142D01*
X86467860Y-158126151D01*
X86329786Y-158030389D01*
X86268446Y-157898845D01*
X86283840Y-157731519D01*
X86329904Y-157629965D01*
X86452702Y-157492630D01*
X86728969Y-157283731D01*
X86851767Y-157146396D01*
X86897831Y-157044842D01*
X86913225Y-156877516D01*
X86851885Y-156745972D01*
X86713811Y-156650210D01*
X86606407Y-156620219D01*
X86422269Y-156626011D01*
X86038598Y-156804919D01*
X85839066Y-156978036D01*
X85271258Y-157162736D02*
X84841051Y-159044893D01*
X84196981Y-157663679D02*
X85915328Y-158543949D01*
X83276172Y-158093060D02*
X83122704Y-158164623D01*
X82999906Y-158301958D01*
X82953842Y-158403512D01*
X82938448Y-158570838D01*
X82984394Y-158869708D01*
X83137744Y-159198568D01*
X83337158Y-159425875D01*
X83475232Y-159521637D01*
X83582636Y-159551627D01*
X83766774Y-159545836D01*
X83920242Y-159474273D01*
X84043040Y-159336937D01*
X84089105Y-159235384D01*
X84104499Y-159068058D01*
X84058553Y-158769188D01*
X83905203Y-158440328D01*
X83705788Y-158213021D01*
X83567714Y-158117259D01*
X83460310Y-158087268D01*
X83276172Y-158093060D01*
X82631157Y-159915235D02*
X82585093Y-160016789D01*
X82692497Y-160046780D01*
X82738561Y-159945226D01*
X82631157Y-159915235D01*
X82692497Y-160046780D01*
X82293787Y-159191743D02*
X82247723Y-159293297D01*
X82355127Y-159323287D01*
X82401191Y-159221733D01*
X82293787Y-159191743D01*
X82355127Y-159323287D01*
X81434555Y-158951820D02*
X80437012Y-159416982D01*
X81219510Y-159692686D01*
X80989308Y-159800031D01*
X80866510Y-159937367D01*
X80820446Y-160038921D01*
X80805052Y-160206246D01*
X80958402Y-160535107D01*
X81096476Y-160630869D01*
X81203880Y-160660859D01*
X81388018Y-160655068D01*
X81848423Y-160440378D01*
X81971221Y-160303043D01*
X82017285Y-160201489D01*
%TO.C,SX0:11*%
X70075685Y-165847585D02*
X69876153Y-166020702D01*
X69492483Y-166199611D01*
X69308344Y-166205402D01*
X69200940Y-166175411D01*
X69062866Y-166079649D01*
X69001526Y-165948105D01*
X69016920Y-165780779D01*
X69062984Y-165679225D01*
X69185782Y-165541890D01*
X69462049Y-165332991D01*
X69584847Y-165195656D01*
X69630911Y-165094102D01*
X69646305Y-164926776D01*
X69584965Y-164795232D01*
X69446891Y-164699470D01*
X69339487Y-164669479D01*
X69155349Y-164675271D01*
X68771678Y-164854179D01*
X68572146Y-165027296D01*
X68004338Y-165211996D02*
X67574131Y-167094153D01*
X66930061Y-165712939D02*
X68648408Y-166593209D01*
X66009252Y-166142320D02*
X65855784Y-166213883D01*
X65732986Y-166351218D01*
X65686922Y-166452772D01*
X65671528Y-166620098D01*
X65717474Y-166918968D01*
X65870824Y-167247828D01*
X66070238Y-167475135D01*
X66208312Y-167570897D01*
X66315716Y-167600887D01*
X66499854Y-167595096D01*
X66653322Y-167523533D01*
X66776120Y-167386197D01*
X66822185Y-167284644D01*
X66837579Y-167117318D01*
X66791633Y-166818448D01*
X66638283Y-166489588D01*
X66438868Y-166262281D01*
X66300794Y-166166519D01*
X66193390Y-166136528D01*
X66009252Y-166142320D01*
X65364237Y-167964495D02*
X65318173Y-168066049D01*
X65425577Y-168096040D01*
X65471641Y-167994486D01*
X65364237Y-167964495D01*
X65425577Y-168096040D01*
X65026867Y-167241003D02*
X64980803Y-167342557D01*
X65088207Y-167372547D01*
X65134271Y-167270993D01*
X65026867Y-167241003D01*
X65088207Y-167372547D01*
X64152241Y-167168406D02*
X64044837Y-167138415D01*
X63860698Y-167144207D01*
X63477028Y-167323115D01*
X63354230Y-167460450D01*
X63308166Y-167562004D01*
X63292772Y-167729330D01*
X63354112Y-167860874D01*
X63522856Y-168022409D01*
X64811705Y-168382293D01*
X63814162Y-168847455D01*
%TO.C,U1*%
D18*
X183575476Y-43923857D02*
X183575476Y-40875857D01*
X182607857Y-40875857D01*
X182365952Y-41021000D01*
X182245000Y-41166142D01*
X182124047Y-41456428D01*
X182124047Y-41891857D01*
X182245000Y-42182142D01*
X182365952Y-42327285D01*
X182607857Y-42472428D01*
X183575476Y-42472428D01*
X181035476Y-43923857D02*
X181035476Y-41891857D01*
X181035476Y-42472428D02*
X180914523Y-42182142D01*
X180793571Y-42037000D01*
X180551666Y-41891857D01*
X180309761Y-41891857D01*
X179100238Y-43923857D02*
X179342142Y-43778714D01*
X179463095Y-43633571D01*
X179584047Y-43343285D01*
X179584047Y-42472428D01*
X179463095Y-42182142D01*
X179342142Y-42037000D01*
X179100238Y-41891857D01*
X178737380Y-41891857D01*
X178495476Y-42037000D01*
X178374523Y-42182142D01*
X178253571Y-42472428D01*
X178253571Y-43343285D01*
X178374523Y-43633571D01*
X178495476Y-43778714D01*
X178737380Y-43923857D01*
X179100238Y-43923857D01*
X177165000Y-43923857D02*
X177165000Y-40875857D01*
X176318333Y-43053000D01*
X175471666Y-40875857D01*
X175471666Y-43923857D01*
X174262142Y-43923857D02*
X174262142Y-41891857D01*
X174262142Y-40875857D02*
X174383095Y-41021000D01*
X174262142Y-41166142D01*
X174141190Y-41021000D01*
X174262142Y-40875857D01*
X174262142Y-41166142D01*
X171964047Y-43778714D02*
X172205952Y-43923857D01*
X172689761Y-43923857D01*
X172931666Y-43778714D01*
X173052619Y-43633571D01*
X173173571Y-43343285D01*
X173173571Y-42472428D01*
X173052619Y-42182142D01*
X172931666Y-42037000D01*
X172689761Y-41891857D01*
X172205952Y-41891857D01*
X171964047Y-42037000D01*
X170875476Y-43923857D02*
X170875476Y-41891857D01*
X170875476Y-42472428D02*
X170754523Y-42182142D01*
X170633571Y-42037000D01*
X170391666Y-41891857D01*
X170149761Y-41891857D01*
X168940238Y-43923857D02*
X169182142Y-43778714D01*
X169303095Y-43633571D01*
X169424047Y-43343285D01*
X169424047Y-42472428D01*
X169303095Y-42182142D01*
X169182142Y-42037000D01*
X168940238Y-41891857D01*
X168577380Y-41891857D01*
X168335476Y-42037000D01*
X168214523Y-42182142D01*
X168093571Y-42472428D01*
X168093571Y-43343285D01*
X168214523Y-43633571D01*
X168335476Y-43778714D01*
X168577380Y-43923857D01*
X168940238Y-43923857D01*
%TO.C,SX1:7*%
D12*
X64817397Y-154568461D02*
X64617865Y-154741578D01*
X64234195Y-154920487D01*
X64050056Y-154926278D01*
X63942652Y-154896287D01*
X63804578Y-154800525D01*
X63743238Y-154668981D01*
X63758632Y-154501655D01*
X63804696Y-154400101D01*
X63927494Y-154262766D01*
X64203761Y-154053867D01*
X64326559Y-153916532D01*
X64372623Y-153814978D01*
X64388017Y-153647652D01*
X64326677Y-153516108D01*
X64188603Y-153420346D01*
X64081199Y-153390355D01*
X63897061Y-153396147D01*
X63513390Y-153575055D01*
X63313858Y-153748172D01*
X62746050Y-153932872D02*
X62315843Y-155815029D01*
X61671773Y-154433815D02*
X63390120Y-155314085D01*
X60857896Y-156494880D02*
X61778705Y-156065500D01*
X61318300Y-156280190D02*
X60674230Y-154898977D01*
X60919708Y-155024730D01*
X61134516Y-155084711D01*
X61318654Y-155078920D01*
X60105949Y-156685371D02*
X60059885Y-156786925D01*
X60167289Y-156816916D01*
X60213353Y-156715362D01*
X60105949Y-156685371D01*
X60167289Y-156816916D01*
X59768579Y-155961879D02*
X59722515Y-156063433D01*
X59829919Y-156093423D01*
X59875983Y-155991869D01*
X59768579Y-155961879D01*
X59829919Y-156093423D01*
X58065272Y-156115554D02*
X58372208Y-155972428D01*
X58556346Y-155966636D01*
X58663750Y-155996627D01*
X58909229Y-156122380D01*
X59108643Y-156349686D01*
X59354003Y-156875862D01*
X59338609Y-157043188D01*
X59292545Y-157144742D01*
X59169747Y-157282077D01*
X58862810Y-157425204D01*
X58678672Y-157430995D01*
X58571268Y-157401005D01*
X58433194Y-157305243D01*
X58279844Y-156976382D01*
X58295238Y-156809057D01*
X58341302Y-156707503D01*
X58464100Y-156570167D01*
X58771037Y-156427041D01*
X58955175Y-156421249D01*
X59062579Y-156451240D01*
X59200653Y-156547002D01*
%TO.C,SX1:8*%
X82081777Y-146516661D02*
X81882245Y-146689778D01*
X81498575Y-146868687D01*
X81314436Y-146874478D01*
X81207032Y-146844487D01*
X81068958Y-146748725D01*
X81007618Y-146617181D01*
X81023012Y-146449855D01*
X81069076Y-146348301D01*
X81191874Y-146210966D01*
X81468141Y-146002067D01*
X81590939Y-145864732D01*
X81637003Y-145763178D01*
X81652397Y-145595852D01*
X81591057Y-145464308D01*
X81452983Y-145368546D01*
X81345579Y-145338555D01*
X81161441Y-145344347D01*
X80777770Y-145523255D01*
X80578238Y-145696372D01*
X80010430Y-145881072D02*
X79580223Y-147763229D01*
X78936153Y-146382015D02*
X80654500Y-147262285D01*
X78122276Y-148443080D02*
X79043085Y-148013700D01*
X78582680Y-148228390D02*
X77938610Y-146847177D01*
X78184088Y-146972930D01*
X78398896Y-147032911D01*
X78583034Y-147027120D01*
X77370329Y-148633571D02*
X77324265Y-148735125D01*
X77431669Y-148765116D01*
X77477733Y-148663562D01*
X77370329Y-148633571D01*
X77431669Y-148765116D01*
X77032959Y-147910079D02*
X76986895Y-148011633D01*
X77094299Y-148041623D01*
X77140363Y-147940069D01*
X77032959Y-147910079D01*
X77094299Y-148041623D01*
X75252918Y-148099536D02*
X76020259Y-147741719D01*
X76403693Y-148363658D01*
X76296289Y-148333668D01*
X76112151Y-148339459D01*
X75728480Y-148518367D01*
X75605682Y-148655703D01*
X75559618Y-148757257D01*
X75544224Y-148924582D01*
X75697574Y-149253443D01*
X75835648Y-149349205D01*
X75943052Y-149379195D01*
X76127190Y-149373404D01*
X76510861Y-149194496D01*
X76633659Y-149057160D01*
X76679723Y-148955607D01*
%TO.C,SW2:13*%
X195093166Y-128071517D02*
X194839166Y-128144088D01*
X194415833Y-128144088D01*
X194246500Y-128071517D01*
X194161833Y-127998945D01*
X194077166Y-127853802D01*
X194077166Y-127708660D01*
X194161833Y-127563517D01*
X194246500Y-127490945D01*
X194415833Y-127418374D01*
X194754500Y-127345802D01*
X194923833Y-127273231D01*
X195008500Y-127200660D01*
X195093166Y-127055517D01*
X195093166Y-126910374D01*
X195008500Y-126765231D01*
X194923833Y-126692660D01*
X194754500Y-126620088D01*
X194331166Y-126620088D01*
X194077166Y-126692660D01*
X193484500Y-126620088D02*
X193061166Y-128144088D01*
X192722500Y-127055517D01*
X192383833Y-128144088D01*
X191960500Y-126620088D01*
X191367833Y-126765231D02*
X191283166Y-126692660D01*
X191113833Y-126620088D01*
X190690500Y-126620088D01*
X190521166Y-126692660D01*
X190436500Y-126765231D01*
X190351833Y-126910374D01*
X190351833Y-127055517D01*
X190436500Y-127273231D01*
X191452500Y-128144088D01*
X190351833Y-128144088D01*
X189589833Y-127998945D02*
X189505166Y-128071517D01*
X189589833Y-128144088D01*
X189674500Y-128071517D01*
X189589833Y-127998945D01*
X189589833Y-128144088D01*
X189589833Y-127200660D02*
X189505166Y-127273231D01*
X189589833Y-127345802D01*
X189674500Y-127273231D01*
X189589833Y-127200660D01*
X189589833Y-127345802D01*
X188404500Y-126620088D02*
X188235166Y-126620088D01*
X188065833Y-126692660D01*
X187981166Y-126765231D01*
X187896500Y-126910374D01*
X187811833Y-127200660D01*
X187811833Y-127563517D01*
X187896500Y-127853802D01*
X187981166Y-127998945D01*
X188065833Y-128071517D01*
X188235166Y-128144088D01*
X188404500Y-128144088D01*
X188573833Y-128071517D01*
X188658500Y-127998945D01*
X188743166Y-127853802D01*
X188827833Y-127563517D01*
X188827833Y-127200660D01*
X188743166Y-126910374D01*
X188658500Y-126765231D01*
X188573833Y-126692660D01*
X188404500Y-126620088D01*
%TO.C,SW3:13*%
X195093166Y-109021517D02*
X194839166Y-109094088D01*
X194415833Y-109094088D01*
X194246500Y-109021517D01*
X194161833Y-108948945D01*
X194077166Y-108803802D01*
X194077166Y-108658660D01*
X194161833Y-108513517D01*
X194246500Y-108440945D01*
X194415833Y-108368374D01*
X194754500Y-108295802D01*
X194923833Y-108223231D01*
X195008500Y-108150660D01*
X195093166Y-108005517D01*
X195093166Y-107860374D01*
X195008500Y-107715231D01*
X194923833Y-107642660D01*
X194754500Y-107570088D01*
X194331166Y-107570088D01*
X194077166Y-107642660D01*
X193484500Y-107570088D02*
X193061166Y-109094088D01*
X192722500Y-108005517D01*
X192383833Y-109094088D01*
X191960500Y-107570088D01*
X191452500Y-107570088D02*
X190351833Y-107570088D01*
X190944500Y-108150660D01*
X190690500Y-108150660D01*
X190521166Y-108223231D01*
X190436500Y-108295802D01*
X190351833Y-108440945D01*
X190351833Y-108803802D01*
X190436500Y-108948945D01*
X190521166Y-109021517D01*
X190690500Y-109094088D01*
X191198500Y-109094088D01*
X191367833Y-109021517D01*
X191452500Y-108948945D01*
X189589833Y-108948945D02*
X189505166Y-109021517D01*
X189589833Y-109094088D01*
X189674500Y-109021517D01*
X189589833Y-108948945D01*
X189589833Y-109094088D01*
X189589833Y-108150660D02*
X189505166Y-108223231D01*
X189589833Y-108295802D01*
X189674500Y-108223231D01*
X189589833Y-108150660D01*
X189589833Y-108295802D01*
X188404500Y-107570088D02*
X188235166Y-107570088D01*
X188065833Y-107642660D01*
X187981166Y-107715231D01*
X187896500Y-107860374D01*
X187811833Y-108150660D01*
X187811833Y-108513517D01*
X187896500Y-108803802D01*
X187981166Y-108948945D01*
X188065833Y-109021517D01*
X188235166Y-109094088D01*
X188404500Y-109094088D01*
X188573833Y-109021517D01*
X188658500Y-108948945D01*
X188743166Y-108803802D01*
X188827833Y-108513517D01*
X188827833Y-108150660D01*
X188743166Y-107860374D01*
X188658500Y-107715231D01*
X188573833Y-107642660D01*
X188404500Y-107570088D01*
%TO.C,D2*%
D10*
X73102695Y-70835780D02*
X73102695Y-69835780D01*
X72864600Y-69835780D01*
X72721742Y-69883400D01*
X72626504Y-69978638D01*
X72578885Y-70073876D01*
X72531266Y-70264352D01*
X72531266Y-70407209D01*
X72578885Y-70597685D01*
X72626504Y-70692923D01*
X72721742Y-70788161D01*
X72864600Y-70835780D01*
X73102695Y-70835780D01*
X72150314Y-69931019D02*
X72102695Y-69883400D01*
X72007457Y-69835780D01*
X71769361Y-69835780D01*
X71674123Y-69883400D01*
X71626504Y-69931019D01*
X71578885Y-70026257D01*
X71578885Y-70121495D01*
X71626504Y-70264352D01*
X72197933Y-70835780D01*
X71578885Y-70835780D01*
%TO.C,D4*%
X78201780Y-88136504D02*
X77201780Y-88136504D01*
X77201780Y-88374600D01*
X77249400Y-88517457D01*
X77344638Y-88612695D01*
X77439876Y-88660314D01*
X77630352Y-88707933D01*
X77773209Y-88707933D01*
X77963685Y-88660314D01*
X78058923Y-88612695D01*
X78154161Y-88517457D01*
X78201780Y-88374600D01*
X78201780Y-88136504D01*
X77535114Y-89565076D02*
X78201780Y-89565076D01*
X77154161Y-89326980D02*
X77868447Y-89088885D01*
X77868447Y-89707933D01*
%TO.C,D6*%
X78201780Y-116787704D02*
X77201780Y-116787704D01*
X77201780Y-117025800D01*
X77249400Y-117168657D01*
X77344638Y-117263895D01*
X77439876Y-117311514D01*
X77630352Y-117359133D01*
X77773209Y-117359133D01*
X77963685Y-117311514D01*
X78058923Y-117263895D01*
X78154161Y-117168657D01*
X78201780Y-117025800D01*
X78201780Y-116787704D01*
X77201780Y-118216276D02*
X77201780Y-118025800D01*
X77249400Y-117930561D01*
X77297019Y-117882942D01*
X77439876Y-117787704D01*
X77630352Y-117740085D01*
X78011304Y-117740085D01*
X78106542Y-117787704D01*
X78154161Y-117835323D01*
X78201780Y-117930561D01*
X78201780Y-118121038D01*
X78154161Y-118216276D01*
X78106542Y-118263895D01*
X78011304Y-118311514D01*
X77773209Y-118311514D01*
X77677971Y-118263895D01*
X77630352Y-118216276D01*
X77582733Y-118121038D01*
X77582733Y-117930561D01*
X77630352Y-117835323D01*
X77677971Y-117787704D01*
X77773209Y-117740085D01*
%TO.C,D8*%
X56561420Y-143390443D02*
X56138802Y-142484136D01*
X55923015Y-142584759D01*
X55813667Y-142688291D01*
X55767601Y-142814855D01*
X55764693Y-142921295D01*
X55802034Y-143114049D01*
X55862408Y-143243522D01*
X55986064Y-143396027D01*
X56069471Y-143462218D01*
X56196036Y-143508283D01*
X56345633Y-143491067D01*
X56561420Y-143390443D01*
X55284144Y-143355545D02*
X55350334Y-143272139D01*
X55373367Y-143208856D01*
X55376275Y-143102417D01*
X55356151Y-143059259D01*
X55272744Y-142993069D01*
X55209462Y-142970036D01*
X55103022Y-142967128D01*
X54930392Y-143047627D01*
X54864201Y-143131033D01*
X54841169Y-143194316D01*
X54838260Y-143300755D01*
X54858385Y-143343913D01*
X54941792Y-143410103D01*
X55005074Y-143433136D01*
X55111514Y-143436044D01*
X55284144Y-143355545D01*
X55390584Y-143358454D01*
X55453866Y-143381486D01*
X55537273Y-143447677D01*
X55617771Y-143620307D01*
X55614863Y-143726747D01*
X55591830Y-143790029D01*
X55525640Y-143873436D01*
X55353010Y-143953934D01*
X55246570Y-143951026D01*
X55183288Y-143927993D01*
X55099881Y-143861803D01*
X55019383Y-143689173D01*
X55022291Y-143582733D01*
X55045324Y-143519451D01*
X55111514Y-143436044D01*
%TO.C,D10*%
X38298596Y-148065997D02*
X37875977Y-147159689D01*
X37660190Y-147260312D01*
X37550842Y-147363844D01*
X37504776Y-147490408D01*
X37501868Y-147596848D01*
X37539209Y-147789603D01*
X37599583Y-147919075D01*
X37723240Y-148071580D01*
X37806646Y-148137771D01*
X37933211Y-148183836D01*
X38082808Y-148166620D01*
X38298596Y-148065997D01*
X36917555Y-148709986D02*
X37435445Y-148468490D01*
X37176500Y-148589238D02*
X36753882Y-147682930D01*
X36900571Y-147772154D01*
X37027135Y-147818219D01*
X37133575Y-147821127D01*
X35933889Y-148065299D02*
X35847574Y-148105549D01*
X35781384Y-148188956D01*
X35758351Y-148252238D01*
X35755443Y-148358677D01*
X35792784Y-148551432D01*
X35893407Y-148767220D01*
X36017064Y-148919725D01*
X36100471Y-148985915D01*
X36163753Y-149008948D01*
X36270192Y-149011856D01*
X36356507Y-148971607D01*
X36422698Y-148888200D01*
X36445731Y-148824918D01*
X36448639Y-148718478D01*
X36411298Y-148525724D01*
X36310674Y-148309936D01*
X36187018Y-148157431D01*
X36103611Y-148091240D01*
X36040329Y-148068207D01*
X35933889Y-148065299D01*
%TO.C,D12*%
X92628885Y-70835780D02*
X92628885Y-69835780D01*
X92390790Y-69835780D01*
X92247933Y-69883400D01*
X92152695Y-69978638D01*
X92105076Y-70073876D01*
X92057457Y-70264352D01*
X92057457Y-70407209D01*
X92105076Y-70597685D01*
X92152695Y-70692923D01*
X92247933Y-70788161D01*
X92390790Y-70835780D01*
X92628885Y-70835780D01*
X91105076Y-70835780D02*
X91676504Y-70835780D01*
X91390790Y-70835780D02*
X91390790Y-69835780D01*
X91486028Y-69978638D01*
X91581266Y-70073876D01*
X91676504Y-70121495D01*
X90724123Y-69931019D02*
X90676504Y-69883400D01*
X90581266Y-69835780D01*
X90343171Y-69835780D01*
X90247933Y-69883400D01*
X90200314Y-69931019D01*
X90152695Y-70026257D01*
X90152695Y-70121495D01*
X90200314Y-70264352D01*
X90771742Y-70835780D01*
X90152695Y-70835780D01*
%TO.C,D14*%
X92628885Y-89936580D02*
X92628885Y-88936580D01*
X92390790Y-88936580D01*
X92247933Y-88984200D01*
X92152695Y-89079438D01*
X92105076Y-89174676D01*
X92057457Y-89365152D01*
X92057457Y-89508009D01*
X92105076Y-89698485D01*
X92152695Y-89793723D01*
X92247933Y-89888961D01*
X92390790Y-89936580D01*
X92628885Y-89936580D01*
X91105076Y-89936580D02*
X91676504Y-89936580D01*
X91390790Y-89936580D02*
X91390790Y-88936580D01*
X91486028Y-89079438D01*
X91581266Y-89174676D01*
X91676504Y-89222295D01*
X90247933Y-89269914D02*
X90247933Y-89936580D01*
X90486028Y-88888961D02*
X90724123Y-89603247D01*
X90105076Y-89603247D01*
%TO.C,D16*%
X92628885Y-109037380D02*
X92628885Y-108037380D01*
X92390790Y-108037380D01*
X92247933Y-108085000D01*
X92152695Y-108180238D01*
X92105076Y-108275476D01*
X92057457Y-108465952D01*
X92057457Y-108608809D01*
X92105076Y-108799285D01*
X92152695Y-108894523D01*
X92247933Y-108989761D01*
X92390790Y-109037380D01*
X92628885Y-109037380D01*
X91105076Y-109037380D02*
X91676504Y-109037380D01*
X91390790Y-109037380D02*
X91390790Y-108037380D01*
X91486028Y-108180238D01*
X91581266Y-108275476D01*
X91676504Y-108323095D01*
X90247933Y-108037380D02*
X90438409Y-108037380D01*
X90533647Y-108085000D01*
X90581266Y-108132619D01*
X90676504Y-108275476D01*
X90724123Y-108465952D01*
X90724123Y-108846904D01*
X90676504Y-108942142D01*
X90628885Y-108989761D01*
X90533647Y-109037380D01*
X90343171Y-109037380D01*
X90247933Y-108989761D01*
X90200314Y-108942142D01*
X90152695Y-108846904D01*
X90152695Y-108608809D01*
X90200314Y-108513571D01*
X90247933Y-108465952D01*
X90343171Y-108418333D01*
X90533647Y-108418333D01*
X90628885Y-108465952D01*
X90676504Y-108513571D01*
X90724123Y-108608809D01*
%TO.C,D18*%
X92578085Y-128036580D02*
X92578085Y-127036580D01*
X92339990Y-127036580D01*
X92197133Y-127084200D01*
X92101895Y-127179438D01*
X92054276Y-127274676D01*
X92006657Y-127465152D01*
X92006657Y-127608009D01*
X92054276Y-127798485D01*
X92101895Y-127893723D01*
X92197133Y-127988961D01*
X92339990Y-128036580D01*
X92578085Y-128036580D01*
X91054276Y-128036580D02*
X91625704Y-128036580D01*
X91339990Y-128036580D02*
X91339990Y-127036580D01*
X91435228Y-127179438D01*
X91530466Y-127274676D01*
X91625704Y-127322295D01*
X90482847Y-127465152D02*
X90578085Y-127417533D01*
X90625704Y-127369914D01*
X90673323Y-127274676D01*
X90673323Y-127227057D01*
X90625704Y-127131819D01*
X90578085Y-127084200D01*
X90482847Y-127036580D01*
X90292371Y-127036580D01*
X90197133Y-127084200D01*
X90149514Y-127131819D01*
X90101895Y-127227057D01*
X90101895Y-127274676D01*
X90149514Y-127369914D01*
X90197133Y-127417533D01*
X90292371Y-127465152D01*
X90482847Y-127465152D01*
X90578085Y-127512771D01*
X90625704Y-127560390D01*
X90673323Y-127655628D01*
X90673323Y-127846104D01*
X90625704Y-127941342D01*
X90578085Y-127988961D01*
X90482847Y-128036580D01*
X90292371Y-128036580D01*
X90197133Y-127988961D01*
X90149514Y-127941342D01*
X90101895Y-127846104D01*
X90101895Y-127655628D01*
X90149514Y-127560390D01*
X90197133Y-127512771D01*
X90292371Y-127465152D01*
%TO.C,D20*%
X74264996Y-135213597D02*
X73842377Y-134307289D01*
X73626590Y-134407912D01*
X73517242Y-134511444D01*
X73471176Y-134638008D01*
X73468268Y-134744448D01*
X73505609Y-134937203D01*
X73565983Y-135066675D01*
X73689640Y-135219180D01*
X73773046Y-135285371D01*
X73899611Y-135331436D01*
X74049208Y-135314220D01*
X74264996Y-135213597D01*
X73019476Y-134796097D02*
X72956194Y-134773065D01*
X72849754Y-134770156D01*
X72633967Y-134870780D01*
X72567777Y-134954187D01*
X72544744Y-135017469D01*
X72541836Y-135123909D01*
X72582085Y-135210224D01*
X72685616Y-135319571D01*
X73445003Y-135595965D01*
X72883955Y-135857586D01*
X71900289Y-135212899D02*
X71813974Y-135253149D01*
X71747784Y-135336556D01*
X71724751Y-135399838D01*
X71721843Y-135506277D01*
X71759184Y-135699032D01*
X71859807Y-135914820D01*
X71983464Y-136067325D01*
X72066871Y-136133515D01*
X72130153Y-136156548D01*
X72236592Y-136159456D01*
X72322907Y-136119207D01*
X72389098Y-136035800D01*
X72412131Y-135972518D01*
X72415039Y-135866078D01*
X72377698Y-135673324D01*
X72277074Y-135457536D01*
X72153418Y-135305031D01*
X72070011Y-135238840D01*
X72006729Y-135215807D01*
X71900289Y-135212899D01*
%TO.C,D22*%
X55468996Y-139937997D02*
X55046377Y-139031689D01*
X54830590Y-139132312D01*
X54721242Y-139235844D01*
X54675176Y-139362408D01*
X54672268Y-139468848D01*
X54709609Y-139661603D01*
X54769983Y-139791075D01*
X54893640Y-139943580D01*
X54977046Y-140009771D01*
X55103611Y-140055836D01*
X55253208Y-140038620D01*
X55468996Y-139937997D01*
X54223476Y-139520497D02*
X54160194Y-139497465D01*
X54053754Y-139494556D01*
X53837967Y-139595180D01*
X53771777Y-139678587D01*
X53748744Y-139741869D01*
X53745836Y-139848309D01*
X53786085Y-139934624D01*
X53889616Y-140043971D01*
X54649003Y-140320365D01*
X54087955Y-140581986D01*
X53360326Y-139922991D02*
X53297044Y-139899958D01*
X53190604Y-139897050D01*
X52974817Y-139997673D01*
X52908626Y-140081080D01*
X52885593Y-140144362D01*
X52882685Y-140250802D01*
X52922935Y-140337117D01*
X53026466Y-140446465D01*
X53785853Y-140722859D01*
X53224805Y-140984480D01*
%TO.C,D24*%
X111678885Y-69616580D02*
X111678885Y-68616580D01*
X111440790Y-68616580D01*
X111297933Y-68664200D01*
X111202695Y-68759438D01*
X111155076Y-68854676D01*
X111107457Y-69045152D01*
X111107457Y-69188009D01*
X111155076Y-69378485D01*
X111202695Y-69473723D01*
X111297933Y-69568961D01*
X111440790Y-69616580D01*
X111678885Y-69616580D01*
X110726504Y-68711819D02*
X110678885Y-68664200D01*
X110583647Y-68616580D01*
X110345552Y-68616580D01*
X110250314Y-68664200D01*
X110202695Y-68711819D01*
X110155076Y-68807057D01*
X110155076Y-68902295D01*
X110202695Y-69045152D01*
X110774123Y-69616580D01*
X110155076Y-69616580D01*
X109297933Y-68949914D02*
X109297933Y-69616580D01*
X109536028Y-68568961D02*
X109774123Y-69283247D01*
X109155076Y-69283247D01*
%TO.C,D26*%
X111678885Y-88615780D02*
X111678885Y-87615780D01*
X111440790Y-87615780D01*
X111297933Y-87663400D01*
X111202695Y-87758638D01*
X111155076Y-87853876D01*
X111107457Y-88044352D01*
X111107457Y-88187209D01*
X111155076Y-88377685D01*
X111202695Y-88472923D01*
X111297933Y-88568161D01*
X111440790Y-88615780D01*
X111678885Y-88615780D01*
X110726504Y-87711019D02*
X110678885Y-87663400D01*
X110583647Y-87615780D01*
X110345552Y-87615780D01*
X110250314Y-87663400D01*
X110202695Y-87711019D01*
X110155076Y-87806257D01*
X110155076Y-87901495D01*
X110202695Y-88044352D01*
X110774123Y-88615780D01*
X110155076Y-88615780D01*
X109297933Y-87615780D02*
X109488409Y-87615780D01*
X109583647Y-87663400D01*
X109631266Y-87711019D01*
X109726504Y-87853876D01*
X109774123Y-88044352D01*
X109774123Y-88425304D01*
X109726504Y-88520542D01*
X109678885Y-88568161D01*
X109583647Y-88615780D01*
X109393171Y-88615780D01*
X109297933Y-88568161D01*
X109250314Y-88520542D01*
X109202695Y-88425304D01*
X109202695Y-88187209D01*
X109250314Y-88091971D01*
X109297933Y-88044352D01*
X109393171Y-87996733D01*
X109583647Y-87996733D01*
X109678885Y-88044352D01*
X109726504Y-88091971D01*
X109774123Y-88187209D01*
%TO.C,D28*%
X111678885Y-107716580D02*
X111678885Y-106716580D01*
X111440790Y-106716580D01*
X111297933Y-106764200D01*
X111202695Y-106859438D01*
X111155076Y-106954676D01*
X111107457Y-107145152D01*
X111107457Y-107288009D01*
X111155076Y-107478485D01*
X111202695Y-107573723D01*
X111297933Y-107668961D01*
X111440790Y-107716580D01*
X111678885Y-107716580D01*
X110726504Y-106811819D02*
X110678885Y-106764200D01*
X110583647Y-106716580D01*
X110345552Y-106716580D01*
X110250314Y-106764200D01*
X110202695Y-106811819D01*
X110155076Y-106907057D01*
X110155076Y-107002295D01*
X110202695Y-107145152D01*
X110774123Y-107716580D01*
X110155076Y-107716580D01*
X109583647Y-107145152D02*
X109678885Y-107097533D01*
X109726504Y-107049914D01*
X109774123Y-106954676D01*
X109774123Y-106907057D01*
X109726504Y-106811819D01*
X109678885Y-106764200D01*
X109583647Y-106716580D01*
X109393171Y-106716580D01*
X109297933Y-106764200D01*
X109250314Y-106811819D01*
X109202695Y-106907057D01*
X109202695Y-106954676D01*
X109250314Y-107049914D01*
X109297933Y-107097533D01*
X109393171Y-107145152D01*
X109583647Y-107145152D01*
X109678885Y-107192771D01*
X109726504Y-107240390D01*
X109774123Y-107335628D01*
X109774123Y-107526104D01*
X109726504Y-107621342D01*
X109678885Y-107668961D01*
X109583647Y-107716580D01*
X109393171Y-107716580D01*
X109297933Y-107668961D01*
X109250314Y-107621342D01*
X109202695Y-107526104D01*
X109202695Y-107335628D01*
X109250314Y-107240390D01*
X109297933Y-107192771D01*
X109393171Y-107145152D01*
%TO.C,D30*%
X111628085Y-126766580D02*
X111628085Y-125766580D01*
X111389990Y-125766580D01*
X111247133Y-125814200D01*
X111151895Y-125909438D01*
X111104276Y-126004676D01*
X111056657Y-126195152D01*
X111056657Y-126338009D01*
X111104276Y-126528485D01*
X111151895Y-126623723D01*
X111247133Y-126718961D01*
X111389990Y-126766580D01*
X111628085Y-126766580D01*
X110723323Y-125766580D02*
X110104276Y-125766580D01*
X110437609Y-126147533D01*
X110294752Y-126147533D01*
X110199514Y-126195152D01*
X110151895Y-126242771D01*
X110104276Y-126338009D01*
X110104276Y-126576104D01*
X110151895Y-126671342D01*
X110199514Y-126718961D01*
X110294752Y-126766580D01*
X110580466Y-126766580D01*
X110675704Y-126718961D01*
X110723323Y-126671342D01*
X109485228Y-125766580D02*
X109389990Y-125766580D01*
X109294752Y-125814200D01*
X109247133Y-125861819D01*
X109199514Y-125957057D01*
X109151895Y-126147533D01*
X109151895Y-126385628D01*
X109199514Y-126576104D01*
X109247133Y-126671342D01*
X109294752Y-126718961D01*
X109389990Y-126766580D01*
X109485228Y-126766580D01*
X109580466Y-126718961D01*
X109628085Y-126671342D01*
X109675704Y-126576104D01*
X109723323Y-126385628D01*
X109723323Y-126147533D01*
X109675704Y-125957057D01*
X109628085Y-125861819D01*
X109580466Y-125814200D01*
X109485228Y-125766580D01*
%TO.C,D32*%
X111628085Y-145816580D02*
X111628085Y-144816580D01*
X111389990Y-144816580D01*
X111247133Y-144864200D01*
X111151895Y-144959438D01*
X111104276Y-145054676D01*
X111056657Y-145245152D01*
X111056657Y-145388009D01*
X111104276Y-145578485D01*
X111151895Y-145673723D01*
X111247133Y-145768961D01*
X111389990Y-145816580D01*
X111628085Y-145816580D01*
X110723323Y-144816580D02*
X110104276Y-144816580D01*
X110437609Y-145197533D01*
X110294752Y-145197533D01*
X110199514Y-145245152D01*
X110151895Y-145292771D01*
X110104276Y-145388009D01*
X110104276Y-145626104D01*
X110151895Y-145721342D01*
X110199514Y-145768961D01*
X110294752Y-145816580D01*
X110580466Y-145816580D01*
X110675704Y-145768961D01*
X110723323Y-145721342D01*
X109723323Y-144911819D02*
X109675704Y-144864200D01*
X109580466Y-144816580D01*
X109342371Y-144816580D01*
X109247133Y-144864200D01*
X109199514Y-144911819D01*
X109151895Y-145007057D01*
X109151895Y-145102295D01*
X109199514Y-145245152D01*
X109770942Y-145816580D01*
X109151895Y-145816580D01*
%TO.C,D34*%
X46274196Y-165337997D02*
X45851577Y-164431689D01*
X45635790Y-164532312D01*
X45526442Y-164635844D01*
X45480376Y-164762408D01*
X45477468Y-164868848D01*
X45514809Y-165061603D01*
X45575183Y-165191075D01*
X45698840Y-165343580D01*
X45782246Y-165409771D01*
X45908811Y-165455836D01*
X46058408Y-165438620D01*
X46274196Y-165337997D01*
X45031585Y-164814058D02*
X44470537Y-165075679D01*
X44933637Y-165280066D01*
X44804164Y-165340440D01*
X44737974Y-165423847D01*
X44714941Y-165487129D01*
X44712033Y-165593569D01*
X44812656Y-165809356D01*
X44896063Y-165875547D01*
X44959345Y-165898579D01*
X45065785Y-165901488D01*
X45324730Y-165780740D01*
X45390921Y-165697333D01*
X45413953Y-165634050D01*
X43834574Y-165740025D02*
X44116320Y-166344231D01*
X43889364Y-165294142D02*
X44407022Y-165840881D01*
X43845975Y-166102502D01*
%TO.C,D36*%
X130678085Y-67990980D02*
X130678085Y-66990980D01*
X130439990Y-66990980D01*
X130297133Y-67038600D01*
X130201895Y-67133838D01*
X130154276Y-67229076D01*
X130106657Y-67419552D01*
X130106657Y-67562409D01*
X130154276Y-67752885D01*
X130201895Y-67848123D01*
X130297133Y-67943361D01*
X130439990Y-67990980D01*
X130678085Y-67990980D01*
X129773323Y-66990980D02*
X129154276Y-66990980D01*
X129487609Y-67371933D01*
X129344752Y-67371933D01*
X129249514Y-67419552D01*
X129201895Y-67467171D01*
X129154276Y-67562409D01*
X129154276Y-67800504D01*
X129201895Y-67895742D01*
X129249514Y-67943361D01*
X129344752Y-67990980D01*
X129630466Y-67990980D01*
X129725704Y-67943361D01*
X129773323Y-67895742D01*
X128297133Y-66990980D02*
X128487609Y-66990980D01*
X128582847Y-67038600D01*
X128630466Y-67086219D01*
X128725704Y-67229076D01*
X128773323Y-67419552D01*
X128773323Y-67800504D01*
X128725704Y-67895742D01*
X128678085Y-67943361D01*
X128582847Y-67990980D01*
X128392371Y-67990980D01*
X128297133Y-67943361D01*
X128249514Y-67895742D01*
X128201895Y-67800504D01*
X128201895Y-67562409D01*
X128249514Y-67467171D01*
X128297133Y-67419552D01*
X128392371Y-67371933D01*
X128582847Y-67371933D01*
X128678085Y-67419552D01*
X128725704Y-67467171D01*
X128773323Y-67562409D01*
%TO.C,D38*%
X130728885Y-87091780D02*
X130728885Y-86091780D01*
X130490790Y-86091780D01*
X130347933Y-86139400D01*
X130252695Y-86234638D01*
X130205076Y-86329876D01*
X130157457Y-86520352D01*
X130157457Y-86663209D01*
X130205076Y-86853685D01*
X130252695Y-86948923D01*
X130347933Y-87044161D01*
X130490790Y-87091780D01*
X130728885Y-87091780D01*
X129824123Y-86091780D02*
X129205076Y-86091780D01*
X129538409Y-86472733D01*
X129395552Y-86472733D01*
X129300314Y-86520352D01*
X129252695Y-86567971D01*
X129205076Y-86663209D01*
X129205076Y-86901304D01*
X129252695Y-86996542D01*
X129300314Y-87044161D01*
X129395552Y-87091780D01*
X129681266Y-87091780D01*
X129776504Y-87044161D01*
X129824123Y-86996542D01*
X128633647Y-86520352D02*
X128728885Y-86472733D01*
X128776504Y-86425114D01*
X128824123Y-86329876D01*
X128824123Y-86282257D01*
X128776504Y-86187019D01*
X128728885Y-86139400D01*
X128633647Y-86091780D01*
X128443171Y-86091780D01*
X128347933Y-86139400D01*
X128300314Y-86187019D01*
X128252695Y-86282257D01*
X128252695Y-86329876D01*
X128300314Y-86425114D01*
X128347933Y-86472733D01*
X128443171Y-86520352D01*
X128633647Y-86520352D01*
X128728885Y-86567971D01*
X128776504Y-86615590D01*
X128824123Y-86710828D01*
X128824123Y-86901304D01*
X128776504Y-86996542D01*
X128728885Y-87044161D01*
X128633647Y-87091780D01*
X128443171Y-87091780D01*
X128347933Y-87044161D01*
X128300314Y-86996542D01*
X128252695Y-86901304D01*
X128252695Y-86710828D01*
X128300314Y-86615590D01*
X128347933Y-86567971D01*
X128443171Y-86520352D01*
%TO.C,D40*%
X130678085Y-106141780D02*
X130678085Y-105141780D01*
X130439990Y-105141780D01*
X130297133Y-105189400D01*
X130201895Y-105284638D01*
X130154276Y-105379876D01*
X130106657Y-105570352D01*
X130106657Y-105713209D01*
X130154276Y-105903685D01*
X130201895Y-105998923D01*
X130297133Y-106094161D01*
X130439990Y-106141780D01*
X130678085Y-106141780D01*
X129249514Y-105475114D02*
X129249514Y-106141780D01*
X129487609Y-105094161D02*
X129725704Y-105808447D01*
X129106657Y-105808447D01*
X128535228Y-105141780D02*
X128439990Y-105141780D01*
X128344752Y-105189400D01*
X128297133Y-105237019D01*
X128249514Y-105332257D01*
X128201895Y-105522733D01*
X128201895Y-105760828D01*
X128249514Y-105951304D01*
X128297133Y-106046542D01*
X128344752Y-106094161D01*
X128439990Y-106141780D01*
X128535228Y-106141780D01*
X128630466Y-106094161D01*
X128678085Y-106046542D01*
X128725704Y-105951304D01*
X128773323Y-105760828D01*
X128773323Y-105522733D01*
X128725704Y-105332257D01*
X128678085Y-105237019D01*
X128630466Y-105189400D01*
X128535228Y-105141780D01*
%TO.C,D42*%
X130779685Y-125140980D02*
X130779685Y-124140980D01*
X130541590Y-124140980D01*
X130398733Y-124188600D01*
X130303495Y-124283838D01*
X130255876Y-124379076D01*
X130208257Y-124569552D01*
X130208257Y-124712409D01*
X130255876Y-124902885D01*
X130303495Y-124998123D01*
X130398733Y-125093361D01*
X130541590Y-125140980D01*
X130779685Y-125140980D01*
X129351114Y-124474314D02*
X129351114Y-125140980D01*
X129589209Y-124093361D02*
X129827304Y-124807647D01*
X129208257Y-124807647D01*
X128874923Y-124236219D02*
X128827304Y-124188600D01*
X128732066Y-124140980D01*
X128493971Y-124140980D01*
X128398733Y-124188600D01*
X128351114Y-124236219D01*
X128303495Y-124331457D01*
X128303495Y-124426695D01*
X128351114Y-124569552D01*
X128922542Y-125140980D01*
X128303495Y-125140980D01*
%TO.C,D44*%
X130678085Y-144241780D02*
X130678085Y-143241780D01*
X130439990Y-143241780D01*
X130297133Y-143289400D01*
X130201895Y-143384638D01*
X130154276Y-143479876D01*
X130106657Y-143670352D01*
X130106657Y-143813209D01*
X130154276Y-144003685D01*
X130201895Y-144098923D01*
X130297133Y-144194161D01*
X130439990Y-144241780D01*
X130678085Y-144241780D01*
X129249514Y-143575114D02*
X129249514Y-144241780D01*
X129487609Y-143194161D02*
X129725704Y-143908447D01*
X129106657Y-143908447D01*
X128297133Y-143575114D02*
X128297133Y-144241780D01*
X128535228Y-143194161D02*
X128773323Y-143908447D01*
X128154276Y-143908447D01*
%TO.C,D46*%
X86245562Y-152194006D02*
X87151870Y-151771387D01*
X87051247Y-151555600D01*
X86947715Y-151446252D01*
X86821151Y-151400186D01*
X86714711Y-151397278D01*
X86521956Y-151434619D01*
X86392484Y-151494993D01*
X86239979Y-151618650D01*
X86173788Y-151702056D01*
X86127723Y-151828621D01*
X86144939Y-151978218D01*
X86245562Y-152194006D01*
X86246027Y-150617535D02*
X85641822Y-150899280D01*
X86691911Y-150672325D02*
X86145171Y-151189983D01*
X85883551Y-150628935D01*
X86145636Y-149613512D02*
X86226135Y-149786142D01*
X86223227Y-149892581D01*
X86200194Y-149955864D01*
X86110971Y-150102553D01*
X85958465Y-150226209D01*
X85613205Y-150387206D01*
X85506766Y-150384298D01*
X85443483Y-150361265D01*
X85360077Y-150295075D01*
X85279578Y-150122445D01*
X85282486Y-150016005D01*
X85305519Y-149952723D01*
X85371709Y-149869316D01*
X85587497Y-149768693D01*
X85693936Y-149771601D01*
X85757219Y-149794634D01*
X85840626Y-149860824D01*
X85921124Y-150033454D01*
X85918216Y-150139894D01*
X85895183Y-150203176D01*
X85828993Y-150286583D01*
%TO.C,D48*%
X149728085Y-69616580D02*
X149728085Y-68616580D01*
X149489990Y-68616580D01*
X149347133Y-68664200D01*
X149251895Y-68759438D01*
X149204276Y-68854676D01*
X149156657Y-69045152D01*
X149156657Y-69188009D01*
X149204276Y-69378485D01*
X149251895Y-69473723D01*
X149347133Y-69568961D01*
X149489990Y-69616580D01*
X149728085Y-69616580D01*
X148299514Y-68949914D02*
X148299514Y-69616580D01*
X148537609Y-68568961D02*
X148775704Y-69283247D01*
X148156657Y-69283247D01*
X147632847Y-69045152D02*
X147728085Y-68997533D01*
X147775704Y-68949914D01*
X147823323Y-68854676D01*
X147823323Y-68807057D01*
X147775704Y-68711819D01*
X147728085Y-68664200D01*
X147632847Y-68616580D01*
X147442371Y-68616580D01*
X147347133Y-68664200D01*
X147299514Y-68711819D01*
X147251895Y-68807057D01*
X147251895Y-68854676D01*
X147299514Y-68949914D01*
X147347133Y-68997533D01*
X147442371Y-69045152D01*
X147632847Y-69045152D01*
X147728085Y-69092771D01*
X147775704Y-69140390D01*
X147823323Y-69235628D01*
X147823323Y-69426104D01*
X147775704Y-69521342D01*
X147728085Y-69568961D01*
X147632847Y-69616580D01*
X147442371Y-69616580D01*
X147347133Y-69568961D01*
X147299514Y-69521342D01*
X147251895Y-69426104D01*
X147251895Y-69235628D01*
X147299514Y-69140390D01*
X147347133Y-69092771D01*
X147442371Y-69045152D01*
%TO.C,D50*%
X149677285Y-88666580D02*
X149677285Y-87666580D01*
X149439190Y-87666580D01*
X149296333Y-87714200D01*
X149201095Y-87809438D01*
X149153476Y-87904676D01*
X149105857Y-88095152D01*
X149105857Y-88238009D01*
X149153476Y-88428485D01*
X149201095Y-88523723D01*
X149296333Y-88618961D01*
X149439190Y-88666580D01*
X149677285Y-88666580D01*
X148201095Y-87666580D02*
X148677285Y-87666580D01*
X148724904Y-88142771D01*
X148677285Y-88095152D01*
X148582047Y-88047533D01*
X148343952Y-88047533D01*
X148248714Y-88095152D01*
X148201095Y-88142771D01*
X148153476Y-88238009D01*
X148153476Y-88476104D01*
X148201095Y-88571342D01*
X148248714Y-88618961D01*
X148343952Y-88666580D01*
X148582047Y-88666580D01*
X148677285Y-88618961D01*
X148724904Y-88571342D01*
X147534428Y-87666580D02*
X147439190Y-87666580D01*
X147343952Y-87714200D01*
X147296333Y-87761819D01*
X147248714Y-87857057D01*
X147201095Y-88047533D01*
X147201095Y-88285628D01*
X147248714Y-88476104D01*
X147296333Y-88571342D01*
X147343952Y-88618961D01*
X147439190Y-88666580D01*
X147534428Y-88666580D01*
X147629666Y-88618961D01*
X147677285Y-88571342D01*
X147724904Y-88476104D01*
X147772523Y-88285628D01*
X147772523Y-88047533D01*
X147724904Y-87857057D01*
X147677285Y-87761819D01*
X147629666Y-87714200D01*
X147534428Y-87666580D01*
%TO.C,D52*%
X149778885Y-107716580D02*
X149778885Y-106716580D01*
X149540790Y-106716580D01*
X149397933Y-106764200D01*
X149302695Y-106859438D01*
X149255076Y-106954676D01*
X149207457Y-107145152D01*
X149207457Y-107288009D01*
X149255076Y-107478485D01*
X149302695Y-107573723D01*
X149397933Y-107668961D01*
X149540790Y-107716580D01*
X149778885Y-107716580D01*
X148302695Y-106716580D02*
X148778885Y-106716580D01*
X148826504Y-107192771D01*
X148778885Y-107145152D01*
X148683647Y-107097533D01*
X148445552Y-107097533D01*
X148350314Y-107145152D01*
X148302695Y-107192771D01*
X148255076Y-107288009D01*
X148255076Y-107526104D01*
X148302695Y-107621342D01*
X148350314Y-107668961D01*
X148445552Y-107716580D01*
X148683647Y-107716580D01*
X148778885Y-107668961D01*
X148826504Y-107621342D01*
X147874123Y-106811819D02*
X147826504Y-106764200D01*
X147731266Y-106716580D01*
X147493171Y-106716580D01*
X147397933Y-106764200D01*
X147350314Y-106811819D01*
X147302695Y-106907057D01*
X147302695Y-107002295D01*
X147350314Y-107145152D01*
X147921742Y-107716580D01*
X147302695Y-107716580D01*
%TO.C,D54*%
X149778885Y-126766580D02*
X149778885Y-125766580D01*
X149540790Y-125766580D01*
X149397933Y-125814200D01*
X149302695Y-125909438D01*
X149255076Y-126004676D01*
X149207457Y-126195152D01*
X149207457Y-126338009D01*
X149255076Y-126528485D01*
X149302695Y-126623723D01*
X149397933Y-126718961D01*
X149540790Y-126766580D01*
X149778885Y-126766580D01*
X148302695Y-125766580D02*
X148778885Y-125766580D01*
X148826504Y-126242771D01*
X148778885Y-126195152D01*
X148683647Y-126147533D01*
X148445552Y-126147533D01*
X148350314Y-126195152D01*
X148302695Y-126242771D01*
X148255076Y-126338009D01*
X148255076Y-126576104D01*
X148302695Y-126671342D01*
X148350314Y-126718961D01*
X148445552Y-126766580D01*
X148683647Y-126766580D01*
X148778885Y-126718961D01*
X148826504Y-126671342D01*
X147397933Y-126099914D02*
X147397933Y-126766580D01*
X147636028Y-125718961D02*
X147874123Y-126433247D01*
X147255076Y-126433247D01*
%TO.C,D56*%
X149778885Y-145816580D02*
X149778885Y-144816580D01*
X149540790Y-144816580D01*
X149397933Y-144864200D01*
X149302695Y-144959438D01*
X149255076Y-145054676D01*
X149207457Y-145245152D01*
X149207457Y-145388009D01*
X149255076Y-145578485D01*
X149302695Y-145673723D01*
X149397933Y-145768961D01*
X149540790Y-145816580D01*
X149778885Y-145816580D01*
X148302695Y-144816580D02*
X148778885Y-144816580D01*
X148826504Y-145292771D01*
X148778885Y-145245152D01*
X148683647Y-145197533D01*
X148445552Y-145197533D01*
X148350314Y-145245152D01*
X148302695Y-145292771D01*
X148255076Y-145388009D01*
X148255076Y-145626104D01*
X148302695Y-145721342D01*
X148350314Y-145768961D01*
X148445552Y-145816580D01*
X148683647Y-145816580D01*
X148778885Y-145768961D01*
X148826504Y-145721342D01*
X147397933Y-144816580D02*
X147588409Y-144816580D01*
X147683647Y-144864200D01*
X147731266Y-144911819D01*
X147826504Y-145054676D01*
X147874123Y-145245152D01*
X147874123Y-145626104D01*
X147826504Y-145721342D01*
X147778885Y-145768961D01*
X147683647Y-145816580D01*
X147493171Y-145816580D01*
X147397933Y-145768961D01*
X147350314Y-145721342D01*
X147302695Y-145626104D01*
X147302695Y-145388009D01*
X147350314Y-145292771D01*
X147397933Y-145245152D01*
X147493171Y-145197533D01*
X147683647Y-145197533D01*
X147778885Y-145245152D01*
X147826504Y-145292771D01*
X147874123Y-145388009D01*
%TO.C,D58*%
X68973562Y-160220406D02*
X69879870Y-159797787D01*
X69779247Y-159582000D01*
X69675715Y-159472652D01*
X69549151Y-159426586D01*
X69442711Y-159423678D01*
X69249956Y-159461019D01*
X69120484Y-159521393D01*
X68967979Y-159645050D01*
X68901788Y-159728456D01*
X68855723Y-159855021D01*
X68872939Y-160004618D01*
X68973562Y-160220406D01*
X69256005Y-158459904D02*
X69457252Y-158891480D01*
X69045802Y-159135884D01*
X69068834Y-159072602D01*
X69071742Y-158966162D01*
X68971119Y-158750374D01*
X68887712Y-158684184D01*
X68824430Y-158661151D01*
X68717990Y-158658243D01*
X68502203Y-158758866D01*
X68436012Y-158842273D01*
X68412980Y-158905555D01*
X68410071Y-159011995D01*
X68510695Y-159227783D01*
X68594102Y-159293973D01*
X68657384Y-159317006D01*
X68605967Y-158079979D02*
X68689374Y-158146169D01*
X68752656Y-158169202D01*
X68859095Y-158172110D01*
X68902253Y-158151985D01*
X68968443Y-158068579D01*
X68991476Y-158005296D01*
X68994384Y-157898857D01*
X68913886Y-157726227D01*
X68830479Y-157660036D01*
X68767197Y-157637003D01*
X68660757Y-157634095D01*
X68617599Y-157654220D01*
X68551409Y-157737627D01*
X68528376Y-157800909D01*
X68525468Y-157907349D01*
X68605967Y-158079979D01*
X68603059Y-158186419D01*
X68580026Y-158249701D01*
X68513835Y-158333108D01*
X68341205Y-158413606D01*
X68234766Y-158410698D01*
X68171483Y-158387665D01*
X68088077Y-158321475D01*
X68007578Y-158148845D01*
X68010486Y-158042405D01*
X68033519Y-157979123D01*
X68099709Y-157895716D01*
X68272339Y-157815217D01*
X68378779Y-157818126D01*
X68442061Y-157841158D01*
X68525468Y-157907349D01*
%TO.C,D60*%
X168778085Y-72816980D02*
X168778085Y-71816980D01*
X168539990Y-71816980D01*
X168397133Y-71864600D01*
X168301895Y-71959838D01*
X168254276Y-72055076D01*
X168206657Y-72245552D01*
X168206657Y-72388409D01*
X168254276Y-72578885D01*
X168301895Y-72674123D01*
X168397133Y-72769361D01*
X168539990Y-72816980D01*
X168778085Y-72816980D01*
X167349514Y-71816980D02*
X167539990Y-71816980D01*
X167635228Y-71864600D01*
X167682847Y-71912219D01*
X167778085Y-72055076D01*
X167825704Y-72245552D01*
X167825704Y-72626504D01*
X167778085Y-72721742D01*
X167730466Y-72769361D01*
X167635228Y-72816980D01*
X167444752Y-72816980D01*
X167349514Y-72769361D01*
X167301895Y-72721742D01*
X167254276Y-72626504D01*
X167254276Y-72388409D01*
X167301895Y-72293171D01*
X167349514Y-72245552D01*
X167444752Y-72197933D01*
X167635228Y-72197933D01*
X167730466Y-72245552D01*
X167778085Y-72293171D01*
X167825704Y-72388409D01*
X166635228Y-71816980D02*
X166539990Y-71816980D01*
X166444752Y-71864600D01*
X166397133Y-71912219D01*
X166349514Y-72007457D01*
X166301895Y-72197933D01*
X166301895Y-72436028D01*
X166349514Y-72626504D01*
X166397133Y-72721742D01*
X166444752Y-72769361D01*
X166539990Y-72816980D01*
X166635228Y-72816980D01*
X166730466Y-72769361D01*
X166778085Y-72721742D01*
X166825704Y-72626504D01*
X166873323Y-72436028D01*
X166873323Y-72197933D01*
X166825704Y-72007457D01*
X166778085Y-71912219D01*
X166730466Y-71864600D01*
X166635228Y-71816980D01*
%TO.C,D62*%
X168828885Y-91816180D02*
X168828885Y-90816180D01*
X168590790Y-90816180D01*
X168447933Y-90863800D01*
X168352695Y-90959038D01*
X168305076Y-91054276D01*
X168257457Y-91244752D01*
X168257457Y-91387609D01*
X168305076Y-91578085D01*
X168352695Y-91673323D01*
X168447933Y-91768561D01*
X168590790Y-91816180D01*
X168828885Y-91816180D01*
X167400314Y-90816180D02*
X167590790Y-90816180D01*
X167686028Y-90863800D01*
X167733647Y-90911419D01*
X167828885Y-91054276D01*
X167876504Y-91244752D01*
X167876504Y-91625704D01*
X167828885Y-91720942D01*
X167781266Y-91768561D01*
X167686028Y-91816180D01*
X167495552Y-91816180D01*
X167400314Y-91768561D01*
X167352695Y-91720942D01*
X167305076Y-91625704D01*
X167305076Y-91387609D01*
X167352695Y-91292371D01*
X167400314Y-91244752D01*
X167495552Y-91197133D01*
X167686028Y-91197133D01*
X167781266Y-91244752D01*
X167828885Y-91292371D01*
X167876504Y-91387609D01*
X166924123Y-90911419D02*
X166876504Y-90863800D01*
X166781266Y-90816180D01*
X166543171Y-90816180D01*
X166447933Y-90863800D01*
X166400314Y-90911419D01*
X166352695Y-91006657D01*
X166352695Y-91101895D01*
X166400314Y-91244752D01*
X166971742Y-91816180D01*
X166352695Y-91816180D01*
%TO.C,D64*%
X168778085Y-110916980D02*
X168778085Y-109916980D01*
X168539990Y-109916980D01*
X168397133Y-109964600D01*
X168301895Y-110059838D01*
X168254276Y-110155076D01*
X168206657Y-110345552D01*
X168206657Y-110488409D01*
X168254276Y-110678885D01*
X168301895Y-110774123D01*
X168397133Y-110869361D01*
X168539990Y-110916980D01*
X168778085Y-110916980D01*
X167349514Y-109916980D02*
X167539990Y-109916980D01*
X167635228Y-109964600D01*
X167682847Y-110012219D01*
X167778085Y-110155076D01*
X167825704Y-110345552D01*
X167825704Y-110726504D01*
X167778085Y-110821742D01*
X167730466Y-110869361D01*
X167635228Y-110916980D01*
X167444752Y-110916980D01*
X167349514Y-110869361D01*
X167301895Y-110821742D01*
X167254276Y-110726504D01*
X167254276Y-110488409D01*
X167301895Y-110393171D01*
X167349514Y-110345552D01*
X167444752Y-110297933D01*
X167635228Y-110297933D01*
X167730466Y-110345552D01*
X167778085Y-110393171D01*
X167825704Y-110488409D01*
X166397133Y-110250314D02*
X166397133Y-110916980D01*
X166635228Y-109869361D02*
X166873323Y-110583647D01*
X166254276Y-110583647D01*
%TO.C,D66*%
X168828885Y-129966980D02*
X168828885Y-128966980D01*
X168590790Y-128966980D01*
X168447933Y-129014600D01*
X168352695Y-129109838D01*
X168305076Y-129205076D01*
X168257457Y-129395552D01*
X168257457Y-129538409D01*
X168305076Y-129728885D01*
X168352695Y-129824123D01*
X168447933Y-129919361D01*
X168590790Y-129966980D01*
X168828885Y-129966980D01*
X167400314Y-128966980D02*
X167590790Y-128966980D01*
X167686028Y-129014600D01*
X167733647Y-129062219D01*
X167828885Y-129205076D01*
X167876504Y-129395552D01*
X167876504Y-129776504D01*
X167828885Y-129871742D01*
X167781266Y-129919361D01*
X167686028Y-129966980D01*
X167495552Y-129966980D01*
X167400314Y-129919361D01*
X167352695Y-129871742D01*
X167305076Y-129776504D01*
X167305076Y-129538409D01*
X167352695Y-129443171D01*
X167400314Y-129395552D01*
X167495552Y-129347933D01*
X167686028Y-129347933D01*
X167781266Y-129395552D01*
X167828885Y-129443171D01*
X167876504Y-129538409D01*
X166447933Y-128966980D02*
X166638409Y-128966980D01*
X166733647Y-129014600D01*
X166781266Y-129062219D01*
X166876504Y-129205076D01*
X166924123Y-129395552D01*
X166924123Y-129776504D01*
X166876504Y-129871742D01*
X166828885Y-129919361D01*
X166733647Y-129966980D01*
X166543171Y-129966980D01*
X166447933Y-129919361D01*
X166400314Y-129871742D01*
X166352695Y-129776504D01*
X166352695Y-129538409D01*
X166400314Y-129443171D01*
X166447933Y-129395552D01*
X166543171Y-129347933D01*
X166733647Y-129347933D01*
X166828885Y-129395552D01*
X166876504Y-129443171D01*
X166924123Y-129538409D01*
%TO.C,D68*%
X168828885Y-148966180D02*
X168828885Y-147966180D01*
X168590790Y-147966180D01*
X168447933Y-148013800D01*
X168352695Y-148109038D01*
X168305076Y-148204276D01*
X168257457Y-148394752D01*
X168257457Y-148537609D01*
X168305076Y-148728085D01*
X168352695Y-148823323D01*
X168447933Y-148918561D01*
X168590790Y-148966180D01*
X168828885Y-148966180D01*
X167400314Y-147966180D02*
X167590790Y-147966180D01*
X167686028Y-148013800D01*
X167733647Y-148061419D01*
X167828885Y-148204276D01*
X167876504Y-148394752D01*
X167876504Y-148775704D01*
X167828885Y-148870942D01*
X167781266Y-148918561D01*
X167686028Y-148966180D01*
X167495552Y-148966180D01*
X167400314Y-148918561D01*
X167352695Y-148870942D01*
X167305076Y-148775704D01*
X167305076Y-148537609D01*
X167352695Y-148442371D01*
X167400314Y-148394752D01*
X167495552Y-148347133D01*
X167686028Y-148347133D01*
X167781266Y-148394752D01*
X167828885Y-148442371D01*
X167876504Y-148537609D01*
X166733647Y-148394752D02*
X166828885Y-148347133D01*
X166876504Y-148299514D01*
X166924123Y-148204276D01*
X166924123Y-148156657D01*
X166876504Y-148061419D01*
X166828885Y-148013800D01*
X166733647Y-147966180D01*
X166543171Y-147966180D01*
X166447933Y-148013800D01*
X166400314Y-148061419D01*
X166352695Y-148156657D01*
X166352695Y-148204276D01*
X166400314Y-148299514D01*
X166447933Y-148347133D01*
X166543171Y-148394752D01*
X166733647Y-148394752D01*
X166828885Y-148442371D01*
X166876504Y-148489990D01*
X166924123Y-148585228D01*
X166924123Y-148775704D01*
X166876504Y-148870942D01*
X166828885Y-148918561D01*
X166733647Y-148966180D01*
X166543171Y-148966180D01*
X166447933Y-148918561D01*
X166400314Y-148870942D01*
X166352695Y-148775704D01*
X166352695Y-148585228D01*
X166400314Y-148489990D01*
X166447933Y-148442371D01*
X166543171Y-148394752D01*
%TO.C,D70*%
X54300596Y-182559197D02*
X53877977Y-181652889D01*
X53662190Y-181753512D01*
X53552842Y-181857044D01*
X53506776Y-181983608D01*
X53503868Y-182090048D01*
X53541209Y-182282803D01*
X53601583Y-182412275D01*
X53725240Y-182564780D01*
X53808646Y-182630971D01*
X53935211Y-182677036D01*
X54084808Y-182659820D01*
X54300596Y-182559197D01*
X53057985Y-182035258D02*
X52453779Y-182317003D01*
X53264815Y-183042189D01*
X51935889Y-182558499D02*
X51849574Y-182598749D01*
X51783384Y-182682156D01*
X51760351Y-182745438D01*
X51757443Y-182851877D01*
X51794784Y-183044632D01*
X51895407Y-183260420D01*
X52019064Y-183412925D01*
X52102471Y-183479115D01*
X52165753Y-183502148D01*
X52272192Y-183505056D01*
X52358507Y-183464807D01*
X52424698Y-183381400D01*
X52447731Y-183318118D01*
X52450639Y-183211678D01*
X52413298Y-183018924D01*
X52312674Y-182803136D01*
X52189018Y-182650631D01*
X52105611Y-182584440D01*
X52042329Y-182561407D01*
X51935889Y-182558499D01*
%TO.C,D72*%
X192603285Y-72766180D02*
X192603285Y-71766180D01*
X192365190Y-71766180D01*
X192222333Y-71813800D01*
X192127095Y-71909038D01*
X192079476Y-72004276D01*
X192031857Y-72194752D01*
X192031857Y-72337609D01*
X192079476Y-72528085D01*
X192127095Y-72623323D01*
X192222333Y-72718561D01*
X192365190Y-72766180D01*
X192603285Y-72766180D01*
X191698523Y-71766180D02*
X191031857Y-71766180D01*
X191460428Y-72766180D01*
X190698523Y-71861419D02*
X190650904Y-71813800D01*
X190555666Y-71766180D01*
X190317571Y-71766180D01*
X190222333Y-71813800D01*
X190174714Y-71861419D01*
X190127095Y-71956657D01*
X190127095Y-72051895D01*
X190174714Y-72194752D01*
X190746142Y-72766180D01*
X190127095Y-72766180D01*
%TO.C,D74*%
X192603285Y-91866980D02*
X192603285Y-90866980D01*
X192365190Y-90866980D01*
X192222333Y-90914600D01*
X192127095Y-91009838D01*
X192079476Y-91105076D01*
X192031857Y-91295552D01*
X192031857Y-91438409D01*
X192079476Y-91628885D01*
X192127095Y-91724123D01*
X192222333Y-91819361D01*
X192365190Y-91866980D01*
X192603285Y-91866980D01*
X191698523Y-90866980D02*
X191031857Y-90866980D01*
X191460428Y-91866980D01*
X190222333Y-91200314D02*
X190222333Y-91866980D01*
X190460428Y-90819361D02*
X190698523Y-91533647D01*
X190079476Y-91533647D01*
%TO.C,D76*%
X192603285Y-110866180D02*
X192603285Y-109866180D01*
X192365190Y-109866180D01*
X192222333Y-109913800D01*
X192127095Y-110009038D01*
X192079476Y-110104276D01*
X192031857Y-110294752D01*
X192031857Y-110437609D01*
X192079476Y-110628085D01*
X192127095Y-110723323D01*
X192222333Y-110818561D01*
X192365190Y-110866180D01*
X192603285Y-110866180D01*
X191698523Y-109866180D02*
X191031857Y-109866180D01*
X191460428Y-110866180D01*
X190222333Y-109866180D02*
X190412809Y-109866180D01*
X190508047Y-109913800D01*
X190555666Y-109961419D01*
X190650904Y-110104276D01*
X190698523Y-110294752D01*
X190698523Y-110675704D01*
X190650904Y-110770942D01*
X190603285Y-110818561D01*
X190508047Y-110866180D01*
X190317571Y-110866180D01*
X190222333Y-110818561D01*
X190174714Y-110770942D01*
X190127095Y-110675704D01*
X190127095Y-110437609D01*
X190174714Y-110342371D01*
X190222333Y-110294752D01*
X190317571Y-110247133D01*
X190508047Y-110247133D01*
X190603285Y-110294752D01*
X190650904Y-110342371D01*
X190698523Y-110437609D01*
%TO.C,D78*%
X192654085Y-129916180D02*
X192654085Y-128916180D01*
X192415990Y-128916180D01*
X192273133Y-128963800D01*
X192177895Y-129059038D01*
X192130276Y-129154276D01*
X192082657Y-129344752D01*
X192082657Y-129487609D01*
X192130276Y-129678085D01*
X192177895Y-129773323D01*
X192273133Y-129868561D01*
X192415990Y-129916180D01*
X192654085Y-129916180D01*
X191749323Y-128916180D02*
X191082657Y-128916180D01*
X191511228Y-129916180D01*
X190558847Y-129344752D02*
X190654085Y-129297133D01*
X190701704Y-129249514D01*
X190749323Y-129154276D01*
X190749323Y-129106657D01*
X190701704Y-129011419D01*
X190654085Y-128963800D01*
X190558847Y-128916180D01*
X190368371Y-128916180D01*
X190273133Y-128963800D01*
X190225514Y-129011419D01*
X190177895Y-129106657D01*
X190177895Y-129154276D01*
X190225514Y-129249514D01*
X190273133Y-129297133D01*
X190368371Y-129344752D01*
X190558847Y-129344752D01*
X190654085Y-129392371D01*
X190701704Y-129439990D01*
X190749323Y-129535228D01*
X190749323Y-129725704D01*
X190701704Y-129820942D01*
X190654085Y-129868561D01*
X190558847Y-129916180D01*
X190368371Y-129916180D01*
X190273133Y-129868561D01*
X190225514Y-129820942D01*
X190177895Y-129725704D01*
X190177895Y-129535228D01*
X190225514Y-129439990D01*
X190273133Y-129392371D01*
X190368371Y-129344752D01*
%TO.C,D80*%
X187878885Y-148966180D02*
X187878885Y-147966180D01*
X187640790Y-147966180D01*
X187497933Y-148013800D01*
X187402695Y-148109038D01*
X187355076Y-148204276D01*
X187307457Y-148394752D01*
X187307457Y-148537609D01*
X187355076Y-148728085D01*
X187402695Y-148823323D01*
X187497933Y-148918561D01*
X187640790Y-148966180D01*
X187878885Y-148966180D01*
X186736028Y-148394752D02*
X186831266Y-148347133D01*
X186878885Y-148299514D01*
X186926504Y-148204276D01*
X186926504Y-148156657D01*
X186878885Y-148061419D01*
X186831266Y-148013800D01*
X186736028Y-147966180D01*
X186545552Y-147966180D01*
X186450314Y-148013800D01*
X186402695Y-148061419D01*
X186355076Y-148156657D01*
X186355076Y-148204276D01*
X186402695Y-148299514D01*
X186450314Y-148347133D01*
X186545552Y-148394752D01*
X186736028Y-148394752D01*
X186831266Y-148442371D01*
X186878885Y-148489990D01*
X186926504Y-148585228D01*
X186926504Y-148775704D01*
X186878885Y-148870942D01*
X186831266Y-148918561D01*
X186736028Y-148966180D01*
X186545552Y-148966180D01*
X186450314Y-148918561D01*
X186402695Y-148870942D01*
X186355076Y-148775704D01*
X186355076Y-148585228D01*
X186402695Y-148489990D01*
X186450314Y-148442371D01*
X186545552Y-148394752D01*
X185736028Y-147966180D02*
X185640790Y-147966180D01*
X185545552Y-148013800D01*
X185497933Y-148061419D01*
X185450314Y-148156657D01*
X185402695Y-148347133D01*
X185402695Y-148585228D01*
X185450314Y-148775704D01*
X185497933Y-148870942D01*
X185545552Y-148918561D01*
X185640790Y-148966180D01*
X185736028Y-148966180D01*
X185831266Y-148918561D01*
X185878885Y-148870942D01*
X185926504Y-148775704D01*
X185974123Y-148585228D01*
X185974123Y-148347133D01*
X185926504Y-148156657D01*
X185878885Y-148061419D01*
X185831266Y-148013800D01*
X185736028Y-147966180D01*
%TD*%
M02*
